<?xml version="1.0" encoding="utf-8"?>
<!-- Generator: Adobe Illustrator 19.1.0, SVG Export Plug-In . SVG Version: 6.00 Build 0)  -->
<svg version="1.1" id="Layer_1" xmlns="http://www.w3.org/2000/svg" xmlns:xlink="http://www.w3.org/1999/xlink" x="0px" y="0px"
	 viewBox="0 0 226.8 226.8" style="enable-background:new 0 0 226.8 226.8;" xml:space="preserve">
<style type="text/css">
	.st0{fill:#1C4689;}
	.st1{fill:#FFFFFF;}
</style>
<g>
	<circle class="st0" cx="113.5" cy="113.4" r="110.6"/>
	<g>
		<path class="st1" d="M92.1,83.3c-1.1-5.7-6.2-10.1-12.3-10.1c-6.1,0-11.1,4.3-12.3,10.1h-13v4.9h13c1.1,5.7,6.2,10.1,12.3,10.1
			c6.1,0,11.1-4.3,12.3-10.1h80v-4.9H92.1z"/>
		<path class="st1" d="M148.9,104.8c-6.1,0-11.1,4.3-12.3,10.1H54.6v4.9h82.1c1.1,5.7,6.2,10.1,12.3,10.1s11.1-4.3,12.3-10.1h10.9
			v-4.9h-10.9C160.1,109.1,155,104.8,148.9,104.8z"/>
		<path class="st1" d="M113.5,136.4c-6.1,0-11.1,4.3-12.3,10.1H54.6v4.9h46.7c1.1,5.7,6.2,10.1,12.3,10.1s11.1-4.3,12.3-10.1h46.3
			v-4.9h-46.3C124.7,140.7,119.6,136.4,113.5,136.4z"/>
	</g>
</g>
</svg>
