<?xml version="1.0" encoding="utf-8"?>
<!-- Generator: Adobe Illustrator 19.1.0, SVG Export Plug-In . SVG Version: 6.00 Build 0)  -->
<svg version="1.1" id="Layer_1" xmlns="http://www.w3.org/2000/svg" xmlns:xlink="http://www.w3.org/1999/xlink" x="0px" y="0px"
	 viewBox="0 0 226.8 226.8" style="enable-background:new 0 0 226.8 226.8;" xml:space="preserve">
<style type="text/css">
	.st0{fill:#989898;}
	.st1{fill:#FFFFFF;stroke:#B2B2B2;stroke-width:0.4937;stroke-miterlimit:10;}
	.st2{fill:#FFFFFF;}
	.st3{fill:#B3B3B3;}
	.st4{fill:#C7C6C6;}
</style>
<g>
	<circle class="st0" cx="112.5" cy="113.1" r="110.6"/>
	<g>
		<g>
			<g>
				<path class="st1" d="M119.3,57.4c-0.1,0.9-0.3,2.1-0.6,3.6"/>
				<g>
					<path class="st2" d="M56.1,113.2l-0.5-2.4c2.4-0.5,4.7-1.1,6.9-1.7l0.6,2.3C60.8,112.1,58.5,112.7,56.1,113.2z M69.9,109.3
						l-0.8-2.3c2.3-0.8,4.5-1.6,6.6-2.5l0.9,2.2C74.5,107.7,72.2,108.5,69.9,109.3z M83.2,103.8l-1.1-2.2c2.1-1,4.2-2.2,6.2-3.4
						l1.2,2.1C87.5,101.6,85.4,102.7,83.2,103.8z M95.6,96.4l-1.4-2c1.9-1.4,3.8-2.9,5.5-4.4l1.6,1.8C99.5,93.4,97.6,94.9,95.6,96.4
						z M106.4,86.7l-1.8-1.6c1.6-1.7,3-3.6,4.4-5.4l2,1.4C109.5,83,108,84.9,106.4,86.7z M114.8,74.9l-2.1-1.1
						c1.1-2.1,2.1-4.2,2.9-6.3l2.3,0.9C117,70.5,115.9,72.7,114.8,74.9z"/>
				</g>
				<path class="st1" d="M48.7,113.5c-1.2,0.2-2.4,0.4-3.6,0.6c0,0,1.3,0.1,3.6,0.5"/>
				<g>
					<path class="st2" d="M114.9,160.6c-0.9-2.1-1.9-4.2-3-6.2l2.1-1.2c1.2,2.1,2.2,4.3,3.1,6.5L114.9,160.6z M108.2,148.6
						c-1.3-1.8-2.8-3.6-4.4-5.4l1.8-1.6c1.6,1.8,3.2,3.7,4.5,5.6L108.2,148.6z M98.9,138.3c-1.7-1.5-3.5-3-5.4-4.4l1.4-2
						c2,1.4,3.8,3,5.6,4.5L98.9,138.3z M87.7,130.1c-1.9-1.2-4-2.3-6.1-3.4l1.1-2.2c2.2,1.1,4.3,2.3,6.2,3.5L87.7,130.1z
						 M75.3,123.7c-2.1-0.9-4.3-1.8-6.5-2.6l0.8-2.3c2.2,0.8,4.5,1.7,6.7,2.6L75.3,123.7z M62.1,119c-2.4-0.7-4.7-1.3-6.8-1.8
						l0.6-2.4c2.1,0.5,4.4,1.1,6.9,1.8L62.1,119z"/>
				</g>
				<path class="st1" d="M118.3,166.9c0.3,1.2,0.6,2.3,0.8,3.5"/>
				<g>
					<polygon class="st2" points="110.3,62.5 111.5,64 119,58.2 124.3,66.1 125.9,65 119.5,55.4 					"/>
				</g>
				<g>
					<polygon class="st2" points="109.8,166.1 110.9,164.4 118.8,169.8 123.6,161.5 125.2,162.4 119.5,172.5 					"/>
				</g>
			</g>
		</g>
		<g>
			<circle class="st3" cx="45.1" cy="114.1" r="21.2"/>
			<circle class="st2" cx="119.5" cy="42.8" r="12.5"/>
			<circle class="st2" cx="119.5" cy="186.8" r="12.5"/>
			<circle class="st2" cx="189.7" cy="114.1" r="12.5"/>
			<circle class="st2" cx="45.1" cy="114.1" r="12.5"/>
			<circle class="st2" cx="169.4" cy="65" r="12.5"/>
			<circle class="st2" cx="65.5" cy="65" r="12.5"/>
			<circle class="st2" cx="169.4" cy="167.8" r="12.5"/>
			<circle class="st2" cx="65.5" cy="167.8" r="12.5"/>
		</g>
	</g>
	<circle class="st0" cx="112.5" cy="113.1" r="110.6"/>
	<g>
		<g>
			<g>
				<g>
					<path class="st2" d="M56.1,113.2l-0.5-2.4c2.4-0.5,4.7-1.1,6.9-1.7l0.6,2.3C60.8,112.1,58.5,112.7,56.1,113.2z M69.9,109.3
						l-0.8-2.3c2.3-0.8,4.5-1.6,6.6-2.5l0.9,2.2C74.5,107.7,72.2,108.5,69.9,109.3z M83.2,103.8l-1.1-2.2c2.1-1,4.2-2.2,6.2-3.4
						l1.2,2.1C87.5,101.6,85.4,102.7,83.2,103.8z M95.6,96.4l-1.4-2c1.9-1.4,3.8-2.9,5.5-4.4l1.6,1.8C99.5,93.4,97.6,94.9,95.6,96.4
						z M106.4,86.7l-1.8-1.6c1.6-1.7,3-3.6,4.4-5.4l2,1.4C109.5,83,108,84.9,106.4,86.7z M114.8,74.9l-2.1-1.1
						c1.1-2.1,2.1-4.2,2.9-6.3l2.3,0.9C117,70.5,115.9,72.7,114.8,74.9z"/>
				</g>
				<path class="st1" d="M48.7,113.5c-1.2,0.2-2.4,0.4-3.6,0.6c0,0,1.3,0.1,3.6,0.5"/>
				<g>
					<path class="st2" d="M114.9,160.6c-0.9-2.1-1.9-4.2-3-6.2l2.1-1.2c1.2,2.1,2.2,4.3,3.1,6.5L114.9,160.6z M108.2,148.6
						c-1.3-1.8-2.8-3.6-4.4-5.4l1.8-1.6c1.6,1.8,3.2,3.7,4.5,5.6L108.2,148.6z M98.9,138.3c-1.7-1.5-3.5-3-5.4-4.4l1.4-2
						c2,1.4,3.8,3,5.6,4.5L98.9,138.3z M87.7,130.1c-1.9-1.2-4-2.3-6.1-3.4l1.1-2.2c2.2,1.1,4.3,2.3,6.2,3.5L87.7,130.1z
						 M75.3,123.7c-2.1-0.9-4.3-1.8-6.5-2.6l0.8-2.3c2.2,0.8,4.5,1.7,6.7,2.6L75.3,123.7z M62.1,119c-2.4-0.7-4.7-1.3-6.8-1.8
						l0.6-2.4c2.1,0.5,4.4,1.1,6.9,1.8L62.1,119z"/>
				</g>
				<g>
					<polygon class="st2" points="110.3,62.5 111.5,64 119,58.2 124.3,66.1 125.9,65 119.5,55.4 					"/>
				</g>
				<g>
					<polygon class="st2" points="109.8,166.1 110.9,164.4 118.8,169.8 123.6,161.5 125.2,162.4 119.5,172.5 					"/>
				</g>
			</g>
		</g>
		<g>
			<circle class="st4" cx="45.1" cy="114.1" r="21.2"/>
			<circle class="st2" cx="119.5" cy="42.8" r="12.5"/>
			<circle class="st2" cx="119.5" cy="186.8" r="12.5"/>
			<circle class="st2" cx="189.7" cy="114.1" r="12.5"/>
			<circle class="st2" cx="45.1" cy="114.1" r="12.5"/>
			<circle class="st2" cx="169.4" cy="65" r="12.5"/>
			<circle class="st2" cx="65.5" cy="65" r="12.5"/>
			<circle class="st2" cx="169.4" cy="167.8" r="12.5"/>
			<circle class="st2" cx="65.5" cy="167.8" r="12.5"/>
		</g>
	</g>
</g>
</svg>
