<?xml version="1.0" encoding="utf-8"?>
<!-- Generator: Adobe Illustrator 19.1.0, SVG Export Plug-In . SVG Version: 6.00 Build 0)  -->
<svg version="1.1" id="Layer_1" xmlns="http://www.w3.org/2000/svg" xmlns:xlink="http://www.w3.org/1999/xlink" x="0px" y="0px"
	 viewBox="0 0 226.8 226.8" style="enable-background:new 0 0 226.8 226.8;" xml:space="preserve">
<style type="text/css">
	.st0{fill:#0095DC;}
	.st1{fill:#FFFFFF;}
</style>
<g>
	<path class="st0" d="M113.1,7.2C54.5,7.2,6.8,54.9,6.8,113.5s47.7,106.3,106.3,106.3s106.3-47.7,106.3-106.3S171.8,7.2,113.1,7.2z"
		/>
	<g>
		<path class="st1" d="M122.7,67.6c0.2,5.2-3.7,9.4-9.8,9.4c-5.4,0-9.3-4.2-9.3-9.4c0-5.4,4-9.6,9.6-9.6
			C119,58,122.7,62.2,122.7,67.6z M105.5,168.2V99c0-4.2,3.4-7.7,7.7-7.7h0c4.2,0,7.7,3.4,7.7,7.7v69.2c0,4.2-3.4,7.7-7.7,7.7h0
			C109,175.9,105.5,172.4,105.5,168.2z"/>
	</g>
</g>
</svg>
