<?xml version="1.0" encoding="utf-8"?>
<!-- Generator: Adobe Illustrator 19.1.0, SVG Export Plug-In . SVG Version: 6.00 Build 0)  -->
<svg version="1.1" id="Layer_1" xmlns="http://www.w3.org/2000/svg" xmlns:xlink="http://www.w3.org/1999/xlink" x="0px" y="0px"
	 viewBox="0 0 425.2 167.5" style="enable-background:new 0 0 425.2 167.5;" xml:space="preserve">
<style type="text/css">
	.st0{fill:#DBDADA;}
	.st1{fill:#585857;}
	.st2{fill:#3D3D3C;}
	.st3{fill:#30B34B;}
	.st4{fill:#717070;}
	.st5{fill:#FFFFFF;}
</style>
<g>
	<path class="st0" d="M7.1,19.9v90.7v10.7v26.2h411v-26.2v-10.7V19.9H7.1z M17.8,110.6V30.6h389.6v79.9H17.8z"/>
	<g>
		<g>
			<path class="st1" d="M144.8,130.6l3.1,1c-0.5,1.7-1.3,3-2.4,3.8c-1.1,0.8-2.5,1.3-4.2,1.3c-2.1,0-3.8-0.7-5.2-2.1
				c-1.3-1.4-2-3.4-2-5.9c0-2.6,0.7-4.7,2-6.1c1.4-1.5,3.1-2.2,5.3-2.2c1.9,0,3.5,0.6,4.7,1.7c0.7,0.7,1.3,1.6,1.6,2.9l-3.2,0.8
				c-0.2-0.8-0.6-1.5-1.2-1.9c-0.6-0.5-1.3-0.7-2.2-0.7c-1.2,0-2.1,0.4-2.8,1.3c-0.7,0.8-1.1,2.2-1.1,4.1c0,2,0.4,3.4,1.1,4.3
				c0.7,0.8,1.6,1.3,2.8,1.3c0.8,0,1.6-0.3,2.2-0.8C144.1,132.6,144.5,131.8,144.8,130.6z"/>
			<path class="st1" d="M149.9,128.6c0-1.6,0.2-3,0.7-4c0.4-0.8,0.8-1.5,1.5-2.2c0.6-0.6,1.3-1.1,2-1.4c1-0.4,2.1-0.6,3.4-0.6
				c2.3,0,4.2,0.7,5.6,2.2c1.4,1.4,2.1,3.4,2.1,6c0,2.5-0.7,4.5-2.1,6c-1.4,1.4-3.2,2.2-5.5,2.2c-2.3,0-4.2-0.7-5.6-2.1
				C150.6,133.1,149.9,131.1,149.9,128.6z M153.2,128.5c0,1.8,0.4,3.1,1.2,4.1c0.8,0.9,1.9,1.4,3.1,1.4c1.3,0,2.3-0.5,3.1-1.4
				c0.8-0.9,1.2-2.3,1.2-4.1c0-1.8-0.4-3.2-1.2-4c-0.8-0.9-1.8-1.3-3.2-1.3c-1.3,0-2.4,0.5-3.2,1.4
				C153.6,125.3,153.2,126.7,153.2,128.5z"/>
			<path class="st1" d="M167.8,136.4v-15.6h3.2v13h7.9v2.7H167.8z"/>
			<path class="st1" d="M181.2,136.4v-15.6h3.2v13h7.9v2.7H181.2z"/>
			<path class="st1" d="M208.8,136.4h-3.5l-1.4-3.6h-6.3l-1.3,3.6H193l6.1-15.8h3.4L208.8,136.4z M203,130.2l-2.2-5.9l-2.1,5.9H203z
				"/>
			<path class="st1" d="M210.5,136.4v-15.8h5.1c1.9,0,3.2,0.1,3.8,0.2c0.9,0.2,1.7,0.8,2.3,1.5c0.6,0.8,0.9,1.8,0.9,3.1
				c0,1-0.2,1.8-0.5,2.4c-0.4,0.7-0.8,1.2-1.3,1.6s-1.1,0.6-1.7,0.7c-0.8,0.2-1.9,0.2-3.3,0.2h-2.1v5.9H210.5z M213.7,123.3v4.5h1.7
				c1.3,0,2.1-0.1,2.5-0.2c0.4-0.2,0.8-0.4,1-0.8c0.2-0.4,0.4-0.8,0.4-1.2c0-0.6-0.2-1-0.5-1.4c-0.3-0.4-0.8-0.6-1.3-0.7
				c-0.4-0.1-1.1-0.1-2.3-0.1H213.7z"/>
			<path class="st1" d="M224.4,131.3l3.1-0.3c0.2,1,0.6,1.8,1.1,2.3c0.6,0.5,1.3,0.7,2.3,0.7c1,0,1.8-0.2,2.3-0.7
				c0.5-0.4,0.8-0.9,0.8-1.5c0-0.4-0.1-0.7-0.3-0.9s-0.6-0.5-1.1-0.7c-0.4-0.1-1.2-0.4-2.5-0.7c-1.7-0.4-2.9-0.9-3.6-1.6
				c-1-0.9-1.5-1.9-1.5-3.2c0-0.8,0.2-1.6,0.7-2.3c0.5-0.7,1.1-1.2,2-1.6c0.9-0.4,1.9-0.5,3.1-0.5c2,0,3.5,0.4,4.5,1.3
				c1,0.9,1.5,2,1.6,3.5l-3.2,0.1c-0.1-0.8-0.4-1.4-0.9-1.7c-0.4-0.4-1.1-0.5-2-0.5c-0.9,0-1.6,0.2-2.2,0.6c-0.3,0.2-0.5,0.6-0.5,1
				c0,0.4,0.2,0.7,0.5,1c0.4,0.3,1.4,0.7,2.9,1.1c1.5,0.4,2.7,0.7,3.4,1.1c0.7,0.4,1.3,0.9,1.7,1.6c0.4,0.7,0.6,1.5,0.6,2.5
				c0,0.9-0.3,1.7-0.8,2.5c-0.5,0.8-1.2,1.4-2.1,1.8c-0.9,0.4-2.1,0.6-3.4,0.6c-2,0-3.5-0.5-4.6-1.4
				C225.2,134.4,224.6,133,224.4,131.3z"/>
			<path class="st1" d="M239.9,136.4v-15.8h11.7v2.7h-8.5v3.5h7.9v2.7h-7.9v4.3h8.8v2.7H239.9z"/>
		</g>
		<g>
			<polygon class="st2" points="281.7,122.3 292.1,131.9 289.5,134.7 281.7,127.5 273.9,134.7 271.3,131.9 			"/>
		</g>
	</g>
	<g>
		<g>
			<g>
				<rect x="97.5" y="68.6" class="st3" width="52.9" height="3.6"/>
			</g>
			<g>
				<g>
					<polygon class="st3" points="138.6,85 136.2,82.4 149.1,70.4 136.2,58.4 138.6,55.8 154.3,70.4 					"/>
				</g>
			</g>
		</g>
		<g>
			<g>
				<rect x="253" y="68.6" class="st3" width="52.9" height="3.6"/>
			</g>
			<g>
				<g>
					<polygon class="st3" points="294.1,85 291.6,82.4 304.5,70.4 291.6,58.4 294.1,55.8 309.8,70.4 					"/>
				</g>
			</g>
		</g>
		<g>
			<g>
				<circle class="st4" cx="57.2" cy="71.8" r="29"/>
			</g>
			<g>
				<path class="st5" d="M61.6,84.4h-5.3V64.5c-1.9,1.8-4.2,3.1-6.8,4v-4.8c1.4-0.5,2.9-1.3,4.5-2.6c1.6-1.3,2.7-2.7,3.3-4.4h4.3
					V84.4z"/>
			</g>
		</g>
		<g>
			<g>
				<circle class="st4" cx="212.6" cy="71.8" r="29"/>
			</g>
			<g>
				<path class="st5" d="M221.4,79.5v4.9h-18.5c0.2-1.9,0.8-3.6,1.8-5.3c1-1.7,3-3.9,5.9-6.6c2.4-2.2,3.8-3.7,4.4-4.5
					c0.7-1.1,1.1-2.2,1.1-3.2c0-1.2-0.3-2.1-0.9-2.7c-0.6-0.6-1.5-0.9-2.6-0.9c-1.1,0-2,0.3-2.6,1s-1,1.8-1.1,3.3l-5.3-0.5
					c0.3-2.9,1.3-5,2.9-6.2c1.7-1.3,3.7-1.9,6.2-1.9c2.7,0,4.8,0.7,6.4,2.2c1.6,1.5,2.3,3.3,2.3,5.5c0,1.2-0.2,2.4-0.7,3.5
					c-0.4,1.1-1.1,2.3-2.1,3.5c-0.6,0.8-1.8,2-3.5,3.5c-1.7,1.5-2.7,2.5-3.2,3c-0.4,0.5-0.8,1-1.1,1.5H221.4z"/>
			</g>
		</g>
		<g>
			<g>
				<circle class="st4" cx="368" cy="71.8" r="29"/>
			</g>
			<g>
				<path class="st5" d="M358.8,77.1l5.1-0.6c0.2,1.3,0.6,2.3,1.3,3c0.7,0.7,1.6,1,2.6,1c1.1,0,2-0.4,2.7-1.2
					c0.7-0.8,1.1-1.9,1.1-3.3c0-1.3-0.4-2.4-1.1-3.2c-0.7-0.8-1.6-1.2-2.6-1.2c-0.7,0-1.5,0.1-2.4,0.4l0.6-4.3
					c1.4,0,2.5-0.3,3.3-0.9c0.8-0.7,1.1-1.5,1.1-2.6c0-0.9-0.3-1.7-0.8-2.2c-0.6-0.6-1.3-0.8-2.2-0.8c-0.9,0-1.7,0.3-2.3,0.9
					c-0.6,0.6-1,1.5-1.2,2.7l-4.9-0.8c0.3-1.7,0.8-3,1.5-4c0.7-1,1.6-1.8,2.9-2.3c1.2-0.6,2.6-0.9,4.1-0.9c2.6,0,4.7,0.8,6.2,2.5
					c1.3,1.4,1.9,2.9,1.9,4.6c0,2.4-1.3,4.3-4,5.8c1.6,0.3,2.8,1.1,3.8,2.3c0.9,1.2,1.4,2.6,1.4,4.3c0,2.4-0.9,4.5-2.6,6.2
					c-1.8,1.7-4,2.6-6.6,2.6c-2.5,0-4.6-0.7-6.2-2.1C360,81.3,359.1,79.4,358.8,77.1z"/>
			</g>
		</g>
	</g>
</g>
</svg>
