<?xml version="1.0" encoding="utf-8"?>
<!-- Generator: Adobe Illustrator 19.1.0, SVG Export Plug-In . SVG Version: 6.00 Build 0)  -->
<svg version="1.1" id="Layer_1" xmlns="http://www.w3.org/2000/svg" xmlns:xlink="http://www.w3.org/1999/xlink" x="0px" y="0px"
	 viewBox="0 0 226.8 226.8" style="enable-background:new 0 0 226.8 226.8;" xml:space="preserve">
<style type="text/css">
	.st0{fill:#2193D1;}
	.st1{fill:#FFFFFF;}
</style>
<g>
	<g>
		<path class="st0" d="M192.1,219.3H34.6c-8.8,0-15.9-7.1-15.9-15.9V87.3c0-8.8,7.1-15.9,15.9-15.9h157.5c8.8,0,15.9,7.1,15.9,15.9
			v116.1C208,212.1,200.9,219.3,192.1,219.3z"/>
	</g>
	<g>
		<path class="st1" d="M113.4,105.4c-9.8,0-17.6,7.9-17.6,17.6c0,7.4,4.5,13.7,11,16.3l-6.6,45.9h26.4l-6.6-45.9
			c6.4-2.6,11-9,11-16.3C131,113.3,123.1,105.4,113.4,105.4z"/>
	</g>
	<g>
		<path class="st0" d="M58.1,74.4c-2.3,0-4.2-1.9-4.2-4.2V44.2C54,22.4,71.2,4.6,92.4,4.6h42.1c21.2,0,38.4,17.7,38.4,39.5v26.1
			c0,2.3-1.9,4.2-4.2,4.2c-2.3,0-4.2-1.9-4.2-4.2V44.2C164.5,27,151,13,134.4,13H92.4c-16.6,0-30.1,14-30.1,31.2v26.1
			C62.3,72.5,60.4,74.4,58.1,74.4z"/>
	</g>
</g>
</svg>
