<?xml version="1.0" encoding="utf-8"?>
<!-- Generator: Adobe Illustrator 15.1.0, SVG Export Plug-In . SVG Version: 6.00 Build 0)  -->
<!DOCTYPE svg PUBLIC "-//W3C//DTD SVG 1.1//EN" "http://www.w3.org/Graphics/SVG/1.1/DTD/svg11.dtd">
<svg version="1.1" id="Layer_1" xmlns="http://www.w3.org/2000/svg" xmlns:xlink="http://www.w3.org/1999/xlink" x="0px" y="0px"
	 width="1500px" height="800px" viewBox="0 0 1500 800" enable-background="new 0 0 1500 800" xml:space="preserve">
<path fill="#43B049" stroke="#FFFFFF" stroke-width="10" d="M746,37c-201,0-363,163-363,363s162,362,362,362s362-162,362-362
	S946,37,746,37z"/>
<path fill="#FFFFFF" d="M983,296L727,572c-10,11-23,16-37,16c-12,0-24-4-34-13L511,442c-20-19-22-50-3-71c19-20,50-22,71-3l110,99
	l222-240c19-20,50-21,71-3C1001,244,1002,276,983,296z"/>
</svg>
