<?xml version="1.0" encoding="utf-8"?>
<!-- Generator: Adobe Illustrator 19.1.0, SVG Export Plug-In . SVG Version: 6.00 Build 0)  -->
<svg version="1.1" id="Layer_1" xmlns="http://www.w3.org/2000/svg" xmlns:xlink="http://www.w3.org/1999/xlink" x="0px" y="0px"
	 viewBox="0 0 425.2 167.5" style="enable-background:new 0 0 425.2 167.5;" xml:space="preserve">
<style type="text/css">
	.st0{fill:#FFFFFF;}
	.st1{fill:#30B34B;}
</style>
<g>
	<g>
		<rect x="10" y="9.6" class="st0" width="406.4" height="149.1"/>
		<path class="st1" d="M418.7,161.1H7.6V7.3h411V161.1z M12.3,156.4H414V12H12.3V156.4z"/>
	</g>
	<g>
		<path class="st1" d="M136.2,87.6l9.1-0.9c0.5,3,1.7,5.3,3.3,6.7c1.7,1.4,3.9,2.1,6.7,2.1c3,0,5.3-0.6,6.8-1.9
			c1.5-1.3,2.3-2.8,2.3-4.4c0-1.1-0.3-2-1-2.8c-0.6-0.8-1.8-1.4-3.3-2c-1.1-0.4-3.6-1-7.5-2c-5-1.2-8.5-2.8-10.5-4.6
			c-2.8-2.5-4.2-5.6-4.2-9.3c0-2.3,0.7-4.5,2-6.6c1.3-2,3.2-3.6,5.8-4.7c2.5-1.1,5.5-1.6,9.1-1.6c5.8,0,10.1,1.3,13.1,3.8
			c2.9,2.5,4.5,5.9,4.6,10.2l-9.3,0.4c-0.4-2.4-1.3-4.1-2.6-5.1c-1.3-1-3.3-1.6-5.9-1.6c-2.7,0-4.8,0.6-6.4,1.7
			c-1,0.7-1.5,1.7-1.5,2.9c0,1.1,0.5,2,1.4,2.8c1.2,1,4,2,8.6,3.1c4.5,1.1,7.9,2.2,10,3.3c2.2,1.1,3.9,2.7,5.1,4.7
			c1.2,2,1.8,4.4,1.8,7.3c0,2.6-0.7,5.1-2.2,7.4c-1.5,2.3-3.5,4-6.2,5.1c-2.7,1.1-6,1.7-10,1.7c-5.8,0-10.3-1.3-13.4-4
			C138.7,96.7,136.8,92.7,136.2,87.6z"/>
		<path class="st1" d="M188.1,79.4l-8-1.4c0.9-3.2,2.5-5.6,4.7-7.2c2.2-1.6,5.5-2.3,9.8-2.3c3.9,0,6.9,0.5,8.8,1.4
			c1.9,0.9,3.3,2.1,4.1,3.6c0.8,1.4,1.2,4.1,1.2,7.9l-0.1,10.3c0,2.9,0.1,5.1,0.4,6.5c0.3,1.4,0.8,2.9,1.6,4.5h-8.7
			c-0.2-0.6-0.5-1.5-0.8-2.6c-0.1-0.5-0.3-0.9-0.3-1c-1.5,1.5-3.1,2.6-4.8,3.3c-1.7,0.7-3.6,1.1-5.5,1.1c-3.4,0-6.1-0.9-8.1-2.8
			c-2-1.9-3-4.2-3-7.1c0-1.9,0.4-3.6,1.4-5c0.9-1.5,2.2-2.6,3.8-3.4c1.6-0.8,4-1.5,7-2.1c4.1-0.8,7-1.5,8.6-2.2v-0.9
			c0-1.7-0.4-2.9-1.3-3.6s-2.4-1.1-4.7-1.1c-1.6,0-2.8,0.3-3.7,0.9C189.4,76.7,188.6,77.8,188.1,79.4z M199.9,86.5
			c-1.1,0.4-2.9,0.8-5.4,1.4c-2.5,0.5-4.1,1-4.8,1.5c-1.2,0.8-1.7,1.9-1.7,3.1c0,1.2,0.5,2.3,1.4,3.2c0.9,0.9,2.1,1.4,3.5,1.4
			c1.6,0,3.1-0.5,4.6-1.6c1.1-0.8,1.8-1.8,2.1-2.9c0.2-0.8,0.3-2.2,0.3-4.3V86.5z"/>
		<path class="st1" d="M226.5,102.6L213,69.2h9.3l6.3,17l1.8,5.7c0.5-1.4,0.8-2.4,0.9-2.9c0.3-0.9,0.6-1.9,0.9-2.8l6.4-17h9.1
			l-13.3,33.4H226.5z"/>
		<path class="st1" d="M272.5,91.9l8.8,1.5c-1.1,3.2-2.9,5.7-5.4,7.4c-2.4,1.7-5.5,2.5-9.2,2.5c-5.8,0-10.1-1.9-12.9-5.7
			c-2.2-3-3.3-6.9-3.3-11.5c0-5.5,1.5-9.9,4.3-13c2.9-3.1,6.6-4.7,11-4.7c5,0,8.9,1.6,11.8,4.9c2.9,3.3,4.2,8.3,4.1,15.1h-22.1
			c0.1,2.6,0.8,4.7,2.1,6.1c1.4,1.5,3.1,2.2,5.1,2.2c1.4,0,2.5-0.4,3.5-1.1C271.3,94.8,272,93.6,272.5,91.9z M273,83
			c-0.1-2.6-0.7-4.5-2-5.8c-1.3-1.3-2.8-2-4.6-2c-1.9,0-3.5,0.7-4.8,2.1c-1.3,1.4-1.9,3.3-1.9,5.7H273z"/>
	</g>
</g>
</svg>
