<?xml version="1.0" encoding="utf-8"?>
<!-- Generator: Adobe Illustrator 19.1.0, SVG Export Plug-In . SVG Version: 6.00 Build 0)  -->
<svg version="1.1" id="Layer_1" xmlns="http://www.w3.org/2000/svg" xmlns:xlink="http://www.w3.org/1999/xlink" x="0px" y="0px"
	 viewBox="0 0 425.2 167.5" style="enable-background:new 0 0 425.2 167.5;" xml:space="preserve">
<style type="text/css">
	.st0{fill:#30B34B;}
	.st1{fill:#FFFFFF;}
</style>
<g>
	<g>
		<rect x="9.4" y="9.2" class="st0" width="406.4" height="149.1"/>
		<path class="st0" d="M418.1,160.6H7.1V6.9h411V160.6z M11.8,156h401.7V11.5H11.8V156z"/>
	</g>
	<g>
		<path class="st1" d="M101.8,87.1l9.1-0.9c0.5,3,1.7,5.3,3.3,6.7c1.7,1.4,3.9,2.1,6.7,2.1c3,0,5.3-0.6,6.8-1.9
			c1.5-1.3,2.3-2.8,2.3-4.4c0-1.1-0.3-2-1-2.8c-0.6-0.8-1.8-1.4-3.3-2c-1.1-0.4-3.6-1-7.5-2c-5-1.2-8.5-2.8-10.5-4.6
			c-2.8-2.5-4.2-5.6-4.2-9.3c0-2.3,0.7-4.5,2-6.6c1.3-2,3.2-3.6,5.8-4.7c2.5-1.1,5.5-1.6,9.1-1.6c5.8,0,10.1,1.3,13.1,3.8
			c2.9,2.5,4.5,5.9,4.6,10.2l-9.3,0.4c-0.4-2.4-1.3-4.1-2.6-5.1c-1.3-1-3.3-1.6-5.9-1.6c-2.7,0-4.8,0.6-6.4,1.7
			c-1,0.7-1.5,1.7-1.5,2.9c0,1.1,0.5,2,1.4,2.8c1.2,1,4,2,8.6,3.1c4.5,1.1,7.9,2.2,10,3.3c2.2,1.1,3.9,2.7,5.1,4.7
			c1.2,2,1.8,4.4,1.8,7.3c0,2.6-0.7,5.1-2.2,7.4c-1.5,2.3-3.5,4-6.2,5.1c-2.7,1.1-6,1.7-10,1.7c-5.8,0-10.3-1.3-13.4-4
			C104.2,96.2,102.4,92.3,101.8,87.1z"/>
		<path class="st1" d="M169,102.1v-5c-1.2,1.8-2.8,3.2-4.8,4.2c-2,1-4.1,1.5-6.3,1.5c-2.2,0-4.3-0.5-6-1.5c-1.8-1-3.1-2.4-3.9-4.2
			c-0.8-1.8-1.2-4.2-1.2-7.4V68.7h8.8v15.3c0,4.7,0.2,7.6,0.5,8.6c0.3,1.1,0.9,1.9,1.8,2.5c0.9,0.6,1.9,0.9,3.3,0.9
			c1.5,0,2.9-0.4,4.1-1.2c1.2-0.8,2-1.9,2.5-3.1c0.4-1.2,0.7-4.2,0.7-9V68.7h8.8v33.4H169z"/>
		<path class="st1" d="M186,102.1V56h8.8v16.6c2.7-3.1,6-4.7,9.7-4.7c4.1,0,7.4,1.5,10.1,4.4c2.7,2.9,4,7.2,4,12.7
			c0,5.7-1.4,10.1-4.1,13.2c-2.7,3.1-6,4.6-9.9,4.6c-1.9,0-3.8-0.5-5.6-1.4c-1.9-1-3.5-2.4-4.8-4.2v4.9H186z M194.8,84.7
			c0,3.5,0.5,6,1.6,7.7c1.5,2.3,3.6,3.5,6.1,3.5c1.9,0,3.6-0.8,5-2.5c1.4-1.7,2.1-4.3,2.1-7.9c0-3.8-0.7-6.6-2.1-8.3
			c-1.4-1.7-3.2-2.5-5.3-2.5c-2.1,0-3.9,0.8-5.3,2.5C195.5,78.9,194.8,81.4,194.8,84.7z"/>
		<path class="st1" d="M225.1,68.7h8.1v4.6c2.9-3.5,6.4-5.3,10.4-5.3c2.1,0,4,0.4,5.6,1.3c1.6,0.9,2.9,2.2,3.9,4
			c1.5-1.8,3.1-3.1,4.8-4c1.7-0.9,3.5-1.3,5.4-1.3c2.5,0,4.5,0.5,6.2,1.5c1.7,1,3,2.5,3.8,4.4c0.6,1.4,0.9,3.7,0.9,6.9v21.4h-8.8
			V83.1c0-3.3-0.3-5.5-0.9-6.4c-0.8-1.3-2.1-1.9-3.8-1.9c-1.2,0-2.4,0.4-3.5,1.1c-1.1,0.8-1.9,1.9-2.4,3.3c-0.5,1.5-0.7,3.8-0.7,6.9
			v16h-8.8V83.8c0-3.3-0.2-5.3-0.5-6.3c-0.3-0.9-0.8-1.6-1.5-2.1c-0.7-0.5-1.6-0.7-2.7-0.7c-1.4,0-2.6,0.4-3.7,1.1
			c-1.1,0.7-1.9,1.8-2.3,3.2c-0.5,1.4-0.7,3.7-0.7,6.9v16.2h-8.8V68.7z"/>
		<path class="st1" d="M283,64.2V56h8.8v8.2H283z M283,102.1V68.7h8.8v33.4H283z"/>
		<path class="st1" d="M316.2,68.7v7h-6v13.5c0,2.7,0.1,4.3,0.2,4.8c0.1,0.4,0.4,0.8,0.8,1.1c0.4,0.3,0.9,0.4,1.5,0.4
			c0.8,0,2-0.3,3.6-0.8l0.8,6.9c-2.1,0.9-4.4,1.3-7,1.3c-1.6,0-3-0.3-4.3-0.8c-1.3-0.5-2.2-1.2-2.8-2.1c-0.6-0.9-1-2-1.2-3.4
			c-0.2-1-0.3-3.1-0.3-6.2V75.8h-4.1v-7h4.1v-6.6l8.9-5.2v11.8H316.2z"/>
	</g>
</g>
</svg>
