<?xml version="1.0" encoding="utf-8"?>
<!-- Generator: Adobe Illustrator 19.1.0, SVG Export Plug-In . SVG Version: 6.00 Build 0)  -->
<svg version="1.1" id="Layer_1" xmlns="http://www.w3.org/2000/svg" xmlns:xlink="http://www.w3.org/1999/xlink" x="0px" y="0px"
	 viewBox="0 0 226.8 226.8" style="enable-background:new 0 0 226.8 226.8;" xml:space="preserve">
<style type="text/css">
	.st0{fill:#2193D1;}
	.st1{fill:#FFFFFF;stroke:#FFFFFF;stroke-miterlimit:10;}
</style>
<g>
	<g>
		<g>
			<path class="st0" d="M113.4,219.7C54.8,219.7,7.1,172,7.1,113.4S54.8,7.1,113.4,7.1s106.3,47.7,106.3,106.3
				S172,219.7,113.4,219.7z"/>
		</g>
	</g>
	<g>
		<path class="st1" d="M164.9,168.2c-1,0-2.1-0.4-2.8-1.2l-51.5-50.8c-0.8-0.8-1.2-1.8-1.2-2.9V63.7c0-2.2,1.8-4.1,4.1-4.1
			s4.1,1.8,4.1,4.1v48l50.3,49.6c1.6,1.6,1.6,4.1,0,5.7C167,167.8,166,168.2,164.9,168.2z"/>
	</g>
</g>
</svg>
