<?xml version="1.0" encoding="utf-8"?>
<!-- Generator: Adobe Illustrator 15.1.0, SVG Export Plug-In . SVG Version: 6.00 Build 0)  -->
<!DOCTYPE svg PUBLIC "-//W3C//DTD SVG 1.1//EN" "http://www.w3.org/Graphics/SVG/1.1/DTD/svg11.dtd">
<svg version="1.1" id="Layer_1" xmlns="http://www.w3.org/2000/svg" xmlns:xlink="http://www.w3.org/1999/xlink" x="0px" y="0px"
	 width="1500px" height="800px" viewBox="0 0 1500 800" enable-background="new 0 0 1500 800" xml:space="preserve">
<path fill="#218FCF" stroke="#FFFFFF" stroke-width="10" d="M751,24c-207,0-376,168-376,376s168,376,376,376s377-168,377-376
	S959,24,751,24z"/>
<path fill="#FFFFFF" stroke="#FFFFFF" stroke-width="10" d="M541,464c-35,0-64-29-64-64s29-64,64-64s64,29,64,64S576,464,541,464z"
	/>
<path fill="#FFFFFF" stroke="#FFFFFF" stroke-width="10" d="M751,464c-35,0-64-29-64-64s29-64,64-64s64,29,64,64S787,464,751,464z"
	/>
<path fill="#FFFFFF" stroke="#FFFFFF" stroke-width="10" d="M962,464c-35,0-64-29-64-64s29-64,64-64s64,29,64,64S998,464,962,464z"
	/>
</svg>
