<?xml version="1.0" encoding="utf-8"?>
<!-- Generator: Adobe Illustrator 19.1.0, SVG Export Plug-In . SVG Version: 6.00 Build 0)  -->
<svg version="1.1" id="Layer_1" xmlns="http://www.w3.org/2000/svg" xmlns:xlink="http://www.w3.org/1999/xlink" x="0px" y="0px"
	 viewBox="0 0 226.8 226.8" style="enable-background:new 0 0 226.8 226.8;" xml:space="preserve">
<style type="text/css">
	.st0{fill:#2193D1;}
	.st1{fill:#FFFFFF;}
</style>
<g>
	<circle class="st0" cx="113.1" cy="113.4" r="106.3"/>
	<g>
		<g>
			<path class="st1" d="M113.4,155.9c-22.4,0-44.5-10.9-65.3-32.3c-5.7-5.9-5.7-15.1-0.2-21l0,0c11.3-11.8,35-31.6,65.5-31.8l0,0
				c22.4,0,44.3,10.8,64.9,32.1c5.6,5.7,5.7,14.9,0.2,20.6c-11.1,11.8-34.1,31.8-64.2,32.1C113.9,155.9,113.5,155.9,113.4,155.9z
				 M54.2,108.7c-2.3,2.5-2.3,6.3,0,8.6c19.6,19.9,39.6,30,59.9,29.8c26.9-0.4,47.9-18.5,57.9-29.2c2.3-2.5,2.2-6.3-0.2-8.6
				c-18.8-19.7-38.6-29.6-58.5-29.6l0,0C86.1,79.7,64.6,98,54.2,108.7L54.2,108.7z"/>
		</g>
		<g>
			<path class="st1" d="M113,140.3c-15.2,0-27.4-12.4-27.4-27.4S97.9,85.4,113,85.4c15.2,0,27.4,12.4,27.4,27.4
				S128.1,140.3,113,140.3z M113,94c-10.4,0-18.8,8.4-18.8,18.8c0,10.2,8.4,18.7,18.8,18.7s18.7-8.4,18.7-18.7
				C131.7,102.4,123.2,94,113,94z"/>
		</g>
	</g>
</g>
</svg>
