<?xml version="1.0" encoding="utf-8"?>
<!-- Generator: Adobe Illustrator 19.1.0, SVG Export Plug-In . SVG Version: 6.00 Build 0)  -->
<svg version="1.1" id="Layer_1" xmlns="http://www.w3.org/2000/svg" xmlns:xlink="http://www.w3.org/1999/xlink" x="0px" y="0px"
	 viewBox="0 0 190.2 80" style="enable-background:new 0 0 190.2 80;" xml:space="preserve">
<style type="text/css">
	.st0{fill:#ECECEC;}
	.st1{fill:#48AB33;}
	.st2{fill:#FFFFFF;}
	.st3{fill:#868686;}
</style>
<g>
	<g>
		<g>
			<g>
				<path class="st0" d="M40.6,1L40.6,1L40.6,1c-21.5,0-39,17.5-39,39s17.5,39,39,39l0,0l0,0h55V1H40.6z"/>
				<path class="st1" d="M188.5,40c0-21.2-16.9-38.4-38-38.9V1h-55v78h55v-0.1C171.6,78.4,188.5,61.2,188.5,40z"/>
			</g>
		</g>
	</g>
	<g>
		<circle class="st2" cx="144.6" cy="40.1" r="2.4"/>
		<g>
			<polygon class="st2" points="154.1,17.7 144.5,8.2 134.9,17.7 138.2,21 142.2,17 142.2,28.4 146.9,28.4 146.9,17.1 150.8,21 			
				"/>
			<polygon class="st2" points="134.9,61.6 144.4,71.1 154.1,61.6 150.8,58.3 146.7,62.3 146.7,50.8 142.1,50.8 142.1,62.2 
				138.2,58.3 			"/>
			<polygon class="st2" points="166.4,49.2 175.9,39.7 166.4,30 163.1,33.3 167.1,37.4 155.7,37.4 155.7,42 167,42 163.1,45.9 			
				"/>
			<polygon class="st2" points="122.5,30 113,39.5 122.5,49.2 125.8,45.9 121.8,41.9 133.3,41.9 133.3,37.2 121.9,37.2 125.8,33.3 
							"/>
		</g>
	</g>
	<g>
		<circle class="st3" cx="46.2" cy="39.7" r="2.4"/>
		<g>
			<polygon class="st3" points="67.4,30 57.9,39.5 67.4,49.2 70.7,45.9 66.7,41.9 78.1,41.9 78.1,37.2 66.8,37.2 70.7,33.3 			"/>
			<polygon class="st3" points="26,49.2 35.5,39.7 26,30 22.7,33.3 26.7,37.4 15.2,37.4 15.2,42 26.6,42 22.7,45.9 			"/>
			<polygon class="st3" points="56.3,60.3 46.8,50.8 37.1,60.3 40.4,63.6 44.4,59.6 44.4,71.1 49.1,71.1 49.1,59.7 53,63.6 			"/>
			<polygon class="st3" points="37.1,18.9 46.6,28.4 56.3,18.9 53,15.6 49,19.6 49,8.2 44.3,8.2 44.3,19.6 40.4,15.6 			"/>
		</g>
	</g>
</g>
</svg>
