<?xml version="1.0" encoding="utf-8"?>
<!-- Generator: Adobe Illustrator 19.1.0, SVG Export Plug-In . SVG Version: 6.00 Build 0)  -->
<svg version="1.1" id="Layer_1" xmlns="http://www.w3.org/2000/svg" xmlns:xlink="http://www.w3.org/1999/xlink" x="0px" y="0px"
	 viewBox="0 0 90.3 89.7" style="enable-background:new 0 0 90.3 89.7;" xml:space="preserve">
<style type="text/css">
	.st0{fill:#878787;}
</style>
<g>
	<circle class="st0" cx="45.3" cy="45.6" r="3.9"/>
	<g>
		<polygon class="st0" points="60.7,16.7 45.2,1.1 29.5,16.6 34.8,22 41.4,15.5 41.4,34.2 49,34.2 49,15.6 55.4,22 		"/>
		<polygon class="st0" points="29.5,73 45,88.6 60.7,73.1 55.4,67.7 48.8,74.2 48.8,55.5 41.3,55.5 41.3,74.1 34.9,67.7 		"/>
		<polygon class="st0" points="73.3,60.5 88.8,45 73.3,29.2 67.9,34.6 74.5,41.2 55.8,41.2 55.8,48.7 74.4,48.7 68,55.1 		"/>
		<polygon class="st0" points="16.9,29.2 1.4,44.7 16.9,60.5 22.3,55.1 15.8,48.5 34.5,48.5 34.5,41 15.9,41 22.3,34.6 		"/>
	</g>
</g>
</svg>
