<?xml version="1.0" encoding="utf-8"?>
<!-- Generator: Adobe Illustrator 19.1.0, SVG Export Plug-In . SVG Version: 6.00 Build 0)  -->
<svg version="1.1" id="Layer_1" xmlns="http://www.w3.org/2000/svg" xmlns:xlink="http://www.w3.org/1999/xlink" x="0px" y="0px"
	 viewBox="0 0 83.8 89.8" style="enable-background:new 0 0 83.8 89.8;" xml:space="preserve">
<style type="text/css">
	.st0{fill:#878787;}
</style>
<path class="st0" d="M23.3,71.2l-10-13.4L1.6,46.7c0,0,3.9-4.7,8.7-4.7c2.2,0,4.2,0.6,6,1.9c1.8,1.2,3.5,3.1,4.9,5.6
	c2.1,0.7,3.7,1.4,4.8,2.1c0.3-2.6,0.6-4.5,0.9-5.7l-6.7-26.1c-1.6-6.3-2-9.5,1.8-11.1c3.8-1.7,7.7,3,9.7,8.9l6.4,20.1l-0.2-25.9
	c0-6.4,2-9.5,6-9.5c4,0,6.1,2.8,6.1,8.5v25.9l6.5-22.7c1.6-4,4.5-8,8.2-6.7c3.8,1.3,3.6,7.5,2.6,11.5l-5.8,22.1l9.4-15.5
	c2.9-5,6.8-6.5,8.9-4.8c2.4,1.6,3,5.8-0.3,11.4l-10.3,18l-9.2,32V88H33.1v-8C29.9,77.9,27.2,74.9,23.3,71.2L23.3,71.2L23.3,71.2z"/>
</svg>
