<?xml version="1.0" encoding="utf-8"?>
<!-- Generator: Adobe Illustrator 19.1.0, SVG Export Plug-In . SVG Version: 6.00 Build 0)  -->
<svg version="1.1" id="Layer_1" xmlns="http://www.w3.org/2000/svg" xmlns:xlink="http://www.w3.org/1999/xlink" x="0px" y="0px"
	 viewBox="0 0 64.1 61.1" style="enable-background:new 0 0 64.1 61.1;" xml:space="preserve">
<style type="text/css">
	.st0{fill:#FFFFFF;}
</style>
<g>
	<path class="st0" d="M40.6,35.7C44.8,31.6,57,19.3,57,19.3c4.4-4.4,5.1-10.9,0.7-15.3c-4.4-4.4-10.9-3.7-15.3,0.7L25.9,21.3
		c0,0-0.4,0.4-0.1,0.6l13.7,13.7C39.9,36,40.1,36.3,40.6,35.7L40.6,35.7z M40.6,35.7"/>
	<path class="st0" d="M23.8,26.2c-0.2-0.2-0.4-0.2-0.5,0c-1.8,2-12.8,14.2-16.9,18.2C3.8,47.1,3,52.3,3.5,55.4
		c0,0.1,0.1,0.2-0.1,0.4c-0.5,0.5-0.8,0.9-1.1,1.2c-0.8,0.8-0.5,2.3-0.2,2.7c0.4,0.4,1.9,0.6,2.7-0.2c0.3-0.3,0.7-0.6,1.2-1.1
		c0.1-0.1,0.3-0.1,0.4-0.1c3.1,0.5,8.3-0.3,10.9-2.8c4.1-4.1,16.4-15.2,18.2-16.9c0.2-0.1,0.3-0.3,0-0.6
		C32.6,35.1,26.8,29.2,23.8,26.2L23.8,26.2z M23.8,26.2"/>
	<path class="st0" d="M50.6,37.7c-0.8,0.8-2.1,0.8-2.9,0c-0.8-0.8-0.8-2.1,0-2.9l11.5-11.5c0.8-0.8,2.1-0.8,2.9,0
		c0.8,0.8,0.8,2.1,0,2.9L50.6,37.7z M50.6,37.7"/>
</g>
</svg>
