<?xml version="1.0" encoding="utf-8"?>
<!-- Generator: Adobe Illustrator 19.1.0, SVG Export Plug-In . SVG Version: 6.00 Build 0)  -->
<svg version="1.1" id="Layer_1" xmlns="http://www.w3.org/2000/svg" xmlns:xlink="http://www.w3.org/1999/xlink" x="0px" y="0px"
	 viewBox="0 0 85 63" style="enable-background:new 0 0 85 63;" xml:space="preserve">
<style type="text/css">
	.st0{fill:#00468F;}
</style>
<g>
	<g>
		<path class="st0" d="M83.9,8.6v25.1c0,0-5.4,1.1-6.5,1.2c-1.1,0.1-4.6,1.3-7.1-1.2C66.5,30,52.8,16.4,52.8,16.4s-2.4-2.3-6.2-0.3
			c-3.5,1.8-8.7,4.5-10.8,5.6c-4.1,2.2-7.5-1.3-7.5-3.9c0-2,1.3-3.4,3.1-4.4c4.9-3,15.3-8.8,19.7-11.1c2.6-1.4,4.5-1.5,8.1,1.5
			c4.5,3.7,8.4,7.2,8.4,7.2s1.3,1.1,3.4,0.6C76,10.4,83.9,8.6,83.9,8.6L83.9,8.6z M29.2,51.1c0.7-1.7,0.4-3.6-0.8-4.9
			c-1.1-1.2-2.8-1.5-4.4-1.1c0.4-1.6,0.2-3.3-1-4.5c-1.2-1.2-2.8-1.5-4.4-1.1c0.4-1.6,0.2-3.3-1-4.5c-1.8-1.9-4.9-1.8-7,0.2
			c-2,2-3.4,5.5-1.5,7.6c1.8,2.1,3.9,0.8,5.5,0.5c-0.4,1.6-1.8,3.1-0.1,5.1c1.6,2.1,3.9,0.8,5.5,0.5c-0.4,1.6-1.7,3.2-0.1,5.1
			c1.6,1.9,4.2,0.9,5.9,0.4c-0.7,1.7-2.1,3.5-0.3,5.6c1.8,2.1,6,1.1,8.1-0.8c2-2,2.2-5.1,0.4-6.9C32.8,50.9,30.9,50.6,29.2,51.1
			L29.2,51.1z M66.7,38.1c-14.9-14.9-7.9-7.9-15.9-15.9c0,0-2.4-2.4-5.6-1c-2.2,1-5.1,2.3-7.2,3.3c-2.4,1.2-4.1,1.6-4.9,1.6
			c-4.6,0-8.3-3.7-8.3-8.3c0-3,1.6-5.5,3.9-7c3.3-2.3,10.9-6.3,10.9-6.3s-2.3-2.9-7.4-2.9c-5.1,0-15.7,6.9-15.7,6.9s-3,1.9-7.3,0.2
			L1.1,5.8v28.7c0,0,2.4,0.7,4.5,1.5c0.5-1.4,1.2-2.6,2.3-3.7c3.5-3.3,9.3-3.4,12.5-0.1c1,1,1.6,2.2,2,3.5c1.3,0.4,2.5,1.1,3.4,2.1
			c1,1,1.6,2.2,2,3.5c1.3,0.4,2.5,1.1,3.4,2.1c1.1,1.1,1.8,2.4,2.1,3.8c1.3,0.4,2.6,1.1,3.5,2.1c1.9,2,2.6,4.7,2.2,7.2c0,0,0,0,0,0
			c0,0,1.2,1.3,1.9,2.1c1.4,1.4,3.7,1.4,5.1,0c1.4-1.4,1.4-3.7,0-5.1c-0.1-0.1-5.1-5.3-4.7-5.8c0.4-0.4,6.8,6.3,7,6.4
			c1.4,1.4,3.7,1.4,5.1,0c1.4-1.4,1.4-3.7,0-5.1c-0.1-0.1-0.4-0.3-0.5-0.5c0,0-6.4-5.7-5.9-6.2c0.5-0.5,8.4,6.9,8.4,6.9
			c1.4,1.3,3.6,1.3,5-0.1c1.3-1.3,1.4-3.4,0.2-4.9c0-0.1-6-6.4-5.6-6.8c0.5-0.5,6.4,5.7,6.5,5.7c1.4,1.4,3.7,1.4,5.1,0
			C68.2,41.9,68.2,39.5,66.7,38.1C66.7,38.1,66.7,38.1,66.7,38.1L66.7,38.1z M66.7,38.1"/>
	</g>
</g>
</svg>
