<?xml version="1.0" encoding="utf-8"?>
<!-- Generator: Adobe Illustrator 19.1.0, SVG Export Plug-In . SVG Version: 6.00 Build 0)  -->
<svg version="1.1" id="Layer_1" xmlns="http://www.w3.org/2000/svg" xmlns:xlink="http://www.w3.org/1999/xlink" x="0px" y="0px"
	 viewBox="0 0 85 85" style="enable-background:new 0 0 85 85;" xml:space="preserve">
<style type="text/css">
	.st0{fill:#C6C6C6;}
</style>
<g>
	<polygon class="st0" points="83.6,71.8 13.3,71.8 13.3,1.4 7.7,1.4 7.7,8.4 1.4,8.4 1.4,13.9 7.7,13.9 7.7,30.2 1.4,30.2 1.4,35.7 
		7.7,35.7 7.7,52.1 1.4,52.1 1.4,57.6 7.7,57.6 7.7,77.3 22.4,77.3 22.4,83.6 28,83.6 28,77.3 44.3,77.3 44.3,83.6 49.8,83.6 
		49.8,77.3 66.2,77.3 66.2,83.6 71.7,83.6 71.7,77.3 83.6,77.3 	"/>
	<g>
		<rect x="5.5" y="58.6" transform="matrix(0.6732 0.7394 -0.7394 0.6732 52.3903 1.4203)" class="st0" width="38.2" height="2.8"/>
	</g>
	<g>
		
			<rect x="-0.9" y="47.8" transform="matrix(0.6732 0.7394 -0.7394 0.6732 47.0984 -8.2836)" class="st0" width="67.6" height="2.8"/>
	</g>
	<g>
		
			<rect x="-3" y="38.1" transform="matrix(0.6734 0.7393 -0.7393 0.6734 43.4953 -19.5381)" class="st0" width="93.8" height="2.8"/>
	</g>
</g>
</svg>
