<?xml version="1.0" encoding="utf-8"?>
<!-- Generator: Adobe Illustrator 19.1.0, SVG Export Plug-In . SVG Version: 6.00 Build 0)  -->
<svg version="1.1" id="Layer_1" xmlns="http://www.w3.org/2000/svg" xmlns:xlink="http://www.w3.org/1999/xlink" x="0px" y="0px"
	 viewBox="0 0 85 75.3" style="enable-background:new 0 0 85 75.3;" xml:space="preserve">
<style type="text/css">
	.st0{fill:#00468F;}
</style>
<g>
	<path class="st0" d="M42.9,14c-11.2,0-22.4,0-33.7,0c-3.7,0-6.4-2.3-6.4-5.6c0-3.3,2.6-5.8,6.3-5.8c22.6,0,45.3,0,67.9,0
		c3.4,0,5.7,2,6.2,5.1c0.4,2.5-1.3,5.2-3.9,6C78.6,14,77.7,14,76.8,14C65.5,14.1,54.2,14,42.9,14z"/>
	<path class="st0" d="M43.1,61.3c11.3,0,22.6,0,33.9,0c3.7,0,6.4,2.4,6.4,5.6c0,3.3-2.6,5.7-6.4,5.7c-22.6,0-45.2,0-67.7,0
		c-3.7,0-6.4-2.4-6.4-5.7c0-3.3,2.6-5.7,6.4-5.7C20.5,61.3,31.8,61.3,43.1,61.3z"/>
	<path class="st0" d="M43.1,32c11.4,0,22.7,0,34.1,0c4.5,0,7.2,3.8,5.7,7.7c-0.9,2.3-2.7,3.6-5.2,3.6c-2.2,0-4.5,0-6.7,0
		c-20.5,0-41,0-61.5,0c-1.9,0-3.7-0.3-5-1.8c-1.6-1.8-2.1-3.8-1.2-6c1-2.4,2.9-3.5,5.5-3.5c10.3,0,20.6,0,30.8,0
		C40.8,32,41.9,32,43.1,32z"/>
</g>
</svg>
