<?xml version="1.0" encoding="utf-8"?>
<!-- Generator: Adobe Illustrator 19.1.0, SVG Export Plug-In . SVG Version: 6.00 Build 0)  -->
<svg version="1.1" id="Layer_1" xmlns="http://www.w3.org/2000/svg" xmlns:xlink="http://www.w3.org/1999/xlink" x="0px" y="0px"
	 viewBox="0 0 55 87.1" style="enable-background:new 0 0 55 87.1;" xml:space="preserve">
<style type="text/css">
	.st0{fill:#FFFFFF;}
</style>
<g>
	<path class="st0" d="M1.7,2.9C8,1.7,14.2,1.2,20.2,1.2c3.5,0,7.1,0.3,11,0.8c3.8,0.5,7.4,1.6,10.6,3.2c3.2,1.6,5.9,3.9,8,6.8
		c2.1,2.9,3.2,6.7,3.2,11.4c0,1.4-0.1,2.8-0.2,4.2c-0.2,1.4-0.8,3-1.8,4.7c-1,1.7-2.7,3.7-4.9,5.9c-2.2,2.2-5.4,4.7-9.5,7.6
		c-1.8,1.2-3.1,2.3-4,3.3c-0.9,1-1.6,2-2,2.9c-0.4,0.9-0.7,1.9-0.8,2.8c-0.1,1-0.1,2-0.1,3.2v6.2H11.5V53.2c0-0.7,0-1.3,0.1-1.9
		c0-0.6,0.2-1.2,0.5-1.7c0.3-0.6,0.7-1.2,1.3-2s1.4-1.6,2.5-2.7l8.9-9.2c1.5-1.5,2.7-3,3.6-4.3c0.9-1.3,1.4-3,1.4-5
		c0-2.9-1.2-5.4-3.6-7.4c-2.4-2-6.3-3.1-11.6-3.1c-3.2,0-5.7,0.2-7.6,0.6C5,17,3.3,17.4,1.7,17.9V2.9z M10.3,69.4h20.3v17.2H10.3
		V69.4z"/>
</g>
</svg>
