<?xml version="1.0" encoding="utf-8"?>
<!-- Generator: Adobe Illustrator 19.1.0, SVG Export Plug-In . SVG Version: 6.00 Build 0)  -->
<svg version="1.1" id="Layer_1" xmlns="http://www.w3.org/2000/svg" xmlns:xlink="http://www.w3.org/1999/xlink" x="0px" y="0px"
	 viewBox="0 0 90.3 89.7" style="enable-background:new 0 0 90.3 89.7;" xml:space="preserve">
<style type="text/css">
	.st0{fill:#878787;}
</style>
<g>
	<circle class="st0" cx="44.4" cy="45" r="3.9"/>
	<g>
		<polygon class="st0" points="71.4,29.2 55.8,44.7 71.4,60.5 76.8,55.2 70.2,48.6 89,48.6 89,41 70.3,41 76.7,34.6 		"/>
		<polygon class="st0" points="18.9,60.5 34.5,45 18.9,29.2 13.5,34.5 20,41.1 1.3,41.1 1.3,48.7 19.9,48.7 13.5,55.1 		"/>
		<polygon class="st0" points="60.8,71.1 45.2,55.5 29.5,71.1 34.8,76.5 41.4,70 41.4,88.7 49,88.7 49,70.1 55.4,76.5 		"/>
		<polygon class="st0" points="29.5,18.6 45,34.2 60.8,18.6 55.5,13.2 48.8,19.7 48.8,1 41.2,1 41.2,19.6 34.8,13.2 		"/>
	</g>
</g>
</svg>
