<?xml version="1.0" encoding="utf-8"?>
<!-- Generator: Adobe Illustrator 19.1.0, SVG Export Plug-In . SVG Version: 6.00 Build 0)  -->
<svg version="1.1" id="Layer_1" xmlns="http://www.w3.org/2000/svg" xmlns:xlink="http://www.w3.org/1999/xlink" x="0px" y="0px"
	 viewBox="0 0 119.6 119.5" style="enable-background:new 0 0 119.6 119.5;" xml:space="preserve">
<style type="text/css">
	.st0{clip-path:url(#SVGID_4_);}
	.st1{fill:#01428D;}
</style>
<g>
	<g>
		<defs>
			<circle id="SVGID_1_" cx="59.8" cy="59.8" r="56.7"/>
		</defs>
		<clipPath id="SVGID_2_">
			<use xlink:href="#SVGID_1_"  style="overflow:visible;"/>
		</clipPath>
	</g>
	<g>
		<defs>
			<circle id="SVGID_3_" cx="59.8" cy="59.8" r="56.7"/>
		</defs>
		<clipPath id="SVGID_4_">
			<use xlink:href="#SVGID_3_"  style="overflow:visible;"/>
		</clipPath>
		<g class="st0">
			<path class="st1" d="M56.2,91v4h7.1v-4c-1.2,0.2-2.4,0.3-3.5,0.3C58.6,91.3,57.4,91.2,56.2,91L56.2,91z M56.2,91"/>
			<g>
				<path class="st1" d="M93,85.3l-14.6-4.3c-0.9,1.2-1.9,2.3-2.9,3.2l3.8,1.1C76.8,95.4,69.9,123,68,132.8
					c-1.6,0.4-3.1,0.7-4.8,0.8l4.1-9.7l-3.9-26.4h-7.2L52.3,124l4.1,9.7c-1.7-0.2-3.3-0.5-4.8-0.9c-1.9-9.9-8.8-37.4-11.3-47.5
					l3.8-1.1c-1-1-2-2.1-2.9-3.2l-14.5,4.3c-3.3,1-5.5,4-5.5,7.4V99c0,21.4,17.3,38.7,38.7,38.7c21.4,0,38.7-17.3,38.7-38.7v-6.4
					C98.5,89.3,96.3,86.3,93,85.3L93,85.3z M93,85.3"/>
				<path class="st1" d="M84.8,49.5c0.7-4.5,0.4-9.4-0.2-13.1C83.2,28.3,80,22.6,80,22.6l-1.5,6.3l-0.1,0.6c0-0.3-0.1-0.5-0.1-0.8
					c-0.4-3.4-1.9-8.1-1.9-8.1c-3.5,1.6-9.1,1.5-9.1,1.5c1.6-1.2,5.7-2.3,5.7-2.3c-10.2-3.2-16.7,0.1-19.9,2.7
					c-0.7,0.5-1.2,1.1-1.6,1.4l1.2-1.3l2.4-2.8c-4.9,0.5-8.4,3.8-10.6,6.5c-1.6,1.9-2.4,3.6-2.4,3.6l0.4-2.1l0.9-4.6
					c-3.3,2.7-5.4,6.6-6.6,10.5c-1.9,6-2.1,13.3-2,15.9c-1.9,0.8-3.4,2.6-4,5c-0.6,2.3-0.4,5,0.4,7.5c1.4,4.1,4.4,7,7.7,7.7
					c4.1,8.7,11.5,17.6,20.9,17.6c9.4,0,16.9-8.9,20.9-17.6c3.2-0.6,6.3-3.6,7.7-7.7C90.3,56.6,88.7,51.1,84.8,49.5L84.8,49.5z
					 M84.6,60.8c-1.2,3.4-3.6,5.2-5.3,5.2c-0.9,0.1-1.5,0.5-1.8,1.2c-3.4,7.9-9.9,16.3-17.8,16.3c-7.9,0-14.3-8.4-17.8-16.3
					c-0.3-0.7-1.1-1.2-1.9-1.2c-1.6,0-4-1.8-5.2-5.2c-0.6-1.8-0.8-3.7-0.4-5.2c0.2-0.7,0.7-2,1.8-2.4c0.1,0,0.4-0.1,0.5-0.1
					c1-0.1,1.7-0.9,1.8-1.9c0-0.9,0.2-1.8,0.4-2.7c2.9-11.6,13.1-12.4,13.1-12.4c-1.8,4.3-4.8,6.1-4.8,6.1C57,38.2,60,33.9,60,33.9
					c6.5,9,15.4,12.9,20.5,14.4c0.2,0.9,0.3,1.8,0.4,2.8c0,1,0.8,1.8,1.8,1.9c0.1,0,0.4,0,0.5,0.1C84.9,53.7,86,57,84.6,60.8
					L84.6,60.8z M84.6,60.8"/>
			</g>
		</g>
	</g>
</g>
</svg>
