<?xml version="1.0" encoding="utf-8"?>
<!-- Generator: Adobe Illustrator 19.1.0, SVG Export Plug-In . SVG Version: 6.00 Build 0)  -->
<svg version="1.1" id="Layer_1" xmlns="http://www.w3.org/2000/svg" xmlns:xlink="http://www.w3.org/1999/xlink" x="0px" y="0px"
	 viewBox="0 0 80 80" style="enable-background:new 0 0 80 80;" xml:space="preserve">
<style type="text/css">
	.st0{fill:#ECECEC;}
	.st1{fill:#868686;}
</style>
<g>
	<circle class="st0" cx="40" cy="40.1" r="39"/>
	<path class="st1" d="M58.6,41c-0.1-2.8-2.4-4.6-5.1-4c-0.5,0.1-1,0.3-1.4,0.4c-1.6-2.6-3.3-3.2-6.4-2.1c-0.7-1.6-2-2.5-4-2.7
		c0.4-0.3,0.6-0.5,0.8-0.7c5.1-5.1,3.7-13.5-2.9-16.6c-0.4-0.2-1.6-0.7-2.6-0.8c-1.7-0.2-3.4,0-3.5,0c-4.3,0.7-7.5,3.7-8.5,7.9
		c-0.9,3.9,0.7,8.2,4.2,10.4c0.6,0.4,1.9,0.7,1.9,0.7s0,6.5,0,8.1c-0.1,0-0.2-0.3-0.3-0.3c-0.4-0.4-0.7-0.8-1.1-1.3
		c-0.4-0.4-0.8-0.9-1.3-1.3c-1.8-1.8-4-2-5.8-0.7c-1.8,1.3-2.1,3.7-0.9,5.8c1.2,2.1,2.3,4.3,3.4,6.5c1.6,3.1,3.1,6.4,4.9,9.4
		c1.4,2.5,3.3,4.6,6.1,5.5c4.5,0,8.9,0,13.4,0c0.3-0.2,0.6-0.4,0.9-0.6c4.7-2.6,8-6.2,8.2-11.8C58.7,48.9,58.7,45,58.6,41z M31,24.1
		c0,2.4,0,4.8,0,7.3c-2.6-0.8-4.5-4.5-4.1-8c0.5-3.8,3.9-6.8,7.9-7c3.9-0.2,7.6,2.6,8.4,6.4c0.7,3.4-1,7.3-3.8,8.5
		c0-2.5,0.1-4.9,0-7.3c-0.1-0.9-0.5-2-1-2.8c-1.1-1.4-3-1.7-4.6-1.1C32,20.8,31,22.2,31,24.1z M56.3,53.8c-0.2,3.7-2.7,6.3-5.7,8.3
		c-1.1,0.7-2.3,1.2-3.7,1.1c-3-0.1-6-0.1-9,0c-2,0.1-3.5-0.7-4.6-2.2c-1.3-1.9-2.6-3.8-3.7-5.8c-1.5-2.9-2.8-5.9-4.2-8.8
		c-0.6-1.3-1.4-2.4-2-3.6c-0.7-1.2-0.6-2.4,0.3-3.1c1-0.8,2-0.7,3.1,0.4c1.4,1.4,2.8,2.9,4.2,4.3c0.3,0.3,1,0.6,1.4,0.5
		c0.3-0.1,0.6-0.8,0.6-1.3c0-3.2,0-6.4,0-9.6c0,0,0,0,0,0c0-3.3,0-6.6,0-9.9c0-1.1,0.5-1.8,1.5-2.1c0.9-0.3,1.8-0.1,2.3,0.8
		c0.3,0.5,0.4,1.1,0.4,1.7c0,5.4,0,10.9,0,16.3c0,0.3-0.1,0.7,0,0.9V42c0,0.6,0.5,1,1,1c0.6,0,1-0.5,1-1v-0.1c0,0,0,0,0,0
		c0.1-1.5,0.1-3.1,0.1-4.6c0-1.6,0.9-2.5,2.2-2.5c1.3,0,2.1,1,2.1,2.4c0,2.2,0,4.3,0,6.5c0,0.8,0.2,1.4,1.1,1.4c0.9,0,1-0.7,1-1.4
		c0-1.5,0-3,0-4.5c0-1.4,0.9-2.3,2.1-2.3c1.2,0,2.1,0.9,2.1,2.3c0,2.2,0,4.4,0,6.6c0,0.7,0.1,1.4,1,1.5c1,0,1.1-0.7,1.1-1.5
		c0-1.5,0-3,0.1-4.5c0-1.3,0.8-2.1,2-2.1c1.3,0,2.2,0.7,2.2,2C56.5,45.3,56.6,49.6,56.3,53.8z"/>
</g>
</svg>
