<?xml version="1.0" encoding="utf-8"?>
<!-- Generator: Adobe Illustrator 19.1.0, SVG Export Plug-In . SVG Version: 6.00 Build 0)  -->
<svg version="1.1" id="Layer_1" xmlns="http://www.w3.org/2000/svg" xmlns:xlink="http://www.w3.org/1999/xlink" x="0px" y="0px"
	 viewBox="0 0 53.1 85" style="enable-background:new 0 0 53.1 85;" xml:space="preserve">
<style type="text/css">
	.st0{fill:#878787;}
</style>
<g>
	<g>
		<path class="st0" d="M50.3,47.8c0,0-0.3-3.8-2.8-5.8c-1.4-1.2-2.7-1.3-3.7-1.2v7.1h-1.7V40c-0.5-1.1-1.5-2.8-3.1-3.4
			c-1.6-0.7-3.2-0.5-4.3-0.3v8h-1.7v-9c-0.7-0.9-2-1.9-4.3-2c-1.2-0.1-2.3,0.4-3.2,0.9L25.4,42h-1.7l0-14c5.5-1.7,9.5-6.8,9.5-12.8
			c0-7.5-6.1-13.5-13.5-13.5c-7.5,0-13.5,6.1-13.5,13.5c0,5.8,3.7,10.8,8.9,12.6v23.7c0,0-4.4-9.4-8.1-10.6c-3.7-1.2-6,1-6,1
			s4.2,7.8,7.3,16.4c2,5.6,2.6,12,4.3,15.2c4.5,8.2,10.1,9,17,9s16.1,0.6,18.6-5.1C50.8,71.8,50.3,47.8,50.3,47.8L50.3,47.8z
			 M12.1,15.1c0-4.2,3.4-7.7,7.7-7.7c4.3,0,7.7,3.4,7.7,7.7c0,2.8-1.5,5.2-3.6,6.5l0-5c0,0-1-5.2-4.2-5.2c-3.2,0-4.5,4.4-4.5,4.4
			v5.3C13.3,19.9,12.1,17.7,12.1,15.1L12.1,15.1z M12.1,15.1"/>
	</g>
</g>
</svg>
