<?xml version="1.0" encoding="utf-8"?>
<!-- Generator: Adobe Illustrator 19.1.0, SVG Export Plug-In . SVG Version: 6.00 Build 0)  -->
<svg version="1.1" id="Layer_1" xmlns="http://www.w3.org/2000/svg" xmlns:xlink="http://www.w3.org/1999/xlink" x="0px" y="0px"
	 viewBox="0 0 71.9 85" style="enable-background:new 0 0 71.9 85;" xml:space="preserve">
<style type="text/css">
	.st0{fill:#FFFFFF;}
</style>
<g>
	<g>
		<path class="st0" d="M66.3,4.8H46.4c-0.1-1.4-1.4-2.6-2.8-2.6H27.2c-1.5,0-2.7,1.1-2.8,2.6H4.5c-1.6,0-2.8,1.3-2.8,2.8v5.4
			c0,1.6,1.3,2.8,2.8,2.8h61.8c1.6,0,2.8-1.3,2.8-2.8V7.7C69.1,6.1,67.9,4.8,66.3,4.8L66.3,4.8z M66.3,4.8"/>
		<path class="st0" d="M7.6,21.4v58.7c0,1.6,1.3,2.8,2.8,2.8h49.9c1.6,0,2.8-1.3,2.8-2.8V21.4H7.6z M28.5,65.5
			c0,1.7-1.4,3.1-3.1,3.1c-1.7,0-3.1-1.4-3.1-3.1V34.3c0-1.7,1.4-3.1,3.1-3.1c1.7,0,3.1,1.4,3.1,3.1V65.5z M48.6,65.5
			c0,1.7-1.4,3.1-3.1,3.1c-1.7,0-3.1-1.4-3.1-3.1V34.3c0-1.7,1.4-3.1,3.1-3.1c1.7,0,3.1,1.4,3.1,3.1V65.5z M48.6,65.5"/>
	</g>
</g>
</svg>
