<?xml version="1.0" encoding="utf-8"?>
<!-- Generator: Adobe Illustrator 19.1.0, SVG Export Plug-In . SVG Version: 6.00 Build 0)  -->
<svg version="1.1" id="Layer_1" xmlns="http://www.w3.org/2000/svg" xmlns:xlink="http://www.w3.org/1999/xlink" x="0px" y="0px"
	 viewBox="0 0 109.5 67.5" style="enable-background:new 0 0 109.5 67.5;" xml:space="preserve">
<g>
	<g>
		<path d="M101.5,32.1c-0.2-0.2-4.9-6.1-12.9-12c-10.7-7.9-22.3-12-33.6-12c-11.3,0-23,4.2-33.6,12c-8,5.9-12.7,11.7-12.9,12
			l-1.7,2.1l1.7,2.1c0.2,0.2,4.9,6.1,12.9,12c10.7,7.9,22.3,12,33.6,12c11.3,0,23-4.2,33.6-12c8-5.9,12.7-11.7,12.9-12l1.7-2.1
			L101.5,32.1z M55,52.4c-10.1,0-18.3-8.2-18.3-18.3c0-1.6,0.2-3.1,0.6-4.6l-4.2-0.7c-0.4,1.7-0.6,3.5-0.6,5.3
			c0,6.5,2.8,12.4,7.2,16.5c-5.7-2.1-10.6-5.1-14.2-7.7c-4.5-3.3-7.9-6.7-9.9-8.7c1.9-2.1,5.3-5.4,9.9-8.7c3.7-2.7,8.5-5.6,14.2-7.7
			l2.8,3.2c3.3-3.1,7.7-4.9,12.5-4.9c10.1,0,18.3,8.2,18.3,18.3S65.1,52.4,55,52.4L55,52.4z M84.5,42.9c-3.7,2.7-8.5,5.6-14.2,7.7
			c4.4-4.1,7.2-10,7.2-16.5c0-6.5-2.8-12.4-7.2-16.5c5.7,2.1,10.6,5.1,14.2,7.7c4.5,3.3,7.9,6.7,9.9,8.7
			C92.4,36.2,89,39.6,84.5,42.9L84.5,42.9z M84.5,42.9"/>
	</g>
	<path d="M43.4,30.6c-0.3,1.1-0.5,2.3-0.5,3.6c0,6.7,5.4,12.2,12.2,12.2c6.7,0,12.2-5.4,12.2-12.2C67.1,27.5,61.7,22,55,22
		c-3.3,0-6.2,1.3-8.4,3.4l6,6.8L43.4,30.6z M43.4,30.6"/>
</g>
</svg>
