<?xml version="1.0" encoding="utf-8"?>
<!-- Generator: Adobe Illustrator 19.1.0, SVG Export Plug-In . SVG Version: 6.00 Build 0)  -->
<svg version="1.1" id="Layer_1" xmlns="http://www.w3.org/2000/svg" xmlns:xlink="http://www.w3.org/1999/xlink" x="0px" y="0px"
	 viewBox="0 0 97 54.1" style="enable-background:new 0 0 97 54.1;" xml:space="preserve">
<style type="text/css">
	.st0{fill:#FFFFFF;}
</style>
<g>
	<g>
		<path class="st0" d="M95.4,24.9c-0.2-0.2-4.9-6.1-12.9-12c-10.7-7.9-22.3-12-33.6-12c-11.3,0-23,4.2-33.6,12
			c-8,5.9-12.7,11.7-12.9,12L0.7,27l1.7,2.1c0.2,0.2,4.9,6.1,12.9,12c10.7,7.9,22.3,12,33.6,12c11.3,0,23-4.2,33.6-12
			c8-5.9,12.7-11.7,12.9-12L97,27L95.4,24.9z M48.9,45.3c-10.1,0-18.3-8.2-18.3-18.3c0-1.6,0.2-3.1,0.6-4.6L27,21.7
			c-0.4,1.7-0.6,3.5-0.6,5.3c0,6.5,2.8,12.4,7.2,16.5c-5.7-2.1-10.6-5.1-14.2-7.7c-4.5-3.3-7.9-6.7-9.9-8.7c1.9-2.1,5.3-5.4,9.9-8.7
			c3.7-2.7,8.5-5.6,14.2-7.7l2.8,3.2c3.3-3.1,7.7-4.9,12.5-4.9c10.1,0,18.3,8.2,18.3,18.3S58.9,45.3,48.9,45.3L48.9,45.3z
			 M78.4,35.8c-3.7,2.7-8.5,5.6-14.2,7.7c4.4-4.1,7.2-10,7.2-16.5c0-6.5-2.8-12.4-7.2-16.5c5.7,2.1,10.6,5.1,14.2,7.7
			c4.5,3.3,7.9,6.7,9.9,8.7C86.3,29.1,82.9,32.4,78.4,35.8L78.4,35.8z M78.4,35.8"/>
	</g>
	<path class="st0" d="M37.2,23.5c-0.3,1.1-0.5,2.3-0.5,3.6c0,6.7,5.4,12.2,12.2,12.2C55.6,39.2,61,33.7,61,27
		c0-6.7-5.4-12.2-12.2-12.2c-3.3,0-6.2,1.3-8.4,3.4l6,6.8L37.2,23.5z M37.2,23.5"/>
</g>
</svg>
