<?xml version="1.0" encoding="utf-8"?>
<!-- Generator: Adobe Illustrator 19.1.0, SVG Export Plug-In . SVG Version: 6.00 Build 0)  -->
<svg version="1.1" id="Layer_1" xmlns="http://www.w3.org/2000/svg" xmlns:xlink="http://www.w3.org/1999/xlink" x="0px" y="0px"
	 viewBox="0 0 83.8 83.6" style="enable-background:new 0 0 83.8 83.6;" xml:space="preserve">
<style type="text/css">
	.st0{fill:#FFFFFF;}
</style>
<g>
	<g>
		<path class="st0" d="M14.3,80.6l20.4-20.4c1.5-1.5,2.3-3.5,2.3-5.5c11.4,7.7,27,6.5,37.1-3.6c11.5-11.5,11.5-30.1,0-41.5
			C62.7-1.9,44.1-1.9,32.7,9.6C22.6,19.7,21.4,35.3,29,46.7c-2,0-4,0.8-5.5,2.3L3.2,69.4c-3.1,3.1-3.1,8.1,0,11.2
			C6.2,83.7,11.3,83.7,14.3,80.6L14.3,80.6z M39.1,44.7c-7.9-7.9-7.9-20.8,0-28.8c7.9-7.9,20.8-7.9,28.8,0c7.9,7.9,7.9,20.8,0,28.8
			C59.9,52.7,47,52.7,39.1,44.7L39.1,44.7z M39.1,44.7"/>
	</g>
</g>
</svg>
