<?xml version="1.0" encoding="utf-8"?>
<!-- Generator: Adobe Illustrator 19.1.0, SVG Export Plug-In . SVG Version: 6.00 Build 0)  -->
<svg version="1.1" id="Layer_1" xmlns="http://www.w3.org/2000/svg" xmlns:xlink="http://www.w3.org/1999/xlink" x="0px" y="0px"
	 viewBox="0 0 140 120" style="enable-background:new 0 0 140 120;" xml:space="preserve">
<path d="M111.5,91.8l-8.3-13.7V54.7c0-15.4-10.4-28.8-24.6-33.2c-0.5-5-4.7-8.9-9.8-8.9c-5.1,0-9.2,3.8-9.8,8.8
	c-5,1.5-9.6,4-13.6,7.6C38,35.8,33.8,45.6,33.8,55.8v21.9l-6.4,11.5c-0.2,0.4-2.3,4.4-0.5,7.3c0.7,1.1,2.2,2.5,5.5,2.5h21
	c0,0,0,0,0,0.1c2.6,6.2,8.6,10.2,15.4,10.2c6.7,0,12.8-4.1,15.3-10.2h21.4c1.3,0,5.2,0,6.5-2.6C113,94.1,111.6,91.9,111.5,91.8z
	 M68.8,16.6c2.5,0,4.7,1.6,5.5,3.9c-0.9-0.2-1.9-0.3-2.9-0.4c-2.8-0.2-5.5-0.1-8.2,0.3C64.1,18.2,66.3,16.6,68.8,16.6z M68.7,105.1
	c-4.5,0-8.6-2.4-10.9-6.2h21.8C77.3,102.7,73.2,105.1,68.7,105.1z M105.4,94.9H32.3c-1.1,0-1.8-0.2-2-0.6c-0.4-0.7,0.1-2.4,0.6-3.3
	l6.6-11.8c0.2-0.3,0.3-0.7,0.3-1.1V55.8c0-9.1,3.8-17.8,10.3-23.8c5.7-5.2,12.8-8,20.4-8c0.9,0,1.7,0,2.6,0.1
	c15.8,1.3,28.1,14.8,28.1,30.6v23.9c0,0.4,0.1,0.8,0.3,1.1l8.6,14.2c0.1,0.2,0.2,0.4,0.3,0.4c0,0,0,0,0,0
	C108.4,94.4,107.8,94.9,105.4,94.9z"/>
</svg>
