<?xml version="1.0" encoding="utf-8"?>
<!-- Generator: Adobe Illustrator 19.1.0, SVG Export Plug-In . SVG Version: 6.00 Build 0)  -->
<svg version="1.1" id="Layer_1" xmlns="http://www.w3.org/2000/svg" xmlns:xlink="http://www.w3.org/1999/xlink" x="0px" y="0px"
	 viewBox="0 0 140 120" style="enable-background:new 0 0 140 120;" xml:space="preserve">
<g>
	<path d="M38.5,59h-4c-1.1,0-2,0.9-2,2s0.9,2,2,2h4c1.1,0,2-0.9,2-2S39.6,59,38.5,59z"/>
	<path d="M55.2,59h-8.3c-1.1,0-2,0.9-2,2s0.9,2,2,2h8.3c1.1,0,2-0.9,2-2S56.3,59,55.2,59z"/>
	<path d="M71.8,59h-8.3c-1.1,0-2,0.9-2,2s0.9,2,2,2h8.3c1.1,0,2-0.9,2-2S73,59,71.8,59z"/>
	<path d="M90.5,61c0-1.1-0.9-2-2-2h-8.3c-1.1,0-2,0.9-2,2s0.9,2,2,2h8.3C89.6,63,90.5,62.1,90.5,61z"/>
	<path d="M105.2,59.3l-20-12.6c-0.9-0.6-2.2-0.3-2.8,0.6c-0.6,0.9-0.3,2.2,0.6,2.8L97.2,59h-0.4c-1.1,0-2,0.9-2,2s0.9,2,2,2h0.4
		l-14.1,8.9c-0.9,0.6-1.2,1.8-0.6,2.8c0.4,0.6,1,0.9,1.7,0.9c0.4,0,0.7-0.1,1.1-0.3l20-12.6c0.6-0.4,0.9-1,0.9-1.7
		S105.8,59.6,105.2,59.3z"/>
</g>
</svg>
