<?xml version="1.0" encoding="utf-8"?>
<!-- Generator: Adobe Illustrator 19.1.0, SVG Export Plug-In . SVG Version: 6.00 Build 0)  -->
<svg version="1.1" id="Layer_1" xmlns="http://www.w3.org/2000/svg" xmlns:xlink="http://www.w3.org/1999/xlink" x="0px" y="0px"
	 viewBox="0 0 140 120" style="enable-background:new 0 0 140 120;" xml:space="preserve">
<g>
	<path d="M100.7,7.4H36.1c-4.2,0-7.6,3.4-7.6,7.6v89.8c0,4.2,3.4,7.6,7.6,7.6h64.6c4.2,0,7.6-3.4,7.6-7.6V15.1
		C108.3,10.9,104.9,7.4,100.7,7.4z M104.3,104.9c0,2-1.6,3.6-3.6,3.6H36.1c-2,0-3.6-1.6-3.6-3.6V15.1c0-2,1.6-3.6,3.6-3.6h64.6
		c2,0,3.6,1.6,3.6,3.6V104.9z"/>
	<circle cx="48.3" cy="53.7" r="5.2"/>
	<circle cx="68.5" cy="53.7" r="5.2"/>
	<circle cx="88.8" cy="53.7" r="5.2"/>
	<circle cx="48.3" cy="72.2" r="5.2"/>
	<circle cx="68.5" cy="72.2" r="5.2"/>
	<circle cx="88.8" cy="72.2" r="5.2"/>
	<circle cx="48.3" cy="92.1" r="5.2"/>
	<circle cx="68.5" cy="92.1" r="5.2"/>
	<circle cx="88.8" cy="92.1" r="5.2"/>
	<path d="M94,22.6H42.8c-1.2,0-2.1,0.9-2.1,2.1v4.3c0,1.2,0.9,2.1,2.1,2.1H94c1.2,0,2.1-0.9,2.1-2.1v-4.3
		C96.1,23.5,95.1,22.6,94,22.6z"/>
</g>
</svg>
