<?xml version="1.0" encoding="utf-8"?>
<!-- Generator: Adobe Illustrator 19.1.0, SVG Export Plug-In . SVG Version: 6.00 Build 0)  -->
<svg version="1.1" id="Layer_1" xmlns="http://www.w3.org/2000/svg" xmlns:xlink="http://www.w3.org/1999/xlink" x="0px" y="0px"
	 viewBox="0 0 140 120" style="enable-background:new 0 0 140 120;" xml:space="preserve">
<g>
	<path d="M88.6,33.1c2,0,3.7-1.6,3.7-3.7v-7.3c0-2-1.7-3.7-3.7-3.7c-2,0-3.7,1.6-3.7,3.7v7.3C84.9,31.5,86.6,33.1,88.6,33.1z"/>
	<path d="M51,33.1h1.8c1.5,0,2.8-1.2,2.8-2.8v-9.2c0-1.5-1.2-2.8-2.8-2.8H51c-1.5,0-2.8,1.2-2.8,2.8v9.2
		C48.2,31.9,49.4,33.1,51,33.1z"/>
	<path d="M102.3,29.6h-6.4c-1.1,0-2,0.9-2,2s0.9,2,2,2h6.4c2.3,0,4.1,1.8,4.1,4.1v55.7c0,2.3-1.8,4.1-4.1,4.1H37.5
		c-2.3,0-4.1-1.8-4.1-4.1V37.7c0-2.3,1.8-4.1,4.1-4.1h7.1c1.1,0,2-0.9,2-2s-0.9-2-2-2h-7.1c-4.5,0-8.1,3.6-8.1,8.1v55.7
		c0,4.5,3.6,8.1,8.1,8.1h64.9c4.5,0,8.1-3.6,8.1-8.1V37.7C110.5,33.3,106.8,29.6,102.3,29.6z"/>
	<path d="M59.2,29.6h22c1.1,0,2-0.9,2-2s-0.9-2-2-2h-22c-1.1,0-2,0.9-2,2S58.1,29.6,59.2,29.6z"/>
	<rect x="42" y="62.1" width="10.5" height="10.5"/>
	<rect x="64.7" y="62.1" width="10.5" height="10.5"/>
	<rect x="87.3" y="62.1" width="10.5" height="10.5"/>
	<rect x="42" y="79.6" width="10.5" height="10.5"/>
	<rect x="64.7" y="79.6" width="10.5" height="10.5"/>
	<path d="M100.8,48.4c0-1.7-1.3-3-3-3H40.9c-1.7,0-3,1.3-3,3c0,1.7,1.3,3,3,3h56.9C99.5,51.4,100.8,50,100.8,48.4z"/>
</g>
</svg>
