<?xml version="1.0" encoding="utf-8"?>
<!-- Generator: Adobe Illustrator 19.1.0, SVG Export Plug-In . SVG Version: 6.00 Build 0)  -->
<svg version="1.1" id="Layer_1" xmlns="http://www.w3.org/2000/svg" xmlns:xlink="http://www.w3.org/1999/xlink" x="0px" y="0px"
	 viewBox="0 0 140 120" style="enable-background:new 0 0 140 120;" xml:space="preserve">
<g>
	<path d="M69.8,45.7C56.1,45.7,45,56.8,45,70.5s11.1,24.8,24.8,24.8c13.7,0,24.8-11.1,24.8-24.8S83.5,45.7,69.8,45.7z M69.8,91.4
		C58.3,91.4,49,82,49,70.5s9.4-20.8,20.8-20.8c11.5,0,20.8,9.4,20.8,20.8S81.3,91.4,69.8,91.4z"/>
	<path d="M78.4,59.9l-8.4,7.8l-7.8-8.4c-0.7-0.8-2-0.9-2.8-0.1c-0.8,0.7-0.9,2-0.1,2.8l7.8,8.4l-8.4,7.8c-0.8,0.7-0.9,2-0.1,2.8
		c0.4,0.4,0.9,0.6,1.5,0.6c0.5,0,1-0.2,1.4-0.5l8.4-7.8l7.8,8.4c0.4,0.4,0.9,0.6,1.5,0.6c0.5,0,1-0.2,1.4-0.5c0.8-0.7,0.9-2,0.1-2.8
		l-7.8-8.4l8.4-7.8c0.8-0.7,0.9-2,0.1-2.8C80.4,59.2,79.2,59.2,78.4,59.9z"/>
	<path d="M106.1,24.5L93.6,12.2c-2.1-2.1-4.9-3.2-7.8-3.2H41.4c-6.1,0-11.1,5-11.1,11.1v81.8c0,6.1,5,11.1,11.1,11.1h56.9
		c6.1,0,11.1-5,11.1-11.1V32.4C109.4,29.5,108.2,26.6,106.1,24.5z M105.4,101.9c0,3.9-3.2,7.1-7.1,7.1H41.4c-3.9,0-7.1-3.2-7.1-7.1
		V20.1c0-3.9,3.2-7.1,7.1-7.1h44.4c0.8,0,1.5,0.1,2.2,0.4v16.8l17,0c0.2,0.7,0.4,1.5,0.4,2.3V101.9z"/>
</g>
</svg>
