<?xml version="1.0" encoding="utf-8"?>
<!-- Generator: Adobe Illustrator 19.1.0, SVG Export Plug-In . SVG Version: 6.00 Build 0)  -->
<svg version="1.1" id="Layer_1" xmlns="http://www.w3.org/2000/svg" xmlns:xlink="http://www.w3.org/1999/xlink" x="0px" y="0px"
	 viewBox="0 0 140 120" style="enable-background:new 0 0 140 120;" xml:space="preserve">
<path d="M73.2,22.1C51,22.1,33,40.1,33,62.3s18,40.2,40.2,40.2s40.2-18,40.2-40.2S95.3,22.1,73.2,22.1z M94,77.2
	c0.8,0.8,1.2,1.8,1.2,2.8s-0.4,2.1-1.2,2.8c-0.8,0.8-1.8,1.2-2.8,1.2s-2.1-0.4-2.8-1.2L73.2,67.7L58,82.9c-0.8,0.8-1.8,1.2-2.8,1.2
	s-2.1-0.4-2.8-1.2c-1.6-1.6-1.6-4.1,0-5.7l15.1-15.1L52.4,46.9c-1.6-1.6-1.6-4.1,0-5.7c1.5-1.5,4.1-1.5,5.7,0l15.1,15.1l15.1-15.1
	c0.8-0.8,1.8-1.2,2.8-1.2c1.1,0,2.1,0.4,2.8,1.2c0,0,0,0,0,0c0,0,0,0,0,0c0.8,0.8,1.2,1.8,1.2,2.8c0,1.1-0.4,2.1-1.2,2.8L78.8,62.1
	L94,77.2z"/>
</svg>
