<?xml version="1.0" encoding="utf-8"?>
<!-- Generator: Adobe Illustrator 19.1.0, SVG Export Plug-In . SVG Version: 6.00 Build 0)  -->
<svg version="1.1" id="Layer_1" xmlns="http://www.w3.org/2000/svg" xmlns:xlink="http://www.w3.org/1999/xlink" x="0px" y="0px"
	 viewBox="0 0 140 120" style="enable-background:new 0 0 140 120;" xml:space="preserve">
<g>
	<path d="M89.1,42.7c-0.8-0.8-2-0.8-2.8,0L69.7,59.2L53.2,42.7c-0.8-0.8-2-0.8-2.8,0c-0.8,0.8-0.8,2,0,2.8l16.6,16.6L50.3,78.6
		c-0.8,0.8-0.8,2,0,2.8c0.4,0.4,0.9,0.6,1.4,0.6c0.5,0,1-0.2,1.4-0.6l16.6-16.6l16.6,16.6c0.4,0.4,0.9,0.6,1.4,0.6
		c0.5,0,1-0.2,1.4-0.6c0.8-0.8,0.8-2,0-2.8L72.6,62.1l16.6-16.6C89.9,44.7,89.9,43.5,89.1,42.7z"/>
	<path d="M69.7,22.1c-22.2,0-40.2,18-40.2,40.2s18,40.2,40.2,40.2s40.2-18,40.2-40.2S91.9,22.1,69.7,22.1z M69.7,98.5
		c-19.9,0-36.2-16.2-36.2-36.2s16.2-36.2,36.2-36.2s36.2,16.2,36.2,36.2S89.7,98.5,69.7,98.5z"/>
</g>
</svg>
