<?xml version="1.0" encoding="utf-8"?>
<!-- Generator: Adobe Illustrator 19.1.0, SVG Export Plug-In . SVG Version: 6.00 Build 0)  -->
<svg version="1.1" id="Layer_1" xmlns="http://www.w3.org/2000/svg" xmlns:xlink="http://www.w3.org/1999/xlink" x="0px" y="0px"
	 viewBox="0 0 140 120" style="enable-background:new 0 0 140 120;" xml:space="preserve">
<path d="M102.1,56.1c-3.1-12.5-14.4-21.5-27.5-21.5c-11.4,0-21.6,6.8-26.1,17.2c-2.2-0.8-4.4-1.1-6.7-1.1
	c-11.3,0-20.5,9.2-20.5,20.5s9.2,20.5,20.5,20.5h59.1c9.8,0,17.8-8,17.8-17.8C118.7,64.5,111.3,56.7,102.1,56.1z M100.9,87.7H41.8
	c-9.1,0-16.5-7.4-16.5-16.5c0-9.1,7.4-16.5,16.5-16.5c2.4,0,4.8,0.5,7,1.6c0.5,0.2,1.1,0.3,1.6,0s0.9-0.7,1.1-1.2
	c3.4-9.9,12.6-16.5,23-16.5c11.7,0,21.8,8.3,23.9,19.8c0.2,0.9,1,1.6,2,1.6c0,0,0,0,0.1,0c0,0,0.2,0,0.3,0l0.1,0
	c7.6,0,13.8,6.2,13.8,13.8S108.5,87.7,100.9,87.7z"/>
</svg>
