<?xml version="1.0" encoding="utf-8"?>
<!-- Generator: Adobe Illustrator 19.1.0, SVG Export Plug-In . SVG Version: 6.00 Build 0)  -->
<svg version="1.1" id="Layer_1" xmlns="http://www.w3.org/2000/svg" xmlns:xlink="http://www.w3.org/1999/xlink" x="0px" y="0px"
	 viewBox="0 0 140 120" style="enable-background:new 0 0 140 120;" xml:space="preserve">
<path d="M70.4,25.5c-27.5,0-49.8,14.1-49.8,31.5c0,9.9,7.3,19.2,19.6,25.1c-1.5,3.3-3.4,6-5.8,8.2c-0.8,0.7-3.4,3.3-2.2,5.7
	c0.7,1.4,2.1,1.7,3.4,1.7c1,0,1.9-0.2,2.4-0.3c4.9-1.1,12.1-3.7,18.4-10.1c4.5,0.8,9.3,1.3,14,1.3c27.5,0,49.8-14.1,49.8-31.5
	C120.2,39.7,97.8,25.5,70.4,25.5z M48.1,62.9c-3.7,0-6.7-3-6.7-6.7c0-3.7,3-6.7,6.7-6.7s6.7,3,6.7,6.7
	C54.7,59.9,51.8,62.9,48.1,62.9z M68.4,62.9c-3.7,0-6.7-3-6.7-6.7c0-3.7,3-6.7,6.7-6.7s6.7,3,6.7,6.7C75,59.9,72,62.9,68.4,62.9z
	 M88.6,62.9c-3.7,0-6.7-3-6.7-6.7c0-3.7,3-6.7,6.7-6.7s6.7,3,6.7,6.7C95.3,59.9,92.3,62.9,88.6,62.9z"/>
</svg>
