<?xml version="1.0" encoding="utf-8"?>
<!-- Generator: Adobe Illustrator 19.1.0, SVG Export Plug-In . SVG Version: 6.00 Build 0)  -->
<svg version="1.1" id="Layer_1" xmlns="http://www.w3.org/2000/svg" xmlns:xlink="http://www.w3.org/1999/xlink" x="0px" y="0px"
	 viewBox="0 0 140 120" style="enable-background:new 0 0 140 120;" xml:space="preserve">
<path d="M109.6,14.6H19c-3.8,0-6.9,3.1-6.9,6.9v61.2c0,3.8,3.1,6.9,6.9,6.9h33l-3.3,14.1h-4.1c-1.1,0-2,0.9-2,2s0.9,2,2,2H84
	c1.1,0,2-0.9,2-2s-0.9-2-2-2h-4.2l-3.3-14.1h33c3.8,0,6.9-3.1,6.9-6.9V21.6C116.5,17.8,113.4,14.6,109.6,14.6z M16,30.3h96.5v42.3
	H16V30.3z M19,18.7h90.6c1.6,0,2.9,1.3,2.9,2.9v4.8H16v-4.8C16,20,17.3,18.7,19,18.7z M75.8,103.8h-23l3.3-14.1h16.4L75.8,103.8z
	 M109.6,85.7H19c-1.6,0-2.9-1.3-2.9-2.9v-6.1h96.5v6.1C112.5,84.4,111.2,85.7,109.6,85.7z"/>
</svg>
