<?xml version="1.0" encoding="utf-8"?>
<!-- Generator: Adobe Illustrator 19.1.0, SVG Export Plug-In . SVG Version: 6.00 Build 0)  -->
<svg version="1.1" id="Layer_1" xmlns="http://www.w3.org/2000/svg" xmlns:xlink="http://www.w3.org/1999/xlink" x="0px" y="0px"
	 viewBox="0 0 140 120" style="enable-background:new 0 0 140 120;" xml:space="preserve">
<g>
	<path d="M39.3,19.3c-1.2,0-2.2,1-2.2,2.2V101c0,1.2,1,2.2,2.2,2.2c1.2,0,2.2-1,2.2-2.2V21.5C41.5,20.3,40.5,19.3,39.3,19.3z"/>
	<path d="M102.4,33.6L92.1,22.4c-0.4-0.4-0.9-0.6-1.5-0.6H47.4c-1.1,0-2,0.9-2,2v22.9c0,1.1,0.9,2,2,2h43.2c0.6,0,1.1-0.2,1.5-0.7
		l10.3-11.7C103.1,35.5,103.1,34.4,102.4,33.6z M89.7,44.7H49.4V25.8h40.3l8.5,9.2L89.7,44.7z"/>
</g>
</svg>
