<?xml version="1.0" encoding="utf-8"?>
<!-- Generator: Adobe Illustrator 19.1.0, SVG Export Plug-In . SVG Version: 6.00 Build 0)  -->
<svg version="1.1" id="Layer_1" xmlns="http://www.w3.org/2000/svg" xmlns:xlink="http://www.w3.org/1999/xlink" x="0px" y="0px"
	 viewBox="0 0 140 120" style="enable-background:new 0 0 140 120;" xml:space="preserve">
<g>
	<path d="M69.8,17.3c-25.3,0-45.9,20.6-45.9,45.9c0,25.3,20.6,45.9,45.9,45.9s45.9-20.6,45.9-45.9C115.7,37.9,95.1,17.3,69.8,17.3z
		 M69.8,105C46.7,105,28,86.2,28,63.2s18.8-41.9,41.9-41.9s41.9,18.8,41.9,41.9S92.9,105,69.8,105z"/>
	<path d="M73.5,63.4l-7.8-5c-4.3-3.1-5.1-4.9-5.3-5.5c-0.5-1.9-0.1-4,1.1-5.7c1.6-2.3,4.3-3.6,7.9-4c0.1,0,0.2,0,0.3,0
		c0,0,0,0,0.1,0c0,0,0.1,0,0.1,0c7.1-0.3,9.5,7.3,9.5,7.7c0.3,1.1,1.4,1.7,2.5,1.4c1.1-0.3,1.7-1.4,1.4-2.5
		c-1-3.6-4.6-9.8-11.5-10.5v-5.8c0-1.1-0.9-2-2-2s-2,0.9-2,2v6c-5.3,0.8-8.1,3.4-9.6,5.5c-1.9,2.7-2.5,6.1-1.7,9
		c0.6,2.3,2.8,4.8,6.9,7.7l7.9,5.1C78,71,79,73.3,79.2,74c0.5,1.9,0.1,4-1.1,5.7c-1.6,2.3-4.3,3.6-7.9,4c-0.1,0-0.2,0-0.3,0
		c0,0,0,0-0.1,0c0,0-0.1,0-0.1,0c-7.2,0.3-9.5-7.3-9.5-7.7c-0.3-1.1-1.4-1.7-2.5-1.4c-1.1,0.3-1.7,1.4-1.4,2.5
		c1,3.6,4.6,9.8,11.5,10.5v5.3c0,1.1,0.9,2,2,2s2-0.9,2-2v-5.5c5.3-0.8,8.1-3.4,9.6-5.5c1.8-2.7,2.5-6.1,1.6-9
		C82.3,70.2,79.2,67.1,73.5,63.4z"/>
</g>
</svg>
