<?xml version="1.0" encoding="utf-8"?>
<!-- Generator: Adobe Illustrator 19.1.0, SVG Export Plug-In . SVG Version: 6.00 Build 0)  -->
<svg version="1.1" id="Layer_1" xmlns="http://www.w3.org/2000/svg" xmlns:xlink="http://www.w3.org/1999/xlink" x="0px" y="0px"
	 viewBox="0 0 140 120" style="enable-background:new 0 0 140 120;" xml:space="preserve">
<g>
	<path d="M108.7,23.8l-3.7-3.7c-3-3-7.9-3-10.9,0L53.6,60.6c-0.2,0.2-0.4,0.5-0.5,0.8l-5.5,17.3c-0.2,0.7,0,1.5,0.5,2
		c0.4,0.4,0.9,0.6,1.4,0.6c0.2,0,0.4,0,0.6-0.1l17.3-5.5c0.3-0.1,0.6-0.3,0.8-0.5l0.2-0.2c0,0,0,0,0,0c0,0,0,0,0,0l40.3-40.3
		C111.7,31.7,111.7,26.8,108.7,23.8z M52.6,76.3L56,65.4l7.4,7.4L52.6,76.3z M67,70.8l-9-9L90.8,29l9,9L67,70.8z M105.9,31.9
		l-3.3,3.3l-9-9l3.3-3.3c1.5-1.5,3.8-1.5,5.3,0l3.7,3.7C107.3,28.1,107.3,30.5,105.9,31.9z"/>
	<path d="M103.8,59c-1.1,0-2,0.9-2,2v33.8c0,2.8-2.3,5.1-5.1,5.1H37.4c-2.8,0-5.1-2.3-5.1-5.1V35.5c0-2.8,2.3-5.1,5.1-5.1H67
		c1.1,0,2-0.9,2-2s-0.9-2-2-2H37.4c-5,0-9.1,4.1-9.1,9.1v59.2c0,5,4.1,9.1,9.1,9.1h59.2c5,0,9.1-4.1,9.1-9.1V61
		C105.8,59.9,104.9,59,103.8,59z"/>
</g>
</svg>
