<?xml version="1.0" encoding="utf-8"?>
<!-- Generator: Adobe Illustrator 19.1.0, SVG Export Plug-In . SVG Version: 6.00 Build 0)  -->
<svg version="1.1" id="Layer_1" xmlns="http://www.w3.org/2000/svg" xmlns:xlink="http://www.w3.org/1999/xlink" x="0px" y="0px"
	 viewBox="0 0 140 120" style="enable-background:new 0 0 140 120;" xml:space="preserve">
<path d="M65.2,22.1C43,22.1,25,40.1,25,62.3s18,40.2,40.2,40.2c22.2,0,40.2-18,40.2-40.2S87.4,22.1,65.2,22.1z M61.2,39.5
	c0-2.2,1.8-4,4-4c2.2,0,4,1.8,4,4v24.8c0,2.2-1.8,4-4,4c-2.2,0-4-1.8-4-4V39.5z M65.2,85.8c-3.3,0-6-2.7-6-6c0-3.3,2.7-6,6-6
	c3.3,0,6,2.7,6,6C71.2,83.2,68.5,85.8,65.2,85.8z"/>
</svg>
