<?xml version="1.0" encoding="utf-8"?>
<!-- Generator: Adobe Illustrator 19.1.0, SVG Export Plug-In . SVG Version: 6.00 Build 0)  -->
<svg version="1.1" id="Layer_1" xmlns="http://www.w3.org/2000/svg" xmlns:xlink="http://www.w3.org/1999/xlink" x="0px" y="0px"
	 viewBox="0 0 140 120" style="enable-background:new 0 0 140 120;" xml:space="preserve">
<g>
	<path d="M111.5,57C98.2,43.2,84.1,36.2,69.6,36.2c0,0,0,0,0,0c-19.7,0-35,12.9-42.3,20.5c-3.4,3.5-3.4,9,0.1,12.5
		c13.6,13.9,27.8,20.9,42.3,20.9c0.2,0,0.3,0,0.5,0c19.5-0.2,34.4-13.1,41.6-20.8C114.9,65.8,114.8,60.4,111.5,57z M108.7,66.6
		C102,73.8,88,85.9,70,86.1c-13.6,0.2-27-6.5-39.9-19.7c-1.9-1.9-1.9-5-0.1-6.9c6.9-7.2,21.3-19.3,39.5-19.3c0,0,0,0,0,0
		c13.4,0,26.5,6.6,39.1,19.6C110.5,61.7,110.5,64.7,108.7,66.6z"/>
	<path d="M69.3,45.6c-9.5,0-17.2,7.7-17.2,17.2S59.8,80,69.3,80s17.2-7.7,17.2-17.2S78.8,45.6,69.3,45.6z M69.3,76
		C62,76,56.1,70,56.1,62.8S62,49.6,69.3,49.6c7.3,0,13.2,5.9,13.2,13.2S76.6,76,69.3,76z"/>
</g>
</svg>
