<?xml version="1.0" encoding="utf-8"?>
<!-- Generator: Adobe Illustrator 19.1.0, SVG Export Plug-In . SVG Version: 6.00 Build 0)  -->
<svg version="1.1" id="Layer_1" xmlns="http://www.w3.org/2000/svg" xmlns:xlink="http://www.w3.org/1999/xlink" x="0px" y="0px"
	 viewBox="0 0 140 120" style="enable-background:new 0 0 140 120;" xml:space="preserve">
<path d="M112.2,50.1C98.8,36.3,84.7,29.3,70.2,29.3c0,0,0,0,0,0c-19.7,0-35,12.9-42.3,20.5c-3.4,3.5-3.4,9,0.1,12.5
	c13.6,13.9,27.8,20.9,42.3,20.9c0.2,0,0.3,0,0.5,0c19.5-0.2,34.4-13.1,41.6-20.8C115.5,59,115.5,53.5,112.2,50.1z M70,73.1
	c-9.5,0-17.2-7.7-17.2-17.2S60.5,38.7,70,38.7c9.5,0,17.2,7.7,17.2,17.2S79.4,73.1,70,73.1z"/>
</svg>
