<?xml version="1.0" encoding="utf-8"?>
<!-- Generator: Adobe Illustrator 19.1.0, SVG Export Plug-In . SVG Version: 6.00 Build 0)  -->
<svg version="1.1" id="Layer_1" xmlns="http://www.w3.org/2000/svg" xmlns:xlink="http://www.w3.org/1999/xlink" x="0px" y="0px"
	 viewBox="0 0 140 120" style="enable-background:new 0 0 140 120;" xml:space="preserve">
<path d="M111.4,55.2C98.1,41.4,84,34.5,69.5,34.5c0,0,0,0,0,0c-6.8,0-13,1.6-18.6,3.9L45,31.5c-0.7-0.8-2-0.9-2.8-0.2
	c-0.8,0.7-0.9,2-0.2,2.8l5,5.9C38.2,44.5,31.3,50.6,27.1,55c-3.4,3.5-3.4,9,0.1,12.5C40.7,81.4,55,88.4,69.4,88.4c0.2,0,0.3,0,0.5,0
	c5.6-0.1,10.8-1.2,15.6-2.9l7.9,9.3c0.4,0.5,1,0.7,1.5,0.7c0.5,0,0.9-0.2,1.3-0.5c0.8-0.7,0.9-2,0.2-2.8l-7-8.3
	c9.9-4.5,17.5-11.4,22.1-16.3C114.8,64.1,114.7,58.7,111.4,55.2z M69.9,84.4c-0.2,0-0.3,0-0.5,0c-13.4,0-26.6-6.6-39.4-19.7
	c-1.9-1.9-1.9-5-0.1-6.9c4.2-4.3,11-10.4,19.7-14.6l6.1,7.2C53.4,53.3,52,57,52,61.1c0,9.5,7.7,17.2,17.2,17.2c3,0,5.9-0.8,8.4-2.2
	l5.2,6.2C78.8,83.5,74.5,84.4,69.9,84.4z M78.2,70.6l-17-20.1c2.2-1.7,5-2.7,8-2.7c7.3,0,13.2,5.9,13.2,13.2
	C82.4,64.8,80.8,68.2,78.2,70.6z M74.9,72.9c-1.7,0.8-3.7,1.3-5.7,1.3c-7.3,0-13.2-5.9-13.2-13.2c0-2.8,0.9-5.4,2.4-7.6L74.9,72.9z
	 M108.6,64.9c-4.4,4.7-12,11.6-21.8,15.8l-6-7c3.4-3.1,5.6-7.6,5.6-12.6c0-9.5-7.7-17.2-17.2-17.2c-4,0-7.7,1.4-10.6,3.7l-5.1-6
	c4.8-1.9,10.2-3.1,15.9-3.1c0,0,0,0,0,0C82.8,38.5,96,45,108.5,58C110.4,59.9,110.4,63,108.6,64.9z"/>
</svg>
