<?xml version="1.0" encoding="utf-8"?>
<!-- Generator: Adobe Illustrator 19.1.0, SVG Export Plug-In . SVG Version: 6.00 Build 0)  -->
<svg version="1.1" id="Layer_1" xmlns="http://www.w3.org/2000/svg" xmlns:xlink="http://www.w3.org/1999/xlink" x="0px" y="0px"
	 viewBox="0 0 140 120" style="enable-background:new 0 0 140 120;" xml:space="preserve">
<path d="M69.4,10c-27.6,0-50,22.4-50,50c0,27.6,22.4,50,50,50c27.6,0,50-22.4,50-50C119.4,32.4,97.1,10,69.4,10z M80.1,60h-7
	c0,11.1,0,24.9,0,24.9H62.8c0,0,0-13.6,0-24.9h-4.9v-8.8h4.9v-5.7c0-4.1,1.9-10.4,10.4-10.4l7.6,0v8.5c0,0-4.7,0-5.6,0
	c-0.9,0-2.2,0.5-2.2,2.4v5.2H81L80.1,60z"/>
</svg>
