<?xml version="1.0" encoding="utf-8"?>
<!-- Generator: Adobe Illustrator 19.1.0, SVG Export Plug-In . SVG Version: 6.00 Build 0)  -->
<svg version="1.1" id="Layer_1" xmlns="http://www.w3.org/2000/svg" xmlns:xlink="http://www.w3.org/1999/xlink" x="0px" y="0px"
	 viewBox="0 0 140 120" style="enable-background:new 0 0 140 120;" xml:space="preserve">
<g>
	<path d="M105.9,24.5L93.5,12.2c-2.1-2.1-4.9-3.2-7.8-3.2H41.2c-6.1,0-11.1,5-11.1,11.1v81.8c0,6.1,5,11.1,11.1,11.1h56.9
		c6.1,0,11.1-5,11.1-11.1V32.4C109.2,29.5,108,26.6,105.9,24.5z M105.2,101.9c0,3.9-3.2,7.1-7.1,7.1H41.2c-3.9,0-7.1-3.2-7.1-7.1
		V20.1c0-3.9,3.2-7.1,7.1-7.1h44.4c0.8,0,1.5,0.1,2.2,0.4v16.8l17,0c0.2,0.7,0.4,1.5,0.4,2.3V101.9z"/>
	<path d="M93.2,56.3H43.9c-1.1,0-2,0.9-2,2s0.9,2,2,2h49.3c1.1,0,2-0.9,2-2S94.4,56.3,93.2,56.3z"/>
	<path d="M93.2,72.1H43.9c-1.1,0-2,0.9-2,2s0.9,2,2,2h49.3c1.1,0,2-0.9,2-2S94.4,72.1,93.2,72.1z"/>
	<path d="M93.2,88H43.9c-1.1,0-2,0.9-2,2s0.9,2,2,2h49.3c1.1,0,2-0.9,2-2S94.4,88,93.2,88z"/>
</g>
</svg>
