<?xml version="1.0" encoding="utf-8"?>
<!-- Generator: Adobe Illustrator 19.1.0, SVG Export Plug-In . SVG Version: 6.00 Build 0)  -->
<svg version="1.1" id="Layer_1" xmlns="http://www.w3.org/2000/svg" xmlns:xlink="http://www.w3.org/1999/xlink" x="0px" y="0px"
	 viewBox="0 0 140 120" style="enable-background:new 0 0 140 120;" xml:space="preserve">
<path d="M116.4,42c-1.3-1.6-3.2-2.4-5.4-2.4l-2.7,0v-7.2c0-4.5-3.6-8.1-8.1-8.1H53.7l-1.2-2.1c-2-4.3-7.2-4.6-7.5-4.6H27.9
	c-2.8,0-4.4,1.1-5.3,2.1c-1.9,2-1.7,4.7-1.6,4.8v71.4c0,1,0.2,2,0.6,3c0.2,1.1,0.7,2.1,1.4,2.9c1.3,1.6,3.2,2.4,5.4,2.4l70.5,0
	c0,0,0,0,0,0c4.3,0,8.3-3.4,9.2-7.7l9.8-48.4C118.2,45.8,117.7,43.6,116.4,42z M25.6,22.3c0.4-0.5,1.2-0.7,2.3-0.7l17.1,0
	c0,0,2.9,0.2,4,2.4l1.8,3.3c0.3,0.6,1,1,1.8,1h47.8c2.2,0,4.1,1.8,4.1,4.1v7.2l-63.8,0c0,0,0,0,0,0c-4.3,0-8.3,3.4-9.2,7.7L25,78.7
	l0-54.4C25,24.2,24.9,23,25.6,22.3z M113.8,47.3l-9.8,48.4c-0.4,1.9-2,3.6-3.7,4.2c0,0-0.1,0-0.1,0H29.1c-1.6,0-3-0.9-3.6-2.3
	c0-0.4,0-0.8,0.1-1.2L35.2,48c0.5-2.5,2.9-4.5,5.3-4.5c0,0,0,0,0,0l70.5,0c1,0,1.8,0.3,2.3,1C113.9,45.2,114.1,46.2,113.8,47.3z"/>
</svg>
