<?xml version="1.0" encoding="utf-8"?>
<!-- Generator: Adobe Illustrator 19.1.0, SVG Export Plug-In . SVG Version: 6.00 Build 0)  -->
<svg version="1.1" id="Layer_1" xmlns="http://www.w3.org/2000/svg" xmlns:xlink="http://www.w3.org/1999/xlink" x="0px" y="0px"
	 viewBox="0 0 140 120" style="enable-background:new 0 0 140 120;" xml:space="preserve">
<g>
	<path d="M69.1,44.2C68.3,38,63.8,33,59.1,32.8c-4.7-0.1-7.9,4.6-7.1,10.9C52.8,50,57.3,55.1,62,55.3C66.8,55.4,69.9,50.5,69.1,44.2
		z"/>
	<path d="M66,68.1c-1.4-0.5-2.9-0.7-4.6-0.7C54.3,67.3,48,71.7,48,77c0,5.4,5.1,9.9,12.2,9.9c9.9,0,13.4-4.2,13.4-9.6
		c0-0.6-0.1-1.3-0.2-1.9C72.6,72.3,69.8,70.8,66,68.1z"/>
	<path d="M70,10c-27.6,0-50,22.4-50,50s22.4,50,50,50s50-22.4,50-50S97.6,10,70,10z M60.2,89.8c-10.2,0-18.8-4.2-18.8-10.8
		c0-6.8,7.9-13.3,18.1-13.3c1.1,0,2.1,0,3.2,0c-1.4-1.4-2.5-3-2.5-5.1c0-1.2,0.4-2.4,0.9-3.4c-0.6,0-1.1,0-1.7,0
		c-8.4,0-14-6-14-13.4c0-7.2,7.8-13.5,16-13.5h18.4l-4.1,3h-5.8c3.9,1.5,5.9,6,5.9,10.6c0,3.9-2.2,7.2-5.2,9.6
		c-3,2.3-3.5,3.3-3.5,5.3c0,1.7,3.2,4.6,4.8,5.7c4.9,3.4,6.4,6.6,6.4,12C78.3,83.1,71.9,89.8,60.2,89.8z M98.6,61.6h-7.2v7.2h-5.8
		v-7.2h-7.2v-5.8h7.2v-7.2h5.8v7.2h7.2V61.6z"/>
</g>
</svg>
