<?xml version="1.0" encoding="utf-8"?>
<!-- Generator: Adobe Illustrator 19.1.0, SVG Export Plug-In . SVG Version: 6.00 Build 0)  -->
<svg version="1.1" id="Layer_1" xmlns="http://www.w3.org/2000/svg" xmlns:xlink="http://www.w3.org/1999/xlink" x="0px" y="0px"
	 viewBox="0 0 140 120" style="enable-background:new 0 0 140 120;" xml:space="preserve">
<path d="M100.1,51.3l-2.9-0.9c-0.4-0.1-1-0.7-1.2-1.2l-0.8-2c-0.2-0.4-0.1-1.2,0.1-1.6l1.5-2.5c1-1.7,0.7-4-0.6-5.5l-7.1-7.3
	c-1.4-1.4-3.7-1.8-5.4-0.8l-2.5,1.3c-0.4,0.2-1.2,0.2-1.7,0l-2.5-1.1c-0.4-0.1-1-0.8-1.1-1.2l-0.8-3c-0.5-1.9-2.3-3.4-4.3-3.4
	l-10.2-0.2c-1.9-0.1-3.9,1.4-4.4,3.2l-0.9,3c-0.1,0.4-0.7,1-1.2,1.2l-2.7,1.1c-0.4,0.2-1.2,0.1-1.5-0.1l-2.3-1.3
	c-1.7-1-4-0.7-5.5,0.6L35,36.6c-1.4,1.4-1.8,3.7-0.8,5.4l1.4,2.6c0.2,0.4,0.2,1.2,0,1.6c-0.4,0.9-1.6,2.6-2.2,3l-2.7,0.7
	c-1.9,0.5-3.4,2.3-3.4,4.3l-0.2,10.2c0,2,1.4,3.9,3.2,4.4l2.9,0.9c0.4,0.1,1,0.7,1.2,1.2l0.9,2.2c0.2,0.4,0.1,1.2-0.1,1.6L33.8,77
	c-1,1.7-0.7,4,0.6,5.5l7.1,7.3c1.4,1.4,3.7,1.8,5.4,0.8l2.3-1.2c0.4-0.2,1.2-0.2,1.7,0l2.5,1.1c0.4,0.1,1,0.8,1.1,1.2l0.7,2.8
	c0.5,1.9,2.3,3.4,4.3,3.4l10.2,0.2c0,0,0.1,0,0.1,0c1.9,0,3.8-1.4,4.4-3.2l0.8-2.8c0.1-0.4,0.7-1,1.2-1.2l2.3-0.9
	c0.4-0.2,1.2-0.1,1.6,0.1l2.3,1.4c1.7,1,4,0.7,5.5-0.6l7.3-7.1c1.4-1.4,1.8-3.7,0.8-5.4L94.6,76c-0.2-0.4-0.2-1.2,0-1.7l1-2.3
	c0.1-0.4,0.8-0.9,1.2-1l2.9-0.7c1.9-0.5,3.4-2.3,3.4-4.3l0.2-10.2C103.4,53.8,102,51.9,100.1,51.3z M77.1,72.4
	c-3.3,3.2-7.7,4.9-12.2,4.8c-4.6-0.1-8.9-2-12-5.3c-3.2-3.3-4.9-7.6-4.8-12.2c0.1-4.6,2-8.9,5.3-12c3.3-3.2,7.6-4.9,12.2-4.8
	c9.5,0.2,17,8,16.8,17.5C82.3,64.9,80.4,69.2,77.1,72.4z"/>
</svg>
