<?xml version="1.0" encoding="utf-8"?>
<!-- Generator: Adobe Illustrator 19.1.0, SVG Export Plug-In . SVG Version: 6.00 Build 0)  -->
<svg version="1.1" id="Layer_1" xmlns="http://www.w3.org/2000/svg" xmlns:xlink="http://www.w3.org/1999/xlink" x="0px" y="0px"
	 viewBox="0 0 140 120" style="enable-background:new 0 0 140 120;" xml:space="preserve">
<g>
	<path d="M104.4,52.2l-2.9-0.9c-0.4-0.1-1-0.7-1.2-1.2l-0.8-2c-0.2-0.4-0.1-1.2,0.1-1.6l1.5-2.5c1-1.7,0.7-4-0.6-5.5l-7.1-7.3
		c-1.4-1.4-3.7-1.8-5.4-0.8l-2.5,1.3c-0.4,0.2-1.2,0.2-1.7,0l-2.5-1.1c-0.4-0.1-1-0.8-1.1-1.2l-0.8-3c-0.5-1.9-2.3-3.4-4.3-3.4
		l-10.2-0.2c-1.9-0.1-3.9,1.4-4.4,3.2l-0.9,3c-0.1,0.4-0.7,1-1.2,1.2L56,31.2c-0.4,0.2-1.2,0.1-1.5-0.1l-2.3-1.3
		c-1.7-1-4-0.7-5.5,0.6l-7.3,7.1c-1.4,1.4-1.8,3.7-0.8,5.4l1.4,2.6c0.2,0.4,0.2,1.2,0,1.6c-0.4,0.9-1.6,2.6-2.2,3L35,50.8
		c-1.9,0.5-3.4,2.3-3.4,4.3l-0.2,10.2c0,2,1.4,3.9,3.2,4.4l2.9,0.9c0.4,0.1,1,0.7,1.2,1.2l0.9,2.2c0.2,0.4,0.1,1.2-0.1,1.6l-1.4,2.3
		c-1,1.7-0.7,4,0.6,5.5l7.1,7.3c1.4,1.4,3.7,1.8,5.4,0.8l2.3-1.2c0.4-0.2,1.2-0.2,1.7,0l2.5,1.1c0.4,0.1,1,0.8,1.1,1.2l0.7,2.8
		c0.5,1.9,2.3,3.4,4.3,3.4L73.9,99c0,0,0.1,0,0.1,0c1.9,0,3.8-1.4,4.4-3.2l0.8-2.8c0.1-0.4,0.7-1,1.2-1.2l2.3-0.9
		c0.4-0.2,1.2-0.1,1.6,0.1l2.3,1.4c1.7,1,4,0.7,5.5-0.6l7.3-7.1c1.4-1.4,1.8-3.7,0.8-5.4l-1.3-2.4c-0.2-0.4-0.2-1.2,0-1.7l1-2.3
		c0.1-0.4,0.8-0.9,1.2-1l2.9-0.7c1.9-0.5,3.4-2.3,3.4-4.3l0.2-10.2C107.7,54.6,106.3,52.7,104.4,52.2z M103.7,56.5l-0.2,10.2
		c0,0.2-0.2,0.5-0.4,0.5l-2.9,0.7c-1.7,0.4-3.3,1.9-3.9,3.4l-0.9,2.1c-0.8,1.5-0.7,3.8,0.1,5.3l1.3,2.4c0.1,0.1,0,0.5-0.1,0.6
		l-7.3,7.1c-0.1,0.1-0.5,0.2-0.6,0.1l-2.3-1.4c-1.5-0.9-3.7-1-5.2-0.3L79,88c-1.6,0.5-3.2,2.1-3.7,3.8l-0.8,2.8
		c0,0.2-0.4,0.4-0.5,0.4l-10.2-0.2c-0.2,0-0.5-0.2-0.5-0.4l-0.7-2.8c-0.4-1.7-1.9-3.3-3.4-3.9l-2.3-1c-0.7-0.4-1.7-0.6-2.6-0.6
		c-1,0-1.9,0.2-2.7,0.6l-2.3,1.2c-0.1,0.1-0.5,0-0.6-0.1l-7.1-7.3c-0.1-0.1-0.2-0.5-0.1-0.6l1.4-2.3c0.9-1.5,1-3.7,0.3-5.2l-0.8-2
		c-0.5-1.6-2.1-3.2-3.8-3.7l-2.9-0.9c-0.2,0-0.4-0.4-0.4-0.5l0.2-10.2c0-0.2,0.2-0.5,0.4-0.5l2.9-0.7c2.3-0.6,4.6-5.1,4.6-5.1
		c0.8-1.5,0.7-3.7-0.1-5.3L42,41c-0.1-0.1,0-0.5,0.1-0.6l7.3-7.1c0.1-0.1,0.5-0.2,0.6-0.1l2.3,1.3c1.5,0.9,3.7,1,5.2,0.3l2.5-1
		c1.6-0.6,3.2-2.1,3.6-3.8l0.9-3c0-0.2,0.3-0.4,0.5-0.4L75.3,27c0.2,0,0.5,0.2,0.5,0.4l0.8,3c0.4,1.7,1.9,3.3,3.4,3.9l2.3,1
		c1.5,0.8,3.8,0.8,5.3-0.1l2.5-1.3c0.1-0.1,0.5,0,0.6,0.1l7.1,7.3c0.1,0.1,0.2,0.5,0.1,0.6l-1.5,2.5c-0.9,1.5-1,3.7-0.4,5.2l0.7,1.9
		c0.5,1.6,2.1,3.2,3.8,3.7l2.9,0.9l0.6-1.9l-0.6,1.9C103.4,56.1,103.7,56.4,103.7,56.5z"/>
	<path d="M69.9,41.9c-5.1-0.1-9.9,1.8-13.6,5.3c-3.7,3.5-5.7,8.3-5.8,13.3C50.3,71,58.7,79.7,69.2,79.9c0.1,0,0.3,0,0.4,0
		c4.9,0,9.6-1.9,13.2-5.3c3.7-3.5,5.7-8.3,5.8-13.3C88.8,50.8,80.4,42.1,69.9,41.9z M79.9,71.7c-2.9,2.8-6.7,4.3-10.7,4.2
		c-4-0.1-7.7-1.7-10.5-4.6c-2.8-2.9-4.3-6.7-4.2-10.7c0.1-4,1.7-7.7,4.6-10.5c2.9-2.8,6.6-4.3,10.7-4.2c8.3,0.2,14.9,7,14.7,15.3
		C84.5,65.2,82.8,68.9,79.9,71.7z"/>
</g>
</svg>
