<?xml version="1.0" encoding="utf-8"?>
<!-- Generator: Adobe Illustrator 19.1.0, SVG Export Plug-In . SVG Version: 6.00 Build 0)  -->
<svg version="1.1" id="Layer_1" xmlns="http://www.w3.org/2000/svg" xmlns:xlink="http://www.w3.org/1999/xlink" x="0px" y="0px"
	 viewBox="0 0 140 120" style="enable-background:new 0 0 140 120;" xml:space="preserve">
<g>
	<path d="M37.5,78c5.9,0,10.6-4.8,10.6-10.6c0-5.9-4.8-10.6-10.6-10.6c-5.8,0-10.6,4.8-10.6,10.6C26.9,73.3,31.7,78,37.5,78z
		 M37.5,60.8c3.6,0,6.6,3,6.6,6.6s-3,6.6-6.6,6.6s-6.6-3-6.6-6.6S33.9,60.8,37.5,60.8z"/>
	<path d="M44.5,80.5h-14c-5.6,0-10.1,4.5-10.1,10.1v3.7c0,1.1,0.9,2,2,2h30.2c1.1,0,2-0.9,2-2v-3.7C54.6,85,50.1,80.5,44.5,80.5z
		 M50.6,92.2H24.4v-1.7c0-3.4,2.7-6.1,6.1-6.1h14c3.4,0,6.1,2.7,6.1,6.1V92.2z"/>
	<path d="M69.4,39.6C75.3,39.6,80,34.8,80,29c0-5.8-4.8-10.6-10.6-10.6c-5.9,0-10.6,4.8-10.6,10.6C58.8,34.8,63.5,39.6,69.4,39.6z
		 M69.4,22.4c3.6,0,6.6,3,6.6,6.6s-3,6.6-6.6,6.6s-6.6-3-6.6-6.6S65.8,22.4,69.4,22.4z"/>
	<path d="M52.3,55.8c0,1.1,0.9,2,2,2h30.2c1.1,0,2-0.9,2-2v-3.7C86.5,46.5,82,42,76.4,42h-14c-5.6,0-10.1,4.5-10.1,10.1V55.8z
		 M56.3,52.1c0-3.4,2.7-6.1,6.1-6.1h14c3.4,0,6.1,2.7,6.1,6.1v1.7H56.3V52.1z"/>
	<path d="M90.9,67.4c0,5.8,4.8,10.6,10.6,10.6c5.9,0,10.6-4.8,10.6-10.6c0-5.9-4.8-10.6-10.6-10.6C95.7,56.8,90.9,61.6,90.9,67.4z
		 M108.2,67.4c0,3.6-3,6.6-6.6,6.6c-3.6,0-6.6-3-6.6-6.6s3-6.6,6.6-6.6C105.2,60.8,108.2,63.8,108.2,67.4z"/>
	<path d="M108.6,80.5h-14c-5.6,0-10.1,4.5-10.1,10.1v3.7c0,1.1,0.9,2,2,2h30.2c1.1,0,2-0.9,2-2v-3.7C118.6,85,114.1,80.5,108.6,80.5
		z M114.6,92.2H88.5v-1.7c0-3.4,2.7-6.1,6.1-6.1h14c3.4,0,6.1,2.7,6.1,6.1V92.2z"/>
	<path d="M37.5,52.5c0.2,0.1,0.5,0.1,0.8,0.1c0.8,0,1.5-0.5,1.9-1.2c0.5-1.3,1.2-2.6,1.9-3.7c2.3-3.6,5.6-6.5,9.4-8.4
		c1-0.5,1.4-1.7,0.9-2.7c-0.5-1-1.7-1.4-2.7-0.9c-4.5,2.2-8.4,5.6-11.1,9.8c-0.9,1.4-1.7,2.9-2.3,4.4C36,50.9,36.5,52.1,37.5,52.5z"
		/>
	<path d="M89.2,39.3c3.9,1.9,7.1,4.8,9.4,8.4c0.8,1.2,1.4,2.4,1.9,3.7c0.3,0.8,1.1,1.2,1.9,1.2c0.3,0,0.5,0,0.8-0.1
		c1-0.4,1.5-1.6,1.1-2.6c-0.6-1.5-1.4-3-2.3-4.4c-2.7-4.2-6.5-7.7-11.1-9.8c-1-0.5-2.2-0.1-2.7,0.9C87.8,37.6,88.2,38.8,89.2,39.3z"
		/>
	<path d="M77.7,97.4c-1.3,0.5-2.7,0.9-4,1.2c-4.2,0.8-8.6,0.5-12.6-1c-1-0.4-2.2,0.1-2.6,1.2c-0.4,1,0.1,2.2,1.2,2.6
		c3.1,1.1,6.3,1.7,9.5,1.7c1.8,0,3.5-0.2,5.3-0.5c1.6-0.3,3.2-0.8,4.7-1.4c1-0.4,1.5-1.6,1.1-2.6C79.9,97.5,78.7,97,77.7,97.4z"/>
</g>
</svg>
