<?xml version="1.0" encoding="utf-8"?>
<!-- Generator: Adobe Illustrator 19.1.0, SVG Export Plug-In . SVG Version: 6.00 Build 0)  -->
<svg version="1.1" id="Layer_1" xmlns="http://www.w3.org/2000/svg" xmlns:xlink="http://www.w3.org/1999/xlink" x="0px" y="0px"
	 viewBox="0 0 140 120" style="enable-background:new 0 0 140 120;" xml:space="preserve">
<g>
	<path d="M51.4,47.5h37.2c1.7,0,3-1.3,3-3c0-1.7-1.3-3-3-3H51.4c-1.7,0-3,1.3-3,3C48.4,46.2,49.8,47.5,51.4,47.5z"/>
	<path d="M88.6,59.3H51.4c-1.7,0-3,1.3-3,3c0,1.7,1.3,3,3,3h37.2c1.7,0,3-1.3,3-3C91.6,60.6,90.2,59.3,88.6,59.3z"/>
	<path d="M88.6,77H51.4c-1.7,0-3,1.3-3,3s1.3,3,3,3h37.2c1.7,0,3-1.3,3-3S90.2,77,88.6,77z"/>
</g>
</svg>
