<?xml version="1.0" encoding="utf-8"?>
<!-- Generator: Adobe Illustrator 19.1.0, SVG Export Plug-In . SVG Version: 6.00 Build 0)  -->
<svg version="1.1" id="Layer_1" xmlns="http://www.w3.org/2000/svg" xmlns:xlink="http://www.w3.org/1999/xlink" x="0px" y="0px"
	 viewBox="0 0 140 120" style="enable-background:new 0 0 140 120;" xml:space="preserve">
<g>
	<path d="M103.7,65c-1.1,0-2,0.9-2,2v22c0,1.6-1.3,3-3,3h-59c-1.6,0-3-1.3-3-3V67c0-1.1-0.9-2-2-2s-2,0.9-2,2v22c0,3.9,3.1,7,7,7h59
		c3.8,0,7-3.1,7-7V67C105.7,65.9,104.8,65,103.7,65z"/>
	<path d="M55.3,52.2c0.9,0.6,2.2,0.3,2.8-0.6L67,37.4v43.1c0,1.1,0.9,2,2,2s2-0.9,2-2V37.4l8.9,14.1c0.4,0.6,1,0.9,1.7,0.9
		c0.4,0,0.7-0.1,1.1-0.3c0.9-0.6,1.2-1.8,0.6-2.8l-12.6-20c-0.7-1.2-2.7-1.2-3.4,0l-12.6,20C54.1,50.4,54.4,51.6,55.3,52.2z"/>
</g>
</svg>
