<?xml version="1.0" encoding="utf-8"?>
<!-- Generator: Adobe Illustrator 19.1.0, SVG Export Plug-In . SVG Version: 6.00 Build 0)  -->
<svg version="1.1" id="Layer_1" xmlns="http://www.w3.org/2000/svg" xmlns:xlink="http://www.w3.org/1999/xlink" x="0px" y="0px"
	 viewBox="0 0 140 120" style="enable-background:new 0 0 140 120;" xml:space="preserve">
<g>
	<path d="M127.4,39.8H71v-3.6c0,0,0-4.1,3.1-7.3c2.6-2.6,6.6-3.9,11.8-3.9c5.6,0,10.3-0.9,14-2.8c1-0.5,1.4-1.7,0.9-2.7
		c-0.5-1-1.7-1.4-2.7-0.9c-3.1,1.6-7.2,2.4-12.2,2.4c-6.4,0-11.3,1.7-14.7,5.1C66.9,30.5,67,36,67,36.2v3.6H12.6c-4.4,0-8,3.6-8,8
		v45.9c0,4.4,3.6,8,8,8h114.7c4.4,0,8-3.6,8-8V47.8C135.3,43.4,131.7,39.8,127.4,39.8z M131.3,93.7c0,2.2-1.8,4-4,4H12.6
		c-2.2,0-4-1.8-4-4V47.8c0-2.2,1.8-4,4-4h114.7c2.2,0,4,1.8,4,4V93.7z"/>
	<path d="M101.5,83.1h-62c-1.7,0-3,1.3-3,3c0,1.7,1.3,3,3,3h62c1.7,0,3-1.3,3-3C104.5,84.4,103.2,83.1,101.5,83.1z"/>
	<path d="M47.6,53.9C47.4,53.5,47.2,53.1,47.6,53.9L47.6,53.9z"/>
	<rect x="18.8" y="54.7" width="6.7" height="6.7"/>
	<rect x="18.8" y="66.2" width="6.7" height="6.7"/>
	<rect x="34.7" y="54.7" width="6.7" height="6.7"/>
	<rect x="34.7" y="66.2" width="6.7" height="6.7"/>
	<rect x="50.6" y="54.7" width="6.7" height="6.7"/>
	<rect x="50.6" y="66.2" width="6.7" height="6.7"/>
	<rect x="66.5" y="54.7" width="6.7" height="6.7"/>
	<rect x="66.5" y="66.2" width="6.7" height="6.7"/>
	<rect x="82.4" y="54.7" width="6.7" height="6.7"/>
	<rect x="82.4" y="66.2" width="6.7" height="6.7"/>
	<rect x="98.3" y="54.7" width="6.7" height="6.7"/>
	<rect x="98.3" y="66.2" width="6.7" height="6.7"/>
	<rect x="114.1" y="54.7" width="6.7" height="6.7"/>
	<rect x="114.1" y="66.2" width="6.7" height="6.7"/>
</g>
</svg>
