<?xml version="1.0" encoding="utf-8"?>
<!-- Generator: Adobe Illustrator 19.1.0, SVG Export Plug-In . SVG Version: 6.00 Build 0)  -->
<svg version="1.1" id="Layer_1" xmlns="http://www.w3.org/2000/svg" xmlns:xlink="http://www.w3.org/1999/xlink" x="0px" y="0px"
	 viewBox="0 0 140 120" style="enable-background:new 0 0 140 120;" xml:space="preserve">
<path d="M69.4,10c-27.6,0-50,22.4-50,50c0,27.6,22.4,50,50,50c27.6,0,50-22.4,50-50C119.4,32.4,97,10,69.4,10z M56.1,81.8h-9.2V52.2
	h9.2V81.8z M51.2,48.5L51.2,48.5c-3.4,0-5.6-2.3-5.6-5.1c0-2.9,2.2-5.1,5.6-5.1c3.4,0,5.5,2.2,5.6,5.1
	C56.9,46.2,54.7,48.5,51.2,48.5z M93,81.8H82.6V66.5c0-4-1.6-6.7-5.2-6.7c-2.8,0-4.3,1.8-5,3.6c-0.3,0.6-0.2,1.5-0.2,2.4v16H61.7
	c0,0,0.1-27.1,0-29.6h10.4v4.6c0.6-2,3.9-4.9,9.2-4.9c6.6,0,11.7,4.3,11.7,13.4V81.8z"/>
</svg>
