<?xml version="1.0" encoding="utf-8"?>
<!-- Generator: Adobe Illustrator 19.1.0, SVG Export Plug-In . SVG Version: 6.00 Build 0)  -->
<svg version="1.1" id="Layer_1" xmlns="http://www.w3.org/2000/svg" xmlns:xlink="http://www.w3.org/1999/xlink" x="0px" y="0px"
	 viewBox="0 0 140 120" style="enable-background:new 0 0 140 120;" xml:space="preserve">
<g>
	<path d="M75.3,67.2c0-3.1-2.5-5.6-5.6-5.6c-3.1,0-5.6,2.5-5.6,5.6c0,2.3,1.4,4.3,3.5,5.2l-2.1,14.5h8.4l-2.1-14.5
		C73.9,71.5,75.3,69.5,75.3,67.2z"/>
	<path d="M91.8,50.1h-1.6v-7.9c0-7.8-6.2-14.2-13.8-14.2H63.1c-7.6,0-13.8,6.4-13.8,14.2v7.9h-1.6c-4.7,0-8.5,3.8-8.5,8.5v31.1
		c0,4.7,3.8,8.5,8.5,8.5h44.2c4.7,0,8.5-3.8,8.5-8.5V58.6C100.3,53.9,96.5,50.1,91.8,50.1z M55.3,42.2c0-4.5,3.5-8.2,7.8-8.2h13.3
		c4.3,0,7.8,3.7,7.8,8.2v7.9H55.3V42.2z M96.3,89.8c0,2.5-2,4.5-4.5,4.5H47.6c-2.5,0-4.5-2-4.5-4.5V58.6c0-2.5,2-4.5,4.5-4.5h44.2
		c2.5,0,4.5,2,4.5,4.5V89.8z"/>
</g>
</svg>
