<?xml version="1.0" encoding="utf-8"?>
<!-- Generator: Adobe Illustrator 19.1.0, SVG Export Plug-In . SVG Version: 6.00 Build 0)  -->
<svg version="1.1" id="Layer_1" xmlns="http://www.w3.org/2000/svg" xmlns:xlink="http://www.w3.org/1999/xlink" x="0px" y="0px"
	 viewBox="0 0 140 120" style="enable-background:new 0 0 140 120;" xml:space="preserve">
<g>
	<path d="M91.7,48.1c2.3,0,4.3,0.8,6,2.4c1.7,1.6,2.5,3.6,2.5,6v31c0,2.3-0.8,4.3-2.5,6c-1.7,1.7-3.6,2.5-6,2.5h-44
		c-2.3,0-4.3-0.8-6-2.5c-1.7-1.7-2.5-3.6-2.5-6v-31c0-2.3,0.8-4.3,2.5-6s3.6-2.5,6-2.5h1.6v-7.8c0-0.1,0-0.1,0-0.2
		c0-3.8,1.3-7.1,4-9.8s5.9-4.1,9.7-4.1h13.2c3.8,0.1,7,1.4,9.7,4.1c2.7,2.7,4,6,4,9.8c0,0.1,0,0.1,0,0.2v7.9H91.7z M55.3,48h28.8
		v-7.8c0-0.1,0-0.1,0-0.2c0-2.2-0.8-4-2.3-5.6s-3.4-2.4-5.5-2.4H63.1c-2.1,0-3.9,0.8-5.4,2.4s-2.3,3.4-2.3,5.6c0,0.1,0,0.1,0,0.2V48
		z"/>
</g>
</svg>
