<?xml version="1.0" encoding="utf-8"?>
<!-- Generator: Adobe Illustrator 19.1.0, SVG Export Plug-In . SVG Version: 6.00 Build 0)  -->
<svg version="1.1" id="Layer_1" xmlns="http://www.w3.org/2000/svg" xmlns:xlink="http://www.w3.org/1999/xlink" x="0px" y="0px"
	 viewBox="0 0 140 120" style="enable-background:new 0 0 140 120;" xml:space="preserve">
<g>
	<path d="M107.6,38.9L85.9,62.3l21.6,23.4c0.4-0.7,0.6-1.5,0.6-2.4V41.3C108.2,40.5,107.9,39.7,107.6,38.9z"/>
	<path d="M61.6,58.9C61.6,58.9,61.6,58.9,61.6,58.9C61.6,58.9,61.6,58.9,61.6,58.9C61.6,58.9,61.6,58.9,61.6,58.9
		c3.7,4.1,6.4,5.8,8.9,5.8c2.6-0.1,5.6-1.9,9.2-5.8l22.7-24.5c-0.5-0.1-0.9-0.2-1.4-0.2H39c-0.9,0-1.7,0.3-2.5,0.7
		C42,40,59.4,56.5,61.6,58.9z"/>
	<path d="M32,40c-0.1,0.4-0.2,0.9-0.2,1.3v41.9c0,0.7,0.1,1.4,0.4,2l23.1-22.9C51.2,58.2,39.6,47.2,32,40z"/>
	<path d="M70.5,70.7C70.5,70.7,70.5,70.7,70.5,70.7c-4.1,0-7.5-2.6-10.4-5.5L37.1,88c0.6,0.2,1.2,0.4,1.9,0.4h62
		c0.5,0,1-0.1,1.4-0.2l-21.3-23C77.3,68.9,73.9,70.7,70.5,70.7z"/>
</g>
</svg>
