<?xml version="1.0" encoding="utf-8"?>
<!-- Generator: Adobe Illustrator 19.1.0, SVG Export Plug-In . SVG Version: 6.00 Build 0)  -->
<svg version="1.1" id="Layer_1" xmlns="http://www.w3.org/2000/svg" xmlns:xlink="http://www.w3.org/1999/xlink" x="0px" y="0px"
	 viewBox="0 0 140 120" style="enable-background:new 0 0 140 120;" xml:space="preserve">
<path d="M106.9,33.1c0,0,0-0.1-0.1-0.1c-0.1-0.1-0.2-0.1-0.2-0.1c-1.6-1.3-3.6-2.1-5.8-2.1h-62c-2.7,0-5.1,1.2-6.8,3.1
	c0,0-0.1,0.1-0.1,0.1c-0.1,0.1-0.1,0.2-0.2,0.3c-1.3,1.6-2,3.5-2,5.7v41.9c0,5.1,4.1,9.2,9.2,9.2h62c2.2,0,4.2-0.8,5.8-2.1
	c0.1-0.1,0.2-0.1,0.2-0.2c0,0,0.1-0.1,0.1-0.1c1.9-1.7,3.1-4.1,3.1-6.8V39.9C110,37.2,108.8,34.8,106.9,33.1z M83.7,60.9l21.6-23.4
	c0.4,0.7,0.6,1.5,0.6,2.4v41.9c0,0.9-0.2,1.7-0.6,2.4L83.7,60.9z M100.8,34.8c0.5,0,1,0.1,1.4,0.2L79.5,59.5
	c-3.6,3.9-6.6,5.7-9.2,5.8c-2.6,0-5.2-1.7-8.9-5.7c0,0,0,0-0.1-0.1c0,0,0,0,0,0c0,0,0,0,0,0c-2.2-2.4-19.6-18.8-25.1-24
	c0.7-0.4,1.6-0.7,2.5-0.7H100.8z M34,83.8c-0.3-0.6-0.4-1.3-0.4-2V39.9c0-0.5,0.1-0.9,0.2-1.3c7.6,7.2,19.2,18.2,23.3,22.3L34,83.8z
	 M38.8,87c-0.7,0-1.3-0.1-1.9-0.4l23.1-22.9c2.9,2.9,6.3,5.5,10.4,5.5c0,0,0,0,0,0c3.4,0,6.8-1.8,10.6-5.5l21.3,23
	c-0.5,0.1-0.9,0.2-1.4,0.2H38.8z"/>
</svg>
