<?xml version="1.0" encoding="utf-8"?>
<!-- Generator: Adobe Illustrator 19.1.0, SVG Export Plug-In . SVG Version: 6.00 Build 0)  -->
<svg version="1.1" id="Layer_1" xmlns="http://www.w3.org/2000/svg" xmlns:xlink="http://www.w3.org/1999/xlink" x="0px" y="0px"
	 viewBox="0 0 140 120" style="enable-background:new 0 0 140 120;" xml:space="preserve">
<path d="M69.5,10c-27.6,0-50,22.4-50,50c0,27.6,22.4,50,50,50s50-22.4,50-50C119.5,32.4,97.2,10,69.5,10z M93.4,42L69.6,62.1
	L45.7,42H93.4z M43.9,44.9L59.4,58L43.9,76.4V44.9z M47,78l15-17.7l7,5.8c0.3,0.3,0.8,0.3,1.1,0l7-5.9l15,17.8H47z M95.1,76.4
	L79.7,58l15.4-13.1V76.4z"/>
</svg>
