<?xml version="1.0" encoding="utf-8"?>
<!-- Generator: Adobe Illustrator 19.1.0, SVG Export Plug-In . SVG Version: 6.00 Build 0)  -->
<svg version="1.1" id="Layer_1" xmlns="http://www.w3.org/2000/svg" xmlns:xlink="http://www.w3.org/1999/xlink" x="0px" y="0px"
	 viewBox="0 0 140 120" style="enable-background:new 0 0 140 120;" xml:space="preserve">
<g>
	<path d="M17.2,87.4h5.5V84h-5.5c-0.9,0-1.6-0.7-1.6-1.6V37.1H54v-3.4H32.1V20.6h-3.4v13.2H15.5V8.5c0-0.9,0.7-1.6,1.6-1.6h28.1
		v10.1h22.3v38.7H71V37.1h25.7v-3.4H71V13.5H48.7V6.9h47.8c0.9,0,1.6,0.7,1.6,1.6v8.7c0,0.9-0.7,1.6-1.6,1.6h-8.1v3.4h8.1
		c2.8,0,5-2.3,5-5V8.5c0-2.8-2.3-5-5-5H17.2c-2.8,0-5,2.3-5,5v73.8C12.1,85.1,14.4,87.4,17.2,87.4z"/>
	<path d="M121.4,3.5h-9.6c-2.7,0-4.9,2.2-4.9,4.9v5.3h3.4V8.4c0-0.8,0.7-1.5,1.5-1.5h9.6c0.8,0,1.5,0.7,1.5,1.5v17.9h-15.4v3.4H123
		v44.9h-9.5V44.1H110v34h13v27.3H95.8v-8.6h14.9v-3.4H95.8V74.6H78.1v3.4h14.3v30.7H123v4.8c0,0.8-0.7,1.5-1.5,1.5H29.5v-6.3h50.3
		V85.7h-3.4v19.7H62.2V85.7h-3.4v19.7h-25V90.6h17.9v-3.4H33.8V71H26V51.6h6.1v-3.4h-9.5v26.2h7.8v30.9h-4.3v9.7h-9
		c-0.8,0-1.5-0.7-1.5-1.5v-8.8c0-0.8,0.7-1.5,1.5-1.5h3v-3.4h-3c-2.7,0-4.9,2.2-4.9,4.9v8.8c0,2.7,2.2,4.9,4.9,4.9h104.4
		c2.7,0,4.9-2.2,4.9-4.9V8.4C126.4,5.7,124.2,3.5,121.4,3.5z"/>
	<polygon points="86.5,62.7 86.5,49.9 83.1,49.9 83.1,59.2 53.4,59.2 53.4,49.9 49.9,49.9 49.9,59.2 47,59.2 47,62.7 49.9,62.7 
		49.9,78.1 63.6,78.1 63.6,74.6 53.4,74.6 53.4,62.7 	"/>
	<rect x="96.7" y="58.5" width="10.9" height="3.4"/>
</g>
</svg>
