<?xml version="1.0" encoding="utf-8"?>
<!-- Generator: Adobe Illustrator 19.1.0, SVG Export Plug-In . SVG Version: 6.00 Build 0)  -->
<svg version="1.1" id="Layer_1" xmlns="http://www.w3.org/2000/svg" xmlns:xlink="http://www.w3.org/1999/xlink" x="0px" y="0px"
	 viewBox="0 0 140 120" style="enable-background:new 0 0 140 120;" xml:space="preserve">
<g>
	<path d="M102.8,50.5C102.8,33.2,80.5,19,53,19S3.2,33.2,3.2,50.5c0,9.9,7.3,19.2,19.6,25.1c-1.5,3.3-3.4,6-5.8,8.2
		c-0.8,0.7-3.4,3.3-2.2,5.7c0.7,1.4,2.1,1.7,3.4,1.7c1,0,1.9-0.2,2.4-0.3c4.9-1.1,12.1-3.7,18.4-10.1c4.5,0.8,9.3,1.3,14,1.3
		C80.5,82.1,102.8,67.9,102.8,50.5z M53,78.1c-4.9,0-9.7-0.5-14.3-1.4c-0.7-0.1-1.4,0.1-1.9,0.6C31,83.6,24.3,86,19.7,87
		c-0.2,0-0.3,0.1-0.4,0.1c0.1-0.1,0.2-0.2,0.3-0.3c3.3-2.9,5.8-6.8,7.6-11.4c0.4-1-0.1-2.1-1.1-2.5c-11.9-5.2-19-13.5-19-22.3
		C7.2,35.4,27.8,23,53,23s45.8,12.4,45.8,27.5S78.3,78.1,53,78.1z"/>
	<path d="M136.4,61.9c0-12.8-12.1-24.3-30.7-29.2c-1.1-0.3-2.2,0.4-2.4,1.4c-0.3,1.1,0.4,2.2,1.4,2.4c16.8,4.4,27.7,14.3,27.7,25.3
		c0,8.7-7.1,17.1-19,22.3c-1,0.4-1.4,1.5-1.1,2.5c1.7,4.4,4.1,8.1,7.1,11c0.2,0.2,0.4,0.5,0.6,0.7c-0.4,0-1-0.1-1.8-0.4
		c-6-1.6-11.2-4.7-15.4-9.3c-0.5-0.5-1.2-0.7-1.9-0.6c-4.6,0.9-9.4,1.4-14.3,1.4c-6.9,0-13.6-0.9-19.8-2.7c-1.1-0.3-2.2,0.3-2.5,1.4
		c-0.3,1.1,0.3,2.2,1.4,2.5c6.6,1.9,13.6,2.9,20.9,2.9c4.8,0,9.5-0.4,14-1.3c4.6,4.7,10.2,8,16.6,9.7c0.6,0.2,1.9,0.5,3.3,0.5
		c1.4,0,2.8-0.4,3.6-1.7c1.1-2-0.3-4.4-1.8-5.9c-2.2-2.1-4-4.7-5.4-7.7C129.1,81,136.4,71.8,136.4,61.9z"/>
	<circle cx="30.7" cy="49.8" r="5.2"/>
	<circle cx="51" cy="49.8" r="5.2"/>
	<circle cx="71.3" cy="49.8" r="5.2"/>
</g>
</svg>
