<?xml version="1.0" encoding="utf-8"?>
<!-- Generator: Adobe Illustrator 19.1.0, SVG Export Plug-In . SVG Version: 6.00 Build 0)  -->
<svg version="1.1" id="Layer_1" xmlns="http://www.w3.org/2000/svg" xmlns:xlink="http://www.w3.org/1999/xlink" x="0px" y="0px"
	 viewBox="0 0 140 120" style="enable-background:new 0 0 140 120;" xml:space="preserve">
<g>
	<path d="M104.6,35.3l-12-8.6c-0.9-0.6-2.1-0.4-2.8,0.5c-0.6,0.9-0.4,2.1,0.5,2.8l6.4,4.6c-4.8,0-12.5,2-19.1,6.8
		C71.4,45.8,64,54.4,64,69.5c0,1.1,0.9,2,2,2s2-0.9,2-2c0-13.5,6.5-21,11.9-24.9c7.8-5.7,16.4-6.5,18.6-5.8l-7.3,6.7
		c-0.8,0.7-0.9,2-0.1,2.8c0.4,0.4,0.9,0.6,1.5,0.6c0.5,0,1-0.2,1.4-0.5l10.9-10c0.4-0.4,0.7-1,0.6-1.6
		C105.4,36.2,105.1,35.7,104.6,35.3z"/>
	<path d="M98.7,53.7c-1.1,0-2,0.9-2,2v34.2c0,2.4-1.9,4.3-4.3,4.3H41.6c-2.4,0-4.3-1.9-4.3-4.3V39.1c0-2.4,1.9-4.3,4.3-4.3h31.7
		c1.1,0,2-0.9,2-2c0-1.1-0.9-2-2-2H41.6c-4.6,0-8.3,3.7-8.3,8.3v50.8c0,4.6,3.7,8.3,8.3,8.3h50.8c4.6,0,8.3-3.7,8.3-8.3V55.7
		C100.7,54.6,99.8,53.7,98.7,53.7z"/>
</g>
</svg>
