<?xml version="1.0" encoding="utf-8"?>
<!-- Generator: Adobe Illustrator 19.1.0, SVG Export Plug-In . SVG Version: 6.00 Build 0)  -->
<svg version="1.1" id="Layer_1" xmlns="http://www.w3.org/2000/svg" xmlns:xlink="http://www.w3.org/1999/xlink" x="0px" y="0px"
	 viewBox="0 0 140 120" style="enable-background:new 0 0 140 120;" xml:space="preserve">
<g>
	<path d="M70,45.7c-13.7,0-24.8,11.1-24.8,24.8S56.3,95.4,70,95.4c13.7,0,24.8-11.1,24.8-24.8S83.7,45.7,70,45.7z M70,91.4
		c-11.5,0-20.8-9.4-20.8-20.8S58.5,49.7,70,49.7S90.8,59,90.8,70.5S81.5,91.4,70,91.4z"/>
	<path d="M78.5,59.9l-8.4,7.8l-7.8-8.4c-0.7-0.8-2-0.9-2.8-0.1c-0.8,0.7-0.9,2-0.1,2.8l7.8,8.4l-8.4,7.8c-0.8,0.7-0.9,2-0.1,2.8
		c0.4,0.4,0.9,0.6,1.5,0.6c0.5,0,1-0.2,1.4-0.5l8.4-7.8l7.8,8.4c0.4,0.4,0.9,0.6,1.5,0.6c0.5,0,1-0.2,1.4-0.5c0.8-0.7,0.9-2,0.1-2.8
		l-7.8-8.4l8.4-7.8c0.8-0.7,0.9-2,0.1-2.8C80.6,59.2,79.4,59.2,78.5,59.9z"/>
	<path d="M106.3,24.5L93.8,12.2c-2.1-2.1-4.9-3.2-7.8-3.2H41.6c-6.1,0-11.1,5-11.1,11.1v81.8c0,6.1,5,11.1,11.1,11.1h56.9
		c6.1,0,11.1-5,11.1-11.1V32.4C109.6,29.4,108.4,26.6,106.3,24.5z M105.6,101.9c0,3.9-3.2,7.1-7.1,7.1H41.6c-3.9,0-7.1-3.2-7.1-7.1
		V20.1c0-3.9,3.2-7.1,7.1-7.1H86c0.8,0,1.5,0.1,2.2,0.4v16.8l17,0c0.2,0.7,0.4,1.5,0.4,2.3V101.9z"/>
</g>
</svg>
