<?xml version="1.0" encoding="utf-8"?>
<!-- Generator: Adobe Illustrator 19.1.0, SVG Export Plug-In . SVG Version: 6.00 Build 0)  -->
<svg version="1.1" id="Layer_1" xmlns="http://www.w3.org/2000/svg" xmlns:xlink="http://www.w3.org/1999/xlink" x="0px" y="0px"
	 viewBox="0 0 140 120" style="enable-background:new 0 0 140 120;" xml:space="preserve">
<g>
	<path d="M99.4,19.7H87.5c-0.1,0-0.2,0-0.3,0.1c-0.8-2.8-3.3-4.8-6.3-4.8h-2v0c0-3.6-2.9-6.6-6.6-6.6h-6.1c-3.6,0-6.6,2.9-6.6,6.6
		l-2,0c-3,0-5.5,2.1-6.3,4.8c-0.1,0-0.2-0.1-0.3-0.1H39.3c-5.2,0-9.5,4.3-9.5,9.5v73c0,5.2,4.3,9.5,9.5,9.5h60.1
		c5.2,0,9.5-4.3,9.5-9.5v-73C108.9,23.9,104.6,19.7,99.4,19.7z M55.2,21.4c0-1.4,1.1-2.5,2.5-2.5h4c1.1,0,2-0.9,2-2v-2
		c0-1.4,1.2-2.6,2.6-2.6h6.1c1.4,0,2.6,1.2,2.6,2.6v2c0,1.1,0.9,2,2,2h4c1.4,0,2.5,1.1,2.5,2.5v2.3c0,1.4-1.1,2.5-2.5,2.5H57.7
		c-1.4,0-2.5-1.1-2.5-2.5V21.4z M104.9,102.2c0,3-2.5,5.5-5.5,5.5H39.3c-3,0-5.5-2.5-5.5-5.5v-73c0-3,2.5-5.5,5.5-5.5h11.9v0
		c0,3.6,2.9,6.5,6.5,6.5H81c3.6,0,6.5-2.9,6.5-6.5v0h11.9c3,0,5.5,2.5,5.5,5.5V102.2z"/>
	<path d="M85.6,55C85.6,54.9,85.6,54.9,85.6,55c-4.1-4.4-9.8-7.2-16.3-7.2c-12.1,0-22,9.9-22,22c0,5.3,1.9,10.2,5,14c0,0,0,0,0,0.1
		c0,0,0,0,0.1,0c4,4.8,10.1,7.9,16.9,7.9c12.1,0,22-9.9,22-22C91.4,64.1,89.2,58.9,85.6,55C85.6,55,85.6,55,85.6,55z M69.4,51.8
		c4.5,0,8.6,1.7,11.8,4.4L54.3,79.6c-1.8-2.8-2.9-6.2-2.9-9.8C51.3,59.8,59.4,51.8,69.4,51.8z M69.4,87.8c-4.9,0-9.3-2-12.5-5.1
		l27.1-23.5c2.2,3,3.5,6.7,3.5,10.6C87.4,79.7,79.3,87.8,69.4,87.8z"/>
</g>
</svg>
