<?xml version="1.0" encoding="utf-8"?>
<!-- Generator: Adobe Illustrator 19.1.0, SVG Export Plug-In . SVG Version: 6.00 Build 0)  -->
<svg version="1.1" id="Layer_1" xmlns="http://www.w3.org/2000/svg" xmlns:xlink="http://www.w3.org/1999/xlink" x="0px" y="0px"
	 viewBox="0 0 140 120" style="enable-background:new 0 0 140 120;" xml:space="preserve">
<g>
	<path d="M76.2,48.1c-1.1-0.3-2.2,0.2-2.5,1.3c-0.3,1.1,0.2,2.2,1.3,2.5c7.5,2.5,12.6,9.4,12.6,17.3c0,10-8.2,18.2-18.2,18.2
		S51,79.3,51,69.3c0-7.7,4.9-14.6,12.2-17.2c1-0.4,1.6-1.5,1.2-2.6c-0.4-1-1.5-1.6-2.6-1.2C53,51.4,47,59.8,47,69.3
		c0,12.3,10,22.2,22.2,22.2c12.3,0,22.2-10,22.2-22.2C91.5,59.6,85.3,51.1,76.2,48.1z"/>
	<path d="M69.3,67.7c1.1,0,2-0.9,2-2V46.8c0-1.1-0.9-2-2-2s-2,0.9-2,2v18.9C67.3,66.8,68.2,67.7,69.3,67.7z"/>
	<path d="M99.3,19.7H87.4c-0.1,0-0.2,0-0.3,0.1c-0.8-2.8-3.3-4.8-6.3-4.8h-2v0c0-3.6-2.9-6.6-6.6-6.6h-6.1c-3.6,0-6.6,2.9-6.6,6.6
		l-2,0c-3,0-5.5,2.1-6.3,4.8c-0.1,0-0.2-0.1-0.3-0.1H39.2c-5.2,0-9.5,4.3-9.5,9.5v73c0,5.2,4.3,9.5,9.5,9.5h60.1
		c5.2,0,9.5-4.3,9.5-9.5v-73C108.8,23.9,104.5,19.7,99.3,19.7z M55.1,21.4c0-1.4,1.1-2.5,2.5-2.5h4c1.1,0,2-0.9,2-2v-2
		c0-1.4,1.2-2.6,2.6-2.6h6.1c1.4,0,2.6,1.2,2.6,2.6v2c0,1.1,0.9,2,2,2h4c1.4,0,2.5,1.1,2.5,2.5v2.3c0,1.4-1.1,2.5-2.5,2.5H57.6
		c-1.4,0-2.5-1.1-2.5-2.5V21.4z M104.8,102.2c0,3-2.5,5.5-5.5,5.5H39.2c-3,0-5.5-2.5-5.5-5.5v-73c0-3,2.5-5.5,5.5-5.5h11.9v0
		c0,3.6,2.9,6.5,6.5,6.5h23.2c3.6,0,6.5-2.9,6.5-6.5v0h11.9c3,0,5.5,2.5,5.5,5.5V102.2z"/>
</g>
</svg>
