<?xml version="1.0" encoding="utf-8"?>
<!-- Generator: Adobe Illustrator 19.1.0, SVG Export Plug-In . SVG Version: 6.00 Build 0)  -->
<svg version="1.1" id="Layer_1" xmlns="http://www.w3.org/2000/svg" xmlns:xlink="http://www.w3.org/1999/xlink" x="0px" y="0px"
	 viewBox="0 0 140 120" style="enable-background:new 0 0 140 120;" xml:space="preserve">
<g>
	<path d="M95.1,19.7H83.2c-0.1,0-0.2,0-0.3,0.1c-0.8-2.8-3.3-4.8-6.3-4.8h-2v0c0-3.6-2.9-6.6-6.6-6.6h-6.1c-3.6,0-6.6,2.9-6.6,6.6
		l-2,0c-3,0-5.5,2.1-6.3,4.8c-0.1,0-0.2-0.1-0.3-0.1H35.1c-5.2,0-9.5,4.3-9.5,9.5v73c0,5.2,4.3,9.5,9.5,9.5h60.1
		c5.2,0,9.5-4.3,9.5-9.5v-73C104.7,23.9,100.4,19.7,95.1,19.7z M50.9,21.4c0-1.4,1.1-2.5,2.5-2.5h4c1.1,0,2-0.9,2-2v-2
		c0-1.4,1.2-2.6,2.6-2.6h6.1c1.4,0,2.6,1.2,2.6,2.6v2c0,1.1,0.9,2,2,2h4c1.4,0,2.5,1.1,2.5,2.5v2.3c0,1.4-1.1,2.5-2.5,2.5H53.5
		c-1.4,0-2.5-1.1-2.5-2.5V21.4z M100.6,102.2c0,3-2.5,5.5-5.5,5.5H35.1c-3,0-5.5-2.5-5.5-5.5v-73c0-3,2.5-5.5,5.5-5.5h11.9v0
		c0,3.6,2.9,6.5,6.5,6.5h23.2c3.6,0,6.5-2.9,6.5-6.5v0h11.9c3,0,5.5,2.5,5.5,5.5V102.2z"/>
</g>
</svg>
