<?xml version="1.0" encoding="utf-8"?>
<!-- Generator: Adobe Illustrator 19.1.0, SVG Export Plug-In . SVG Version: 6.00 Build 0)  -->
<svg version="1.1" id="Layer_1" xmlns="http://www.w3.org/2000/svg" xmlns:xlink="http://www.w3.org/1999/xlink" x="0px" y="0px"
	 viewBox="0 0 140 120" style="enable-background:new 0 0 140 120;" xml:space="preserve">
<path d="M101.1,33.4l-3.9-3.9c-1.5-1.5-3.6-2.4-5.7-2.4s-4.2,0.8-5.7,2.4L42.4,72.7c-0.2,0.2-0.4,0.5-0.5,0.8L36,92
	c-0.2,0.7,0,1.5,0.5,2c0.4,0.4,0.9,0.6,1.4,0.6c0.2,0,0.4,0,0.6-0.1L57,88.7c0.3-0.1,0.6-0.3,0.8-0.5l43.3-43.3
	c1.5-1.5,2.4-3.6,2.4-5.7S102.6,35,101.1,33.4z M56.7,83.7l-9.8-9.8l35.2-35.2l9.8,9.8L56.7,83.7z M44.9,77.5l8.2,8.2L41,89.6
	L44.9,77.5z M98.3,42.1l-3.6,3.6l-9.8-9.8l3.6-3.6c1.6-1.6,4.2-1.6,5.8,0l3.9,3.9C99.9,37.9,99.9,40.5,98.3,42.1z"/>
</svg>
