<?xml version="1.0" encoding="utf-8"?>
<!-- Generator: Adobe Illustrator 19.1.0, SVG Export Plug-In . SVG Version: 6.00 Build 0)  -->
<svg version="1.1" id="Layer_1" xmlns="http://www.w3.org/2000/svg" xmlns:xlink="http://www.w3.org/1999/xlink" x="0px" y="0px"
	 viewBox="0 0 140 120" style="enable-background:new 0 0 140 120;" xml:space="preserve">
<g>
	<path d="M99.5,46.4l2.1-2.1c1.5-1.5,2.3-3.5,2.3-5.7c0-2.1-0.8-4.1-2.3-5.7l-3.9-3.9c-1.5-1.5-3.5-2.3-5.7-2.3
		c-2.1,0-4.1,0.8-5.7,2.3l-2.6,2.6L99.5,46.4z"/>
	<path d="M42.8,74.1l-5.3,16.6c-0.2,0.7,0,1.5,0.5,2c0.4,0.4,0.9,0.6,1.4,0.6c0.2,0,0.4,0,0.6-0.1l16.6-5.3L42.8,74.1z"/>
	<path d="M79.6,35.9L46.2,69.3c0.1,0.1,0.3,0.1,0.4,0.2l15,14.8l33.8-33.8L79.6,35.9z"/>
</g>
</svg>
