<?xml version="1.0" encoding="utf-8"?>
<!-- Generator: Adobe Illustrator 19.1.0, SVG Export Plug-In . SVG Version: 6.00 Build 0)  -->
<svg version="1.1" id="Layer_1" xmlns="http://www.w3.org/2000/svg" xmlns:xlink="http://www.w3.org/1999/xlink" x="0px" y="0px"
	 viewBox="0 0 140 120" style="enable-background:new 0 0 140 120;" xml:space="preserve">
<path d="M89.9,82.6c0-3-0.9-5.3-2.7-6.9c-2.5-2.1-5.7-1.9-6.5-1.8l-2.7,0c-13.1-0.8-14.2-11.2-14.3-13.2c0.1-2.1,1.1-12.5,14.2-13.3
	h2.8c0.9,0.1,4,0.3,6.5-1.8c1.8-1.5,2.7-3.9,2.7-6.9V27.7c0.1-0.9,0.3-4.9-2.2-7.6c-1-1.1-2.9-2.3-6-2.2h-6.5c-0.1,0-0.2,0-0.4,0
	c-0.3,0.1-6.8,1.3-13.2,7.3c-5.8,5.4-12.7,16-12.5,35.3l2,0.1l-2,0.2c-0.5,37.3,25.4,42.6,25.7,42.6c0.1,0,0.2,0,0.4,0l6.4,0
	c0.2,0,0.3,0,0.5,0c2.9,0,4.6-1.2,5.6-2.2c2.5-2.7,2.3-6.7,2.2-7.6V82.6z M81.9,21.9c1.3,0,2.3,0.2,2.9,0.9c1.2,1.3,1.2,3.7,1.1,4.5
	c0,0.1,0,0.2,0,0.2v11.2c0,1.8-0.4,3.1-1.3,3.8c-1.3,1.2-3.5,0.9-3.5,0.9c-0.1,0-0.2,0-0.3,0l-2.9,0V21.9L81.9,21.9z M53.3,60.8
	c0,0,0-0.3,0-0.3c-0.4-28.6,15.2-36.3,20.6-38.1V44c-13.2,2.8-14.1,15.1-14.1,16.8c0.1,1.5,0.9,13.8,14.1,16.6V99
	C68.5,97.2,52.9,89.4,53.3,60.8z M84.8,98.5c-0.6,0.7-1.6,1-3,0.9h-3.9V77.9h2.9c0.1,0,0.2,0,0.3,0c0,0,2.1-0.3,3.5,0.9
	c0.9,0.7,1.3,2,1.3,3.8v11.2c0,0.1,0,0.2,0,0.2C86,94.8,86,97.3,84.8,98.5z"/>
</svg>
