<?xml version="1.0" encoding="utf-8"?>
<!-- Generator: Adobe Illustrator 19.1.0, SVG Export Plug-In . SVG Version: 6.00 Build 0)  -->
<svg version="1.1" id="Layer_1" xmlns="http://www.w3.org/2000/svg" xmlns:xlink="http://www.w3.org/1999/xlink" x="0px" y="0px"
	 viewBox="0 0 140 120" style="enable-background:new 0 0 140 120;" xml:space="preserve">
<g>
	<path d="M81.7,46.8c1.4,0,3.6-0.3,5.4-1.8c1.8-1.5,2.7-3.9,2.7-6.9V27c0.1-0.9,0.3-4.9-2.2-7.6c-1-1.1-2.9-2.3-5.9-2.2V46.8z"/>
	<path d="M73,72.4c-8.5-2.7-9.3-10.6-9.4-12.3c0.1-1.8,0.9-9.8,9.4-12.5V17.7c-2.4,0.8-6.9,2.7-11.3,6.8c-5.8,5.4-12.7,16-12.5,35.3
		l2,0.1l-2,0.2C48.7,91.5,67,100.2,73,102.2V72.4z"/>
	<path d="M89.8,93V81.9c0-3-0.9-5.3-2.7-6.9c-1.8-1.5-4-1.8-5.4-1.8v29.6c0.1,0,0.2,0,0.3,0c2.9,0,4.6-1.2,5.6-2.2
		C90.1,97.9,89.9,93.9,89.8,93z"/>
</g>
</svg>
