<?xml version="1.0" encoding="utf-8"?>
<!-- Generator: Adobe Illustrator 19.1.0, SVG Export Plug-In . SVG Version: 6.00 Build 0)  -->
<svg version="1.1" id="Layer_1" xmlns="http://www.w3.org/2000/svg" xmlns:xlink="http://www.w3.org/1999/xlink" x="0px" y="0px"
	 viewBox="0 0 140 120" style="enable-background:new 0 0 140 120;" xml:space="preserve">
<g>
	<path d="M69.7,70c5.5,0,10-4.5,10-10c0-2.2-0.7-4.2-1.9-5.8C76,51.6,73.1,50,69.7,50c-3.3,0-6.3,1.6-8.1,4.2
		c-1.2,1.6-1.9,3.7-1.9,5.8C59.7,65.5,64.2,70,69.7,70z"/>
	<polygon points="91.5,47.8 91.5,39.4 91.5,38.1 90.3,38.1 81.9,38.2 81.9,47.8 	"/>
	<path d="M85.2,60c0,8.6-7,15.5-15.5,15.5c-8.6,0-15.5-7-15.5-15.5c0-2.1,0.4-4,1.1-5.8h-8.5v23.3c0,3,2.4,5.4,5.4,5.4h34.8
		c3,0,5.4-2.4,5.4-5.4V54.2h-8.5C84.8,56,85.2,57.9,85.2,60z"/>
	<path d="M69.7,10c-27.6,0-50,22.4-50,50c0,27.6,22.4,50,50,50s50-22.4,50-50C119.7,32.4,97.3,10,69.7,10z M98.1,54.2v23.3
		c0,6.1-4.9,11-11,11H52.3c-6.1,0-11-4.9-11-11V54.2V42.6c0-6.1,4.9-11,11-11h34.8c6.1,0,11,4.9,11,11V54.2z"/>
</g>
</svg>
