<?xml version="1.0" encoding="utf-8"?>
<!-- Generator: Adobe Illustrator 19.1.0, SVG Export Plug-In . SVG Version: 6.00 Build 0)  -->
<svg version="1.1" id="Layer_1" xmlns="http://www.w3.org/2000/svg" xmlns:xlink="http://www.w3.org/1999/xlink" x="0px" y="0px"
	 viewBox="0 0 140 120" style="enable-background:new 0 0 140 120;" xml:space="preserve">
<path d="M69.6,10c-27.6,0-50,22.4-50,50s22.4,50,50,50c27.6,0,50-22.4,50-50S97.2,10,69.6,10z M69.6,89c-2.8,0-5.6-0.4-8.2-1.2
	c1.1-1.7,2.3-4,2.9-6.2c0.4-1.3,2-8,2-8c1,1.9,3.9,3.6,7.1,3.6c9.3,0,15.6-8.5,15.6-19.8c0-8.6-7.3-16.6-18.3-16.6
	c-13.7,0-20.7,9.9-20.7,18.1c0,5,1.9,9.4,5.9,11.1c0.7,0.3,1.3,0,1.4-0.7c0.1-0.5,0.5-1.8,0.6-2.3c0.2-0.7,0.1-1-0.4-1.6
	c-1.2-1.4-1.9-3.2-1.9-5.7c0-7.3,5.5-13.9,14.2-13.9c7.8,0,12,4.8,12,11.1c0,8.4-3.7,15.4-9.2,15.4c-3,0-5.3-2.5-4.6-5.6
	c0.9-3.7,2.6-7.6,2.6-10.3c0-2.4-1.3-4.3-3.9-4.3c-3.1,0-5.6,3.2-5.6,7.5c0,2.7,0.9,4.6,0.9,4.6s-3.2,13.4-3.7,15.8
	c-0.5,2.2-0.6,4.6-0.5,6.7C47.8,82,40.7,71.9,40.7,60c0-16,13-29,28.9-29c16,0,28.9,13,28.9,29C98.6,76,85.6,89,69.6,89z"/>
</svg>
