<?xml version="1.0" encoding="utf-8"?>
<!-- Generator: Adobe Illustrator 19.1.0, SVG Export Plug-In . SVG Version: 6.00 Build 0)  -->
<svg version="1.1" id="Layer_1" xmlns="http://www.w3.org/2000/svg" xmlns:xlink="http://www.w3.org/1999/xlink" x="0px" y="0px"
	 viewBox="0 0 140 120" style="enable-background:new 0 0 140 120;" xml:space="preserve">
<path d="M67,22.1c-22.2,0-40.2,18-40.2,40.2s18,40.2,40.2,40.2c22.2,0,40.2-18,40.2-40.2S89.1,22.1,67,22.1z M84.9,66.1H71v14
	c0,2.2-1.8,4-4,4c-2.2,0-4-1.8-4-4v-14H49c-2.2,0-4-1.8-4-4s1.8-4,4-4h14v-14c0-2.2,1.8-4,4-4c2.2,0,4,1.8,4,4v14h14
	c2.2,0,4,1.8,4,4S87.2,66.1,84.9,66.1z"/>
</svg>
