<?xml version="1.0" encoding="utf-8"?>
<!-- Generator: Adobe Illustrator 19.1.0, SVG Export Plug-In . SVG Version: 6.00 Build 0)  -->
<svg version="1.1" id="Layer_1" xmlns="http://www.w3.org/2000/svg" xmlns:xlink="http://www.w3.org/1999/xlink" x="0px" y="0px"
	 viewBox="0 0 140 120" style="enable-background:new 0 0 140 120;" xml:space="preserve">
<g>
	<path d="M87.5,60.1h-16v-16c0-1.1-0.9-2-2-2s-2,0.9-2,2v16h-16c-1.1,0-2,0.9-2,2s0.9,2,2,2h16v16c0,1.1,0.9,2,2,2s2-0.9,2-2v-16h16
		c1.1,0,2-0.9,2-2S88.6,60.1,87.5,60.1z"/>
	<path d="M69.5,22.1c-22.2,0-40.2,18-40.2,40.2s18,40.2,40.2,40.2s40.2-18,40.2-40.2S91.7,22.1,69.5,22.1z M69.5,98.5
		c-19.9,0-36.2-16.2-36.2-36.2s16.2-36.2,36.2-36.2s36.2,16.2,36.2,36.2S89.5,98.5,69.5,98.5z"/>
</g>
</svg>
