<?xml version="1.0" encoding="utf-8"?>
<!-- Generator: Adobe Illustrator 19.1.0, SVG Export Plug-In . SVG Version: 6.00 Build 0)  -->
<svg version="1.1" id="Layer_1" xmlns="http://www.w3.org/2000/svg" xmlns:xlink="http://www.w3.org/1999/xlink" x="0px" y="0px"
	 viewBox="0 0 140 120" style="enable-background:new 0 0 140 120;" xml:space="preserve">
<g>
	<path d="M79.5,24.4c-1.1-0.3-2.2,0.4-2.4,1.4c-0.3,1.1,0.4,2.2,1.4,2.4c15.9,4.1,27,18.4,27,34.8c0,19.8-16.1,35.9-35.9,35.9
		c-19.8,0-35.9-16.1-35.9-35.9c0-15.2,9.7-28.9,24-33.9c1-0.4,1.6-1.5,1.2-2.6c-0.4-1-1.5-1.6-2.6-1.2c-16,5.6-26.7,20.7-26.7,37.7
		c0,22,17.9,39.9,39.9,39.9s39.9-17.9,39.9-39.9C109.5,44.8,97.1,28.9,79.5,24.4z"/>
	<path d="M69.5,58.4c1.1,0,2-0.9,2-2V20.9c0-1.1-0.9-2-2-2s-2,0.9-2,2v35.5C67.5,57.5,68.4,58.4,69.5,58.4z"/>
</g>
</svg>
