<?xml version="1.0" encoding="utf-8"?>
<!-- Generator: Adobe Illustrator 19.1.0, SVG Export Plug-In . SVG Version: 6.00 Build 0)  -->
<svg version="1.1" id="Layer_1" xmlns="http://www.w3.org/2000/svg" xmlns:xlink="http://www.w3.org/1999/xlink" x="0px" y="0px"
	 viewBox="0 0 140 120" style="enable-background:new 0 0 140 120;" xml:space="preserve">
<path d="M72.3,22.1c-22.2,0-40.2,18-40.2,40.2s18,40.2,40.2,40.2s40.2-18,40.2-40.2S94.4,22.1,72.3,22.1z M91.1,75.8L89,87.2
	c-0.3,1.9-2,3.3-3.9,3.3c-0.2,0-0.5,0-0.7-0.1c-2.2-0.4-3.6-2.5-3.2-4.7l0.1-0.6c-2.9,1.3-6,2-9.2,2c-12.2,0-22.2-10-22.2-22.2
	c0-2.2,1.8-4,4-4c2.2,0,4,1.8,4,4c0,7.8,6.4,14.2,14.2,14.2c0.6,0,1.2,0,1.7-0.1c-1.3-0.6-2.2-1.9-2.3-3.5c-0.1-2.2,1.7-4.1,3.9-4.1
	L87,71.1c0,0,0.1,0,0.1,0c1.2,0,2.3,0.5,3,1.4C91,73.4,91.3,74.6,91.1,75.8z M90.6,63.7c-2.2,0-4-1.8-4-4c0-7.8-6.4-14.2-14.2-14.2
	c-0.6,0-1.2,0-1.7,0.1c1.3,0.6,2.2,1.9,2.3,3.5c0.1,2.2-1.7,4.1-3.9,4.1l-11.6,0.3c0,0-0.1,0-0.1,0c-1.2,0-2.3-0.5-3-1.4
	c-0.8-0.9-1.1-2.1-0.9-3.3l2.1-11.4c0.4-2.1,2.5-3.6,4.6-3.2c2.2,0.4,3.6,2.5,3.2,4.7l-0.1,0.6c2.9-1.3,6-2,9.2-2
	c12.2,0,22.2,10,22.2,22.2C94.6,61.9,92.8,63.7,90.6,63.7z"/>
</svg>
