<?xml version="1.0" encoding="utf-8"?>
<!-- Generator: Adobe Illustrator 19.1.0, SVG Export Plug-In . SVG Version: 6.00 Build 0)  -->
<svg version="1.1" id="Layer_1" xmlns="http://www.w3.org/2000/svg" xmlns:xlink="http://www.w3.org/1999/xlink" x="0px" y="0px"
	 viewBox="0 0 140 120" style="enable-background:new 0 0 140 120;" xml:space="preserve">
<path d="M31.8,58.8c0,22.2,18,40.2,40.2,40.2s40.2-18,40.2-40.2c0-22.2-18-40.2-40.2-40.2S31.8,36.6,31.8,58.8z M93.9,55.4
	c1,0.9,1.6,2.1,1.6,3.4s-0.6,2.6-1.6,3.4L64.1,87.8c-1.9,1.6-4.7,1.4-6.3-0.5c-1.6-1.9-1.4-4.7,0.5-6.3l25.9-22.1L58.2,36.7
	c-1.9-1.6-2.1-4.5-0.5-6.3l0,0c1.6-1.9,4.5-2.1,6.3-0.5L93.9,55.4z"/>
</svg>
