<?xml version="1.0" encoding="utf-8"?>
<!-- Generator: Adobe Illustrator 19.1.0, SVG Export Plug-In . SVG Version: 6.00 Build 0)  -->
<svg version="1.1" id="Layer_1" xmlns="http://www.w3.org/2000/svg" xmlns:xlink="http://www.w3.org/1999/xlink" x="0px" y="0px"
	 viewBox="0 0 140 120" style="enable-background:new 0 0 140 120;" xml:space="preserve">
<g>
	<path d="M16.4,48h13.9c1.1,0,2-0.9,2-2V32.1c0-1.1-0.9-2-2-2H16.4c-1.1,0-2,0.9-2,2V46C14.4,47.1,15.3,48,16.4,48z M18.4,34.1h9.9
		V44h-9.9V34.1z"/>
	<path d="M120.5,74.1h-4.1c-3.8,0-6.9,3.1-6.9,6.9v4.1c0,3.8,3.1,6.9,6.9,6.9h4.1c3.8,0,6.9-3.1,6.9-6.9V81
		C127.4,77.2,124.3,74.1,120.5,74.1z M123.4,85.1c0,1.6-1.3,2.9-2.9,2.9h-4.1c-1.6,0-2.9-1.3-2.9-2.9V81c0-1.6,1.3-2.9,2.9-2.9h4.1
		c1.6,0,2.9,1.3,2.9,2.9V85.1z"/>
	<path d="M118.4,48c4.9,0,8.9-4,8.9-8.9s-4-8.9-8.9-8.9c-4.9,0-8.9,4-8.9,8.9S113.5,48,118.4,48z M118.4,34.1c2.7,0,4.9,2.2,4.9,4.9
		c0,2.7-2.2,4.9-4.9,4.9s-4.9-2.2-4.9-4.9C113.5,36.3,115.7,34.1,118.4,34.1z"/>
	<path d="M98.8,37.4l-20-12.6c-0.9-0.6-2.2-0.3-2.8,0.6c-0.6,0.9-0.3,2.2,0.6,2.8L90.8,37H47.7c-1.1,0-2,0.9-2,2s0.9,2,2,2h43.1
		l-14.1,8.9c-0.9,0.6-1.2,1.8-0.6,2.8c0.4,0.6,1,0.9,1.7,0.9c0.4,0,0.7-0.1,1.1-0.3l20-12.6c0.6-0.4,0.9-1,0.9-1.7
		C99.8,38.4,99.4,37.7,98.8,37.4z"/>
	<path d="M24.7,71.6c-0.8-0.8-2.1-0.8-2.8,0l-9.8,9.8c-0.4,0.4-0.6,0.9-0.6,1.4s0.2,1,0.6,1.4l9.8,9.8c0.4,0.4,0.9,0.6,1.4,0.6
		s1-0.2,1.4-0.6l9.8-9.8c0.4-0.4,0.6-0.9,0.6-1.4s-0.2-1-0.6-1.4L24.7,71.6z M23.3,89.9l-7-7l7-7l7,7L23.3,89.9z"/>
	<path d="M98.8,81.2l-20-12.6c-0.9-0.6-2.2-0.3-2.8,0.6c-0.6,0.9-0.3,2.2,0.6,2.8l14.1,8.9H47.7c-1.1,0-2,0.9-2,2s0.9,2,2,2h43.1
		l-14.1,8.9c-0.9,0.6-1.2,1.8-0.6,2.8c0.4,0.6,1,0.9,1.7,0.9c0.4,0,0.7-0.1,1.1-0.3l20-12.6c0.6-0.4,0.9-1,0.9-1.7
		C99.8,82.2,99.4,81.5,98.8,81.2z"/>
</g>
</svg>
