<?xml version="1.0" encoding="utf-8"?>
<!-- Generator: Adobe Illustrator 19.1.0, SVG Export Plug-In . SVG Version: 6.00 Build 0)  -->
<svg version="1.1" id="Layer_1" xmlns="http://www.w3.org/2000/svg" xmlns:xlink="http://www.w3.org/1999/xlink" x="0px" y="0px"
	 viewBox="0 0 140 120" style="enable-background:new 0 0 140 120;" xml:space="preserve">
<path d="M104.7,43.2L85.9,25.7c-1.3-1.2-3-1.9-4.7-1.9H39.8c-3.8,0-6.9,3.1-6.9,6.9V91c0,3.8,3.1,6.9,6.9,6.9H100
	c3.8,0,6.9-3.1,6.9-6.9V48.2C106.9,46.3,106.1,44.5,104.7,43.2z M48.7,27.8h26.4v15.9c0,1.6-1.3,2.9-2.9,2.9H51.6
	c-1.6,0-2.9-1.3-2.9-2.9V27.8z M102.9,91c0,1.6-1.3,2.9-2.9,2.9H39.8c-1.6,0-2.9-1.3-2.9-2.9V30.8c0-1.6,1.3-2.9,2.9-2.9h4.9v15.9
	c0,3.8,3.1,6.9,6.9,6.9h20.6c3.8,0,6.9-3.1,6.9-6.9V27.8h2.1c0.7,0,1.5,0.3,2,0.8L102,46.1c0.6,0.6,0.9,1.3,0.9,2.1V91z"/>
</svg>
