<?xml version="1.0" encoding="utf-8"?>
<!-- Generator: Adobe Illustrator 19.1.0, SVG Export Plug-In . SVG Version: 6.00 Build 0)  -->
<svg version="1.1" id="Layer_1" xmlns="http://www.w3.org/2000/svg" xmlns:xlink="http://www.w3.org/1999/xlink" x="0px" y="0px"
	 viewBox="0 0 140 120" style="enable-background:new 0 0 140 120;" xml:space="preserve">
<g>
	<g>
		<path d="M106.2,88L85.5,67.3C84,65.8,82,65,80,64.9c7.8-11.6,6.6-27.5-3.7-37.7c-11.6-11.6-30.6-11.6-42.2,0
			c-11.6,11.6-11.6,30.6,0,42.2c10.2,10.2,26.1,11.5,37.7,3.7c0,2,0.8,4,2.3,5.5l20.7,20.7c3.1,3.1,8.2,3.1,11.4,0
			C109.4,96.2,109.4,91.2,106.2,88L106.2,88z M69.8,62.9c-8.1,8.1-21.2,8.1-29.2,0c-8.1-8.1-8.1-21.2,0-29.2
			c8.1-8.1,21.2-8.1,29.2,0C77.8,41.8,77.8,54.9,69.8,62.9L69.8,62.9z M69.8,62.9"/>
	</g>
</g>
</svg>
