<?xml version="1.0" encoding="utf-8"?>
<!-- Generator: Adobe Illustrator 19.1.0, SVG Export Plug-In . SVG Version: 6.00 Build 0)  -->
<svg version="1.1" id="Layer_1" xmlns="http://www.w3.org/2000/svg" xmlns:xlink="http://www.w3.org/1999/xlink" x="0px" y="0px"
	 viewBox="0 0 140 120" style="enable-background:new 0 0 140 120;" xml:space="preserve">
<path d="M106.8,96.7L85.6,76.4c5-5.5,8-12.8,8-20.8c0-17.2-14-31.1-31.1-31.1s-31.1,14-31.1,31.1s14,31.1,31.1,31.1
	c7,0,13.4-2.3,18.6-6.3l21.5,20.5c0.6,0.6,1.3,0.8,2.1,0.8c0.8,0,1.6-0.3,2.2-0.9C108,99.7,108,97.8,106.8,96.7z M37.4,55.6
	c0-13.8,11.3-25.1,25.1-25.1s25.1,11.3,25.1,25.1S76.3,80.7,62.5,80.7S37.4,69.4,37.4,55.6z"/>
</svg>
