<?xml version="1.0" encoding="utf-8"?>
<!-- Generator: Adobe Illustrator 19.1.0, SVG Export Plug-In . SVG Version: 6.00 Build 0)  -->
<svg version="1.1" id="Layer_1" xmlns="http://www.w3.org/2000/svg" xmlns:xlink="http://www.w3.org/1999/xlink" x="0px" y="0px"
	 viewBox="0 0 140 120" style="enable-background:new 0 0 140 120;" xml:space="preserve">
<g>
	<path d="M114.7,91.2L75.8,23.8c-1.2-2.1-3.4-3.4-5.8-3.4c0,0,0,0,0,0c-2.4,0-4.6,1.3-5.8,3.4L25.3,91.2c-1.2,2.1-1.2,4.6,0,6.7
		c1.2,2.1,3.4,3.4,5.8,3.4h77.8c2.4,0,4.6-1.3,5.8-3.4C115.9,95.8,115.9,93.3,114.7,91.2z M111.2,95.9c-0.5,0.8-1.4,1.4-2.3,1.4
		H31.1c-1,0-1.9-0.5-2.3-1.4c-0.5-0.9-0.5-1.8,0-2.7l38.9-67.4c0.5-0.8,1.4-1.4,2.3-1.4s1.9,0.5,2.3,1.4l38.9,67.4
		C111.7,94.1,111.7,95.1,111.2,95.9z"/>
	<path d="M74.5,48.4c-0.9-1.7-2.6-2.6-4.5-2.6c-1.9,0-3.6,1-4.5,2.6l-17.4,31c-0.9,1.6-0.9,3.5,0,5.1c0.9,1.6,2.6,2.6,4.5,2.6h34.8
		c1.9,0,3.5-1,4.5-2.6c0.9-1.6,1-3.5,0-5.1L74.5,48.4z M88.4,82.6c-0.1,0.2-0.4,0.6-1,0.6H52.6c-0.6,0-0.9-0.4-1-0.6
		c-0.1-0.2-0.3-0.6,0-1.2l17.4-31c0.3-0.5,0.8-0.6,1-0.6c0.2,0,0.7,0.1,1,0.6l17.4,31C88.7,81.9,88.5,82.4,88.4,82.6z"/>
</g>
</svg>
