<?xml version="1.0" encoding="utf-8"?>
<!-- Generator: Adobe Illustrator 19.1.0, SVG Export Plug-In . SVG Version: 6.00 Build 0)  -->
<svg version="1.1" id="Layer_1" xmlns="http://www.w3.org/2000/svg" xmlns:xlink="http://www.w3.org/1999/xlink" x="0px" y="0px"
	 viewBox="0 0 140 120" style="enable-background:new 0 0 140 120;" xml:space="preserve">
<g>
	<path d="M19.7,52.1l47.7,23.2c0.7,0.4,1.5,0.5,2.3,0.5c0.8,0,1.5-0.2,2.3-0.5l47.7-23.2c0,0,0,0,0,0c1.8-0.9,2.9-2.7,2.9-4.7
		c0-2-1.1-3.8-2.9-4.7L72,19.5c-1.4-0.7-3.1-0.7-4.5,0L19.7,42.7c-1.8,0.9-2.9,2.7-2.9,4.7C16.8,49.4,17.9,51.2,19.7,52.1z
		 M21.5,46.3l47.7-23.2c0.2-0.1,0.3-0.1,0.5-0.1c0.2,0,0.4,0,0.5,0.1l47.7,23.2c0.6,0.3,0.7,0.8,0.7,1.1s-0.1,0.8-0.7,1.1h0
		L70.2,71.7c-0.3,0.2-0.7,0.2-1,0L21.5,48.5c-0.6-0.3-0.7-0.8-0.7-1.1S20.9,46.6,21.5,46.3z"/>
	<path d="M13.8,62.4l53.6,26.1c0.7,0.3,1.5,0.5,2.3,0.5c0.8,0,1.5-0.2,2.3-0.5l53.6-26.1c1-0.5,1.4-1.7,0.9-2.7
		c-0.5-1-1.7-1.4-2.7-0.9L70.2,84.8c-0.3,0.2-0.7,0.2-1,0L15.6,58.8c-1-0.5-2.2-0.1-2.7,0.9C12.4,60.7,12.9,61.9,13.8,62.4z"/>
	<path d="M123.8,72.1L70.2,98.2c-0.3,0.2-0.7,0.2-1,0L15.6,72.1c-1-0.5-2.2-0.1-2.7,0.9c-0.5,1-0.1,2.2,0.9,2.7l53.6,26.1
		c0.7,0.3,1.5,0.5,2.3,0.5c0.8,0,1.5-0.2,2.3-0.5l53.6-26.1c1-0.5,1.4-1.7,0.9-2.7C126,72.1,124.8,71.7,123.8,72.1z"/>
</g>
</svg>
