<?xml version="1.0" encoding="utf-8"?>
<!-- Generator: Adobe Illustrator 19.1.0, SVG Export Plug-In . SVG Version: 6.00 Build 0)  -->
<svg version="1.1" id="Layer_1" xmlns="http://www.w3.org/2000/svg" xmlns:xlink="http://www.w3.org/1999/xlink" x="0px" y="0px"
	 viewBox="0 0 140 120" style="enable-background:new 0 0 140 120;" xml:space="preserve">
<g>
	<path d="M109.6,14.6H19c-3.8,0-6.9,3.1-6.9,6.9v61.2c0,3.8,3.1,6.9,6.9,6.9h33l-3.3,14.1h-4.1c-1.1,0-2,0.9-2,2s0.9,2,2,2H84
		c1.1,0,2-0.9,2-2s-0.9-2-2-2h-4.2l-3.3-14.1h33c3.8,0,6.9-3.1,6.9-6.9V21.6C116.5,17.8,113.4,14.6,109.6,14.6z M52.8,103.8
		l3.3-14.1h16.4l3.3,14.1H52.8z M112.5,82.8c0,1.6-1.3,2.9-2.9,2.9H19c-1.6,0-2.9-1.3-2.9-2.9v-6.1h96.5V82.8z M112.5,72.7H16V30.3
		h96.5V72.7z M112.5,26.3H16v-4.8c0-1.6,1.3-2.9,2.9-2.9h90.6c1.6,0,2.9,1.3,2.9,2.9V26.3z"/>
	<path d="M47.5,68.4h4.2c1.1,0,2-0.9,2-2V54.5c0-1.1-0.9-2-2-2h-4.2c-1.1,0-2,0.9-2,2v11.9C45.4,67.5,46.3,68.4,47.5,68.4z"/>
	<path d="M62.2,68.4h4.2c1.1,0,2-0.9,2-2V47.9c0-1.1-0.9-2-2-2h-4.2c-1.1,0-2,0.9-2,2v18.5C60.1,67.5,61.1,68.4,62.2,68.4z"/>
	<path d="M76.9,68.4H81c1.1,0,2-0.9,2-2V41c0-1.1-0.9-2-2-2h-4.2c-1.1,0-2,0.9-2,2v25.4C74.9,67.5,75.8,68.4,76.9,68.4z"/>
</g>
</svg>
