<?xml version="1.0" encoding="utf-8"?>
<!-- Generator: Adobe Illustrator 19.1.0, SVG Export Plug-In . SVG Version: 6.00 Build 0)  -->
<svg version="1.1" id="Layer_1" xmlns="http://www.w3.org/2000/svg" xmlns:xlink="http://www.w3.org/1999/xlink" x="0px" y="0px"
	 viewBox="0 0 140 120" style="enable-background:new 0 0 140 120;" xml:space="preserve">
<g>
	<path d="M101,27.6H72v-9c0-1.1-0.9-2-2-2s-2,0.9-2,2v9H39c-4.7,0-8.5,3.8-8.5,8.5v41.4c0,4.7,3.8,8.5,8.5,8.5h11.7l-6.3,14.6
		c-0.4,1,0,2.2,1,2.6c0.3,0.1,0.5,0.2,0.8,0.2c0.8,0,1.5-0.5,1.8-1.2l7-16.2H85l7,16.2c0.3,0.8,1.1,1.2,1.8,1.2
		c0.3,0,0.5-0.1,0.8-0.2c1-0.4,1.5-1.6,1-2.6l-6.3-14.6H101c4.7,0,8.5-3.8,8.5-8.5V36.1C109.5,31.4,105.7,27.6,101,27.6z
		 M105.5,77.5c0,2.5-2,4.5-4.5,4.5H86.3c0,0,0,0,0,0H53.7c0,0,0,0,0,0H39c-2.5,0-4.5-2-4.5-4.5V36.1c0-2.5,2-4.5,4.5-4.5H101
		c2.5,0,4.5,2,4.5,4.5V77.5z"/>
	<rect x="52.3" y="63" width="8.3" height="12.6"/>
	<rect x="65.9" y="53.6" width="8.3" height="22"/>
	<rect x="79.4" y="46.4" width="8.3" height="29.2"/>
</g>
</svg>
