<?xml version="1.0" encoding="utf-8"?>
<!-- Generator: Adobe Illustrator 19.1.0, SVG Export Plug-In . SVG Version: 6.00 Build 0)  -->
<svg version="1.1" id="Layer_1" xmlns="http://www.w3.org/2000/svg" xmlns:xlink="http://www.w3.org/1999/xlink" x="0px" y="0px"
	 viewBox="0 0 140 120" style="enable-background:new 0 0 140 120;" xml:space="preserve">
<g>
	<path d="M80.6,60.8L65.5,77l-7.9-7.2c-0.8-0.7-2.1-0.7-2.8,0.1c-0.7,0.8-0.7,2.1,0.1,2.8l9.4,8.5c0.4,0.3,0.9,0.5,1.3,0.5
		c0.5,0,1.1-0.2,1.5-0.6l16.4-17.7c0.8-0.8,0.7-2.1-0.1-2.8C82.6,59.9,81.3,60,80.6,60.8z"/>
	<path d="M69.7,45.3c-13.9,0-25.2,11.3-25.2,25.2s11.3,25.2,25.2,25.2s25.2-11.3,25.2-25.2S83.6,45.3,69.7,45.3z M69.7,91.7
		c-11.7,0-21.2-9.5-21.2-21.2S58,49.3,69.7,49.3c11.7,0,21.2,9.5,21.2,21.2S81.4,91.7,69.7,91.7z"/>
	<path d="M106,24.5L93.5,12.2c-2.1-2.1-4.9-3.2-7.8-3.2H41.3c-6.1,0-11.1,5-11.1,11.1v81.8c0,6.1,5,11.1,11.1,11.1h56.9
		c6.1,0,11.1-5,11.1-11.1V32.4C109.3,29.5,108.1,26.6,106,24.5z M105.3,101.9c0,3.9-3.2,7.1-7.1,7.1H41.3c-3.9,0-7.1-3.2-7.1-7.1
		V20.1c0-3.9,3.2-7.1,7.1-7.1h44.4c0.8,0,1.5,0.1,2.2,0.4v16.8l17,0c0.2,0.7,0.4,1.5,0.4,2.3V101.9z"/>
</g>
</svg>
