<?xml version="1.0" encoding="utf-8"?>
<!-- Generator: Adobe Illustrator 19.1.0, SVG Export Plug-In . SVG Version: 6.00 Build 0)  -->
<svg version="1.1" id="Layer_1" xmlns="http://www.w3.org/2000/svg" xmlns:xlink="http://www.w3.org/1999/xlink" x="0px" y="0px"
	 viewBox="0 0 140 120" style="enable-background:new 0 0 140 120;" xml:space="preserve">
<g>
	<path d="M91.6,48.9c-4.2-4.2-12.6-2.5-21.7,3.5c-2.5-1.7-5.1-3.1-7.5-4.1c-6.2-2.5-11.3-2.3-14.1,0.5c-4.2,4.2-2.5,12.6,3.5,21.7
		c-6,9.1-7.7,17.5-3.5,21.7c1.6,1.6,3.8,2.3,6.3,2.3c4.3,0,9.7-2,15.3-5.8c5.6,3.8,11.1,5.8,15.3,5.8c2.6,0,4.8-0.8,6.3-2.3
		c4.2-4.2,2.5-12.6-3.5-21.7C94.1,61.4,95.7,53,91.6,48.9z M51.1,51.7c0.8-0.8,2-1.1,3.5-1.1c1.7,0,3.9,0.5,6.3,1.5
		c1.8,0.7,3.6,1.7,5.5,2.9c-2.2,1.7-4.3,3.6-6.4,5.7c-2.1,2.1-4,4.3-5.7,6.5C49.9,60,48.8,54,51.1,51.7z M69.9,57.3
		c2.4,1.8,4.8,3.8,7.1,6.1c2.3,2.3,4.4,4.7,6.1,7.1c-1.8,2.4-3.8,4.8-6.1,7.1c-2.4,2.4-4.8,4.4-7.1,6.1c-2.3-1.7-4.7-3.8-7.1-6.1
		c-2.4-2.4-4.4-4.8-6.1-7.1c1.7-2.3,3.8-4.7,6.1-7.1C65.1,61.1,67.5,59,69.9,57.3z M51.1,89.4c-2.3-2.3-1.2-8.3,3.2-15.3
		c1.7,2.2,3.6,4.3,5.7,6.5c2.1,2.1,4.3,4,6.4,5.7C59.3,90.5,53.3,91.6,51.1,89.4z M88.4,79.6c1.8,4.5,2,8.2,0.3,9.8
		c-2.3,2.3-8.3,1.2-15.3-3.2c2.2-1.7,4.3-3.6,6.4-5.7c2.1-2.1,4-4.3,5.7-6.4C86.7,75.9,87.7,77.8,88.4,79.6z M88.4,61.5
		c-0.7,1.8-1.7,3.7-2.9,5.5c-1.7-2.2-3.6-4.3-5.7-6.4c-2.1-2.1-4.3-4-6.4-5.7c1.9-1.2,3.7-2.1,5.5-2.9c2.4-1,4.6-1.5,6.3-1.5
		c1.5,0,2.7,0.4,3.5,1.1C90.4,53.3,90.2,57,88.4,61.5z"/>
	<circle cx="69.9" cy="70.5" r="4"/>
	<path d="M106.2,24.5L93.7,12.2c-2.1-2.1-4.9-3.2-7.8-3.2H41.5c-6.1,0-11.1,5-11.1,11.1v81.8c0,6.1,5,11.1,11.1,11.1h56.9
		c6.1,0,11.1-5,11.1-11.1V32.4C109.5,29.5,108.3,26.6,106.2,24.5z M105.5,101.9c0,3.9-3.2,7.1-7.1,7.1H41.5c-3.9,0-7.1-3.2-7.1-7.1
		V20.1c0-3.9,3.2-7.1,7.1-7.1h44.4c0.8,0,1.5,0.1,2.2,0.4v16.8l17,0c0.2,0.7,0.4,1.5,0.4,2.3V101.9z"/>
</g>
</svg>
