<?xml version="1.0" encoding="utf-8"?>
<!-- Generator: Adobe Illustrator 19.1.0, SVG Export Plug-In . SVG Version: 6.00 Build 0)  -->
<svg version="1.1" id="Layer_1" xmlns="http://www.w3.org/2000/svg" xmlns:xlink="http://www.w3.org/1999/xlink" x="0px" y="0px"
	 viewBox="0 0 140 120" style="enable-background:new 0 0 140 120;" xml:space="preserve">
<g>
	<path d="M84.5,27.7h-29c-1.1,0-2,0.9-2,2v55.7c0,1.1,0.9,2,2,2h29c1.1,0,2-0.9,2-2V29.7C86.5,28.6,85.6,27.7,84.5,27.7z M82.5,83.4
		h-25V31.7h25V83.4z"/>
	<path d="M86.5,17.4h-33c-5.6,0-10.2,4.6-10.2,10.2v66c0,5.6,4.6,10.2,10.2,10.2h33c5.6,0,10.2-4.6,10.2-10.2v-66
		C96.7,22,92.1,17.4,86.5,17.4z M92.7,93.7c0,3.4-2.8,6.2-6.2,6.2h-33c-3.4,0-6.2-2.8-6.2-6.2v-66c0-3.4,2.8-6.2,6.2-6.2h33
		c3.4,0,6.2,2.8,6.2,6.2V93.7z"/>
	<path d="M70,90c-2.2,0-4,1.8-4,4c0,2.2,1.8,4,4,4c2.2,0,4-1.8,4-4C74,91.8,72.2,90,70,90z"/>
</g>
</svg>
