<?xml version="1.0" encoding="utf-8"?>
<!-- Generator: Adobe Illustrator 19.1.0, SVG Export Plug-In . SVG Version: 6.00 Build 0)  -->
<svg version="1.1" id="Layer_1" xmlns="http://www.w3.org/2000/svg" xmlns:xlink="http://www.w3.org/1999/xlink" x="0px" y="0px"
	 viewBox="0 0 140 120" style="enable-background:new 0 0 140 120;" xml:space="preserve">
<g>
	<path d="M88.4,47.1L62.8,74.7L48.8,62.1c-0.8-0.7-2.1-0.7-2.8,0.1s-0.7,2.1,0.1,2.8l15.4,14c0.4,0.3,0.9,0.5,1.3,0.5
		c0.5,0,1.1-0.2,1.5-0.6l27-29.1c0.8-0.8,0.7-2.1-0.1-2.8S89.2,46.3,88.4,47.1z"/>
	<path d="M69.6,22.1c-22.2,0-40.2,18-40.2,40.2s18,40.2,40.2,40.2s40.2-18,40.2-40.2S91.8,22.1,69.6,22.1z M69.6,98.5
		c-19.9,0-36.2-16.2-36.2-36.2s16.2-36.2,36.2-36.2s36.2,16.2,36.2,36.2S89.6,98.5,69.6,98.5z"/>
</g>
</svg>
