<?xml version="1.0" encoding="utf-8"?>
<!-- Generator: Adobe Illustrator 19.1.0, SVG Export Plug-In . SVG Version: 6.00 Build 0)  -->
<svg version="1.1" id="Layer_1" xmlns="http://www.w3.org/2000/svg" xmlns:xlink="http://www.w3.org/1999/xlink" x="0px" y="0px"
	 viewBox="0 0 140 120" style="enable-background:new 0 0 140 120;" xml:space="preserve">
<path d="M71.1,22.1c-22.2,0-40.2,18-40.2,40.2s18,40.2,40.2,40.2c22.2,0,40.2-18,40.2-40.2S93.3,22.1,71.1,22.1z M94.3,51.2
	l-27,29.1c-0.8,0.8-1.8,1.3-2.9,1.3c-1,0-1.9-0.4-2.7-1l-15.4-14c-1.6-1.5-1.8-4-0.3-5.7c1.5-1.6,4-1.8,5.6-0.3l12.5,11.3l24.3-26.2
	c0.7-0.8,1.7-1.2,2.8-1.3c1.1,0,2.1,0.3,2.9,1.1C95.7,47,95.8,49.6,94.3,51.2z"/>
</svg>
