<?xml version="1.0" encoding="utf-8"?>
<!-- Generator: Adobe Illustrator 19.1.0, SVG Export Plug-In . SVG Version: 6.00 Build 0)  -->
<svg version="1.1" id="Layer_1" xmlns="http://www.w3.org/2000/svg" xmlns:xlink="http://www.w3.org/1999/xlink" x="0px" y="0px"
	 viewBox="0 0 140 120" style="enable-background:new 0 0 140 120;" xml:space="preserve">
<g>
	<path d="M69.4,24.1c-21.5,0-39.1,17.5-39.1,39.1s17.5,39.1,39.1,39.1s39.1-17.5,39.1-39.1S91,24.1,69.4,24.1z M69.4,98.2
		c-19.3,0-35.1-15.7-35.1-35.1s15.7-35.1,35.1-35.1s35.1,15.7,35.1,35.1S88.8,98.2,69.4,98.2z"/>
	<path d="M91.6,60.2H72.4v-21c0-1.7-1.3-3-3-3s-3,1.3-3,3v24c0,1.7,1.3,3,3,3h22.2c1.7,0,3-1.3,3-3C94.6,61.5,93.3,60.2,91.6,60.2z"
		/>
</g>
</svg>
