<?xml version="1.0" encoding="utf-8"?>
<!-- Generator: Adobe Illustrator 19.1.0, SVG Export Plug-In . SVG Version: 6.00 Build 0)  -->
<svg version="1.1" id="Layer_1" xmlns="http://www.w3.org/2000/svg" xmlns:xlink="http://www.w3.org/1999/xlink" x="0px" y="0px"
	 viewBox="0 0 140 120" style="enable-background:new 0 0 140 120;" xml:space="preserve">
<g>
	<path d="M102,25.4h0.1c0.6,0,1.1,0.2,1.6,0.7c0.4,0.4,0.7,1,0.7,1.6s-0.2,1.1-0.7,1.6c-0.4,0.4-1,0.7-1.6,0.7h-3.3l-5.2,59.6v0.1
		c0,1.4-0.3,2.7-0.8,3.9s-1.3,2.3-2.3,3.2c-0.6,0.5-1.3,1-2.1,1.3c-0.8,0.3-1.6,0.5-2.5,0.5H57.5c-2.7,0-4.6-1.2-5.7-3.5
		c-1.1-2.4-1.6-4.5-1.7-6.3l-4.7-58.7h-5.1c-0.6,0-1.1-0.2-1.5-0.7c-0.4-0.4-0.6-1-0.6-1.6s0.2-1.1,0.6-1.6c0.4-0.4,0.9-0.7,1.5-0.7
		h13C53.1,25.2,53,25,53,24.7c-0.1-0.3-0.1-0.5-0.1-0.8c0-0.8,0.3-1.5,0.8-2c0.5-0.5,1.2-0.8,2-0.8h32.8c0.8,0,1.4,0.3,1.9,0.8
		s0.8,1.2,0.8,2c0,0.3-0.1,0.5-0.2,0.8c-0.1,0.3-0.2,0.5-0.4,0.7H102z"/>
</g>
</svg>
