<?xml version="1.0" encoding="utf-8"?>
<!-- Generator: Adobe Illustrator 19.1.0, SVG Export Plug-In . SVG Version: 6.00 Build 0)  -->
<svg version="1.1" id="Layer_1" xmlns="http://www.w3.org/2000/svg" xmlns:xlink="http://www.w3.org/1999/xlink" x="0px" y="0px"
	 viewBox="0 0 140 120" style="enable-background:new 0 0 140 120;" xml:space="preserve">
<path d="M97.1,34.3H82.6v-6.1c0-3.5-2.8-6.3-6.3-6.3H63.9c-3.5,0-6.3,2.8-6.3,6.3v6.1H41.6c-1.1,0-2,0.9-2,2s0.9,2,2,2h4.5l4.2,52.8
	c0.1,3.3,1.8,8.8,6.7,8.8l25.4,0c0,0,0.1,0,0.3,0c0.7,0,2.5-0.1,4.1-1.6c1.6-1.4,2.5-3.6,2.7-6.4l4.7-53.6h3c1.1,0,2-0.9,2-2
	S98.2,34.3,97.1,34.3z M61.7,28.1c0-1.2,1-2.3,2.3-2.3h12.4c1.2,0,2.3,1,2.3,2.3v6.1H61.7V28.1z M85.5,91.6
	c-0.2,4.2-2.4,4.3-2.9,4.3H57c0,0,0,0,0,0c-2.3,0-2.7-4.9-2.7-5l-4.2-52.6h40L85.5,91.6z"/>
</svg>
