<?xml version="1.0" encoding="utf-8"?>
<!-- Generator: Adobe Illustrator 19.1.0, SVG Export Plug-In . SVG Version: 6.00 Build 0)  -->
<svg version="1.1" id="Layer_1" xmlns="http://www.w3.org/2000/svg" xmlns:xlink="http://www.w3.org/1999/xlink" x="0px" y="0px"
	 viewBox="0 0 140 120" style="enable-background:new 0 0 140 120;" xml:space="preserve">
<path d="M69.3,10c-27.6,0-50,22.4-50,50c0,27.6,22.4,50,50,50c27.6,0,50-22.4,50-50C119.3,32.4,96.9,10,69.3,10z M89.1,49
	c0,0.5,0,0.9,0,1.4C89.2,65,78.8,81.9,60,81.9c-5.8,0-11.2-1.8-15.7-5c0.8,0.1,1.6,0.2,2.5,0.2c4.8,0,9.2-1.7,12.7-4.7
	c-4.5-0.1-8.3-3.3-9.6-7.7c0.6,0.2,1.3,0.2,1.9,0.2c0.9,0,1.9-0.1,2.7-0.4c-4.7-1-8.2-5.5-8.2-10.8c0,0,0-0.1,0-0.2
	c1.4,0.8,3,1.3,4.6,1.4c-2.8-1.9-4.6-5.4-4.6-9.2c0-2,0.5-3.9,1.4-5.6c5.1,6.7,12.6,11.1,21.1,11.5c-0.2-0.8-0.3-1.7-0.3-2.5
	c0-6.1,4.6-11,10.2-11c2.9,0,5.6,1.3,7.5,3.5c2.3-0.5,4.5-1.4,6.5-2.7c-0.8,2.6-2.4,4.7-4.5,6.1c2.1-0.3,4-0.9,5.9-1.7
	C92.9,45.5,91.1,47.5,89.1,49z"/>
</svg>
