<?xml version="1.0" encoding="utf-8"?>
<!-- Generator: Adobe Illustrator 19.1.0, SVG Export Plug-In . SVG Version: 6.00 Build 0)  -->
<svg version="1.1" id="Layer_1" xmlns="http://www.w3.org/2000/svg" xmlns:xlink="http://www.w3.org/1999/xlink" x="0px" y="0px"
	 viewBox="0 0 140 120" style="enable-background:new 0 0 140 120;" xml:space="preserve">
<g>
	<path d="M87.6,67.2c0-3.1-2.5-5.6-5.6-5.6c-3.1,0-5.6,2.5-5.6,5.6c0,2.3,1.4,4.3,3.5,5.2l-2.1,14.5h8.4l-2.1-14.5
		C86.2,71.5,87.6,69.5,87.6,67.2z"/>
	<path d="M104.1,50.1H67.6v-7.9c0-7.8-6.2-14.2-13.8-14.2H40.5c-7.6,0-13.8,6.4-13.8,14.2v8.2c0,1.7,1.3,3,3,3c1.7,0,3-1.3,3-3v-8.2
		c0-4.5,3.5-8.2,7.8-8.2h13.3c4.3,0,7.8,3.7,7.8,8.2v7.9h-1.6c-4.7,0-8.5,3.8-8.5,8.5v31.1c0,4.7,3.8,8.5,8.5,8.5h44.2
		c4.7,0,8.5-3.8,8.5-8.5V58.6C112.6,53.9,108.8,50.1,104.1,50.1z M108.6,89.8c0,2.5-2,4.5-4.5,4.5H59.9c-2.5,0-4.5-2-4.5-4.5V58.6
		c0-2.5,2-4.5,4.5-4.5h44.2c2.5,0,4.5,2,4.5,4.5V89.8z"/>
</g>
</svg>
