<?xml version="1.0" encoding="utf-8"?>
<!-- Generator: Adobe Illustrator 19.1.0, SVG Export Plug-In . SVG Version: 6.00 Build 0)  -->
<svg version="1.1" id="Layer_1" xmlns="http://www.w3.org/2000/svg" xmlns:xlink="http://www.w3.org/1999/xlink" x="0px" y="0px"
	 viewBox="0 0 140 120" style="enable-background:new 0 0 140 120;" xml:space="preserve">
<g>
	<path d="M69.4,60c10.7,0,19.5-8.7,19.5-19.5c0-10.7-8.7-19.5-19.5-19.5s-19.5,8.7-19.5,19.5C49.9,51.2,58.6,60,69.4,60z M69.4,25
		c8.5,0,15.5,6.9,15.5,15.5S77.9,56,69.4,56S53.9,49,53.9,40.5S60.8,25,69.4,25z"/>
	<path d="M83.6,63.3H55.1c-10.2,0-18.4,8.3-18.4,18.4v16.6c0,1.1,0.9,2,2,2H100c1.1,0,2-0.9,2-2V81.8C102,71.6,93.7,63.3,83.6,63.3z
		 M98,96.3H40.7V81.8c0-7.9,6.5-14.4,14.4-14.4h28.4c7.9,0,14.4,6.5,14.4,14.4V96.3z"/>
</g>
</svg>
