<?xml version="1.0" encoding="utf-8"?>
<!-- Generator: Adobe Illustrator 19.1.0, SVG Export Plug-In . SVG Version: 6.00 Build 0)  -->
<svg version="1.1" id="Layer_1" xmlns="http://www.w3.org/2000/svg" xmlns:xlink="http://www.w3.org/1999/xlink" x="0px" y="0px"
	 viewBox="0 0 140 120" style="enable-background:new 0 0 140 120;" xml:space="preserve">
<g>
	<path d="M69.3,60c10.7,0,19.5-8.7,19.5-19.5C88.7,29.7,80,21,69.3,21c-10.7,0-19.5,8.7-19.5,19.5C49.8,51.2,58.5,60,69.3,60z
		 M69.3,25c8.5,0,15.5,6.9,15.5,15.5S77.8,56,69.3,56S53.8,49,53.8,40.5S60.7,25,69.3,25z"/>
	<path d="M85.1,63.4C85.1,63.4,85.1,63.4,85.1,63.4c-0.2,0-0.3,0-0.5,0c-0.1,0-0.3,0-0.4,0.1c-0.1,0-0.2,0.1-0.2,0.1
		c-0.1,0.1-0.3,0.1-0.4,0.3c-0.1,0.1-0.1,0.1-0.2,0.2c-0.1,0.1-0.2,0.3-0.3,0.4c0,0,0,0,0,0.1l-8,17.9l-3.4-6.8l3.7-4.6
		c0.5-0.6,0.6-1.5,0.2-2.2l-2.6-4.5c-0.4-0.6-1-1-1.7-1h-1.9c-0.2,0-0.3,0.1-0.5,0.1c-0.2,0-0.3-0.1-0.5-0.1h-1.9
		c-0.7,0-1.4,0.4-1.7,1l-2.6,4.5c-0.4,0.7-0.3,1.6,0.2,2.2l3.7,4.6l-3.5,7l-8.9-17.9c0,0-0.1-0.1-0.1-0.1c-0.1-0.1-0.2-0.2-0.3-0.4
		c-0.1-0.1-0.1-0.2-0.2-0.2c-0.1-0.1-0.2-0.1-0.4-0.2c-0.1-0.1-0.2-0.1-0.3-0.1c-0.1,0-0.2,0-0.4-0.1c-0.1,0-0.3,0-0.4,0
		c0,0-0.1,0-0.1,0c-8.5,1.7-14.7,9.3-14.7,18v16.6c0,1.1,0.9,2,2,2h61.2c1.1,0,2-0.9,2-2V81.8C101.9,72.1,94.7,64.2,85.1,63.4z
		 M67.6,67.3h0.7c0.2,0,0.3-0.1,0.5-0.1c0.2,0,0.3,0.1,0.5,0.1H70l1.3,2.3l-2.5,3.2l-2.5-3.2L67.6,67.3z M97.9,96.3H40.6V81.8
		c0-6.3,4.2-11.9,10.1-13.7l10,20.1c0.3,0.7,1,1.1,1.8,1.1c0,0,0,0,0,0c0.8,0,1.5-0.4,1.8-1.1l4.6-9.1l4.6,9.1
		c0.3,0.7,1,1.1,1.8,1.1c0,0,0,0,0,0c0.8,0,1.5-0.5,1.8-1.2l9.1-20.4c6.7,1.3,11.7,7.2,11.7,14.2V96.3z"/>
</g>
</svg>
