<?xml version="1.0" encoding="utf-8"?>
<!-- Generator: Adobe Illustrator 19.1.0, SVG Export Plug-In . SVG Version: 6.00 Build 0)  -->
<svg version="1.1" id="Layer_1" xmlns="http://www.w3.org/2000/svg" xmlns:xlink="http://www.w3.org/1999/xlink" x="0px" y="0px"
	 viewBox="0 0 140 120" style="enable-background:new 0 0 140 120;" xml:space="preserve">
<g>
	<path d="M109.7,82.3C109.7,82.3,109.7,82.3,109.7,82.3c0.3-0.6,0.7-1.3,1-2c0,0,0-0.1,0-0.1c0.3-0.6,0.6-1.3,0.9-1.9
		c0-0.1,0-0.1,0.1-0.2c0.3-0.6,0.5-1.2,0.7-1.9c0-0.1,0.1-0.2,0.1-0.3c0.2-0.6,0.4-1.2,0.6-1.8c0-0.1,0.1-0.3,0.1-0.4
		c0.2-0.6,0.3-1.2,0.5-1.7c0.1-0.2,0.1-0.4,0.1-0.6c0.1-0.5,0.3-1.1,0.4-1.6c0.1-0.3,0.1-0.6,0.1-0.8c0.1-0.5,0.2-0.9,0.2-1.4
		c0.1-0.4,0.1-0.7,0.1-1.1c0.1-0.4,0.1-0.8,0.2-1.2c0-0.4,0.1-0.9,0.1-1.3c0-0.3,0.1-0.7,0.1-1c0-0.8,0.1-1.6,0.1-2.3
		c0-7.1-1.6-13.8-4.5-19.8c-7.4-15.3-23.1-25.9-41.2-25.9c-25.2,0-45.7,20.5-45.7,45.7c0,2.2,0.2,4.4,0.5,6.6c0,0.1,0,0.2,0,0.3
		c0.1,0.6,0.2,1.3,0.3,1.9c0,0.1,0,0.2,0.1,0.3c0.1,0.6,0.3,1.3,0.4,1.9c0,0.1,0,0.2,0.1,0.3c0.2,0.7,0.4,1.3,0.5,1.9
		c0,0.1,0,0.1,0.1,0.2c0.2,0.7,0.4,1.3,0.7,2c0,0,0,0.1,0,0.1c0.2,0.7,0.5,1.3,0.8,2c0,0,0,0,0,0C30.5,86.2,36.1,93,43,98
		c0,0,0,0,0,0c7.5,5.3,16.6,8.4,26.4,8.4c11.8,0,22.6-4.5,30.8-11.9C104,91,107.3,86.9,109.7,82.3z M111.2,60.7c0,1.4-0.1,2.7-0.2,4
		c0,0.4-0.1,0.8-0.2,1.2c-0.1,0.9-0.2,1.8-0.4,2.7c-0.1,0.5-0.2,1-0.3,1.5c-0.2,0.7-0.4,1.5-0.6,2.2c-0.2,0.5-0.3,1.1-0.5,1.6
		c-0.2,0.7-0.5,1.3-0.7,1.9c-0.2,0.6-0.4,1.1-0.7,1.7c-0.3,0.6-0.5,1.1-0.8,1.7c-0.3,0.6-0.6,1.2-0.9,1.7c-0.3,0.5-0.5,0.9-0.8,1.3
		c-0.9,1.5-1.9,3-3.1,4.4c0,0-0.1,0.1-0.1,0.2c-0.5-9.7-8.5-17.5-18.4-17.5H55.1c-9.7,0-17.7,7.6-18.4,17.1c0,0,0,0,0,0
		c-1.9-2.4-3.6-5.1-4.9-7.9c-0.2-0.4-0.4-0.7-0.5-1.1c-0.3-0.7-0.6-1.3-0.8-2c-0.2-0.5-0.4-1-0.6-1.6c-0.2-0.6-0.4-1.2-0.6-1.9
		c-0.2-0.6-0.4-1.3-0.5-2c-0.1-0.6-0.3-1.1-0.4-1.7c-0.2-0.8-0.3-1.6-0.4-2.4c-0.1-0.5-0.1-0.9-0.2-1.4c-0.1-1.3-0.2-2.6-0.2-4
		c0-23,18.7-41.7,41.7-41.7c15.8,0,29.6,8.9,36.7,21.9C109.4,46.7,111.2,53.5,111.2,60.7z M97.9,91.1C97.9,91.1,97.9,91.1,97.9,91.1
		c-1.9,1.7-3.9,3.3-6,4.7c0,0-0.1,0-0.1,0.1c-1,0.7-2.1,1.3-3.2,1.9c-0.1,0.1-0.2,0.1-0.3,0.2c-1,0.5-2.1,1-3.2,1.5
		c-0.2,0.1-0.5,0.2-0.7,0.3c-1,0.4-1.9,0.7-2.9,1c-0.4,0.1-0.9,0.2-1.3,0.3c-0.8,0.2-1.7,0.5-2.6,0.6c-0.7,0.1-1.4,0.2-2.1,0.3
		c-0.6,0.1-1.3,0.2-1.9,0.3c-1.4,0.1-2.8,0.2-4.2,0.2c-1.4,0-2.8-0.1-4.2-0.2c-0.7-0.1-1.3-0.2-2-0.3c-0.7-0.1-1.4-0.2-2-0.3
		c-0.9-0.2-1.8-0.4-2.7-0.7c-0.4-0.1-0.8-0.2-1.2-0.3c-1-0.3-2.1-0.7-3.1-1.1c-0.2-0.1-0.4-0.1-0.6-0.2c-1.1-0.5-2.2-1-3.3-1.5
		c-0.1,0-0.2-0.1-0.2-0.1c-1.1-0.6-2.3-1.3-3.3-2c0,0,0,0,0,0c-2.2-1.4-4.2-3-6.1-4.8c0,0,0,0,0,0l0-3c0-7.9,6.5-14.4,14.4-14.4
		h28.4c7.9,0,14.4,6.5,14.4,14.4V91.1z M40.7,90.9c-0.6-0.6-1.2-1.2-1.8-1.8C39.5,89.7,40.1,90.3,40.7,90.9z M38.4,88.4
		c-0.5-0.6-1.1-1.2-1.6-1.9C37.3,87.2,37.8,87.8,38.4,88.4z M97.9,91.1c0.6-0.6,1.2-1.2,1.8-1.8c-0.2,0.2-0.4,0.4-0.6,0.6
		C98.8,90.3,98.4,90.7,97.9,91.1z M101.9,86.9c-0.4,0.5-0.9,1-1.4,1.6C101,87.9,101.5,87.4,101.9,86.9z"/>
	<path d="M69.3,27.1c-10.7,0-19.5,8.7-19.5,19.5c0,10.7,8.7,19.5,19.5,19.5c10.7,0,19.5-8.7,19.5-19.5
		C88.8,35.8,80.1,27.1,69.3,27.1z M69.3,62c-8.5,0-15.5-6.9-15.5-15.5s6.9-15.5,15.5-15.5S84.8,38,84.8,46.6S77.9,62,69.3,62z"/>
</g>
</svg>
