<?xml version="1.0" encoding="utf-8"?>
<!-- Generator: Adobe Illustrator 19.1.0, SVG Export Plug-In . SVG Version: 6.00 Build 0)  -->
<svg version="1.1" id="Layer_1" xmlns="http://www.w3.org/2000/svg" xmlns:xlink="http://www.w3.org/1999/xlink" x="0px" y="0px"
	 viewBox="0 0 140 120" style="enable-background:new 0 0 140 120;" xml:space="preserve">
<g>
	<path d="M116.5,20.3c-0.1-0.5-0.4-1-0.9-1.3l-7.9-5c-0.6-0.4-1.3-0.4-1.9-0.1L73,28.3c-0.7,0.3-1.2,1-1.2,1.8v7.5
		c0,0.9,0.6,1.6,1.4,1.9l12.9,4c0.2,0.1,0.4,0.1,0.6,0.1c0.3,0,0.5-0.1,0.8-0.2l20-8.8c0.4-0.2,0.7-0.4,0.9-0.8l7.9-12.2
		C116.6,21.3,116.6,20.8,116.5,20.3z M105.4,31.4l-18.8,8.2l-10.8-3.4v-4.8L106.5,18l5.3,3.3L105.4,31.4z"/>
	<path d="M95.8,52.2c-0.3-0.4-0.6-0.6-1.1-0.7l-20.4-5.9c-0.6-0.2-1.3-0.1-1.8,0.3c-0.5,0.4-0.8,1-0.8,1.6v17.2
		c0,0.9,0.6,1.7,1.4,1.9l20.4,5.9c0.2,0.1,0.4,0.1,0.6,0.1c0.5,0,0.9-0.2,1.3-0.5l7.9-6.5c0.8-0.7,1-1.9,0.3-2.7L95.8,52.2z
		 M93.7,68.4l-17.9-5.2v-13l17.1,4.9l6.3,8.6L93.7,68.4z"/>
	<path d="M53.5,30.6H33.1c-0.6,0-1.1,0.2-1.5,0.6l-7.9,8.4c-0.7,0.8-0.7,1.9,0,2.7l7.9,8.8c0.4,0.4,0.9,0.7,1.5,0.7h20.4
		c1.1,0,2-0.9,2-2V32.6C55.5,31.5,54.6,30.6,53.5,30.6z M51.5,47.8H34L27.9,41l6-6.4h17.5V47.8z"/>
	<path d="M63.6,24.8c-1.2,0-2.2,1-2.2,2.2v79.4c0,1.2,1,2.2,2.2,2.2c1.2,0,2.2-1,2.2-2.2V27.1C65.9,25.8,64.9,24.8,63.6,24.8z"/>
</g>
</svg>
