<?xml version="1.0" encoding="utf-8"?>
<!-- Generator: Adobe Illustrator 19.1.0, SVG Export Plug-In . SVG Version: 6.00 Build 0)  -->
<svg version="1.1" id="Layer_1" xmlns="http://www.w3.org/2000/svg" xmlns:xlink="http://www.w3.org/1999/xlink" x="0px" y="0px"
	 viewBox="0 0 140 120" style="enable-background:new 0 0 140 120;" xml:space="preserve">
<g>
	<path d="M66.9,50.7c-0.4-0.3-1-0.4-1.4-0.1c-0.5,0.2-0.8,0.7-0.8,1.2v16.6c0,0.5,0.3,1,0.8,1.2c0.2,0.1,0.4,0.1,0.6,0.1
		c0.3,0,0.6-0.1,0.8-0.3l11.4-8.3c0.4-0.3,0.6-0.7,0.6-1.1c0-0.4-0.2-0.9-0.6-1.1L66.9,50.7z"/>
	<path d="M69.9,10c-27.6,0-50,22.4-50,50s22.4,50,50,50c27.6,0,50-22.4,50-50S97.5,10,69.9,10z M97.2,73.4c0,0.2-0.1,0.4-0.1,0.6
		c0,0.1-0.1,0.2-0.1,0.3c-0.7,2.1-2.7,3.7-5.1,3.7h0.4c0,0-9.6,1.4-22.3,1.5C57.2,79.5,47.6,78,47.6,78h0.4c-2.4,0-4.4-1.5-5.1-3.7
		c0-0.1-0.1-0.2-0.1-0.3c-0.1-0.2-0.1-0.4-0.1-0.6c-0.3-2.5-0.9-7.5-1-13.4c0.1-6,0.6-10.9,1-13.4c0-0.2,0.1-0.4,0.1-0.6
		c0-0.1,0.1-0.2,0.1-0.3c0.7-2.1,2.7-3.7,5.1-3.7h-0.4c0,0,9.6-1.4,22.3-1.5C82.7,40.5,92.2,42,92.2,42h-0.4c2.4,0,4.4,1.5,5.1,3.7
		c0,0.1,0.1,0.2,0.1,0.3c0.1,0.2,0.1,0.4,0.1,0.6c0.3,2.5,0.9,7.5,1,13.4C98.1,66,97.6,70.9,97.2,73.4z"/>
</g>
</svg>
