<?xml version="1.0" encoding="UTF-8" standalone="no"?>
<svg
   xmlns:dc="http://purl.org/dc/elements/1.1/"
   xmlns:cc="http://creativecommons.org/ns#"
   xmlns:rdf="http://www.w3.org/1999/02/22-rdf-syntax-ns#"
   xmlns:svg="http://www.w3.org/2000/svg"
   xmlns="http://www.w3.org/2000/svg"
   xmlns:xlink="http://www.w3.org/1999/xlink"
   xmlns:sodipodi="http://sodipodi.sourceforge.net/DTD/sodipodi-0.dtd"
   xmlns:inkscape="http://www.inkscape.org/namespaces/inkscape"
   xml:space="preserve"
   enable-background="new 0 0 687.876 276"
   viewBox="0 0 455.65439 39.999997"
   height="39.999996"
   width="455.65436"
   y="0px"
   x="0px"
   id="Layer_1"
   version="1.0"
   inkscape:version="0.91 r13725"
   sodipodi:docname="riskInsightsBrand.svg"><sodipodi:namedview
     pagecolor="#ffffff"
     bordercolor="#666666"
     borderopacity="1"
     objecttolerance="10"
     gridtolerance="10"
     guidetolerance="10"
     inkscape:pageopacity="0"
     inkscape:pageshadow="2"
     inkscape:window-width="1536"
     inkscape:window-height="814"
     id="namedview4153"
     showgrid="false"
     inkscape:zoom="1.964208"
     inkscape:cx="181.54257"
     inkscape:cy="-0.36444892"
     inkscape:window-x="-8"
     inkscape:window-y="-8"
     inkscape:window-maximized="1"
     inkscape:current-layer="Layer_1"
     inkscape:showpageshadow="false"
     showborder="false"
     fit-margin-top="0"
     fit-margin-left="0"
     fit-margin-right="0"
     fit-margin-bottom="0"
     borderlayer="true" /><metadata
     id="metadata4145"><rdf:RDF><cc:Work
         rdf:about=""><dc:format>image/svg+xml</dc:format><dc:type
           rdf:resource="http://purl.org/dc/dcmitype/StillImage" /><dc:title></dc:title></cc:Work></rdf:RDF></metadata><defs
     id="defs4143"><linearGradient
       id="linearGradient4181"><stop
         id="stop4183"
         offset="0"
         style="stop-color:#00267c;stop-opacity:1;" /><stop
         style="stop-color:#00338d;stop-opacity:1"
         offset="0.35038102"
         id="stop4189" /><stop
         id="stop4185"
         offset="1"
         style="stop-color:#009fda;stop-opacity:1" /></linearGradient><linearGradient
       gradientTransform="matrix(0.63828543,0,0,0.53333332,23.516231,-26.332493)"
       gradientUnits="userSpaceOnUse"
       y2="129.32867"
       x2="318.44333"
       y1="129.32867"
       x1="138.15486"
       id="linearGradient4187"
       xlink:href="#linearGradient4181" /></defs><rect
     style="fill:#00277d;fill-opacity:1;stroke:none;stroke-width:4.19999981;stroke-miterlimit:4;stroke-dasharray:none;stroke-opacity:1"
     id="rect4165"
     width="359.94156"
     height="40"
     x="97.240219"
     y="-7.6350179e-006" /><g
     style="fill:#000000;fill-opacity:0"
     transform="matrix(0.60620192,0,0,0.60620192,-111.69847,-22.642803)"
     id="g4148"><path
       style="fill:#000000;fill-opacity:0"
       d="m 682.417,210.488 -35.789,0 5.459,-23.657 -71.578,0 -5.458,23.657 -34.576,0 0,-4.854 0,0 1.213,-8.492 0,0 3.033,-9.705 3.639,-9.099 5.46,-8.493 2.426,-4.246 3.033,-3.64 3.64,-3.032 3.64,-3.033 3.64,-3.033 4.246,-2.426 4.246,-1.82 4.853,-1.213 4.853,-0.606 5.46,-0.606 0,0 4.246,0.606 4.246,0.606 3.64,1.213 3.64,1.82 2.427,3.033 1.818,3.032 1.215,4.853 0,5.459 42.46,0 0,0 1.82,-6.671 0,-3.641 0,-4.246 0,-4.246 -1.213,-4.246 -1.213,-4.246 -2.427,-4.246 0,0 -4.246,-4.853 -4.246,-3.64 -5.459,-3.033 -6.066,-2.427 -7.278,-1.819 -7.279,-1.213 -7.886,-0.607 -9.099,0 0,0 -13.953,0.607 -7.278,0.606 -8.492,1.82 -7.887,1.819 -8.491,3.033 -8.493,3.64 -7.885,4.853 0,-128.597 141.942,0 0,205.029 -0.003,0 z m -83.71,34.575 0,0 -12.132,1.821 -12.132,0.605 0,0 -7.278,-0.605 -6.674,-1.215 -6.064,-2.426 -4.854,-3.641 -2.426,-1.818 -1.821,-2.427 -1.818,-2.427 -1.213,-3.033 -1.215,-3.033 -0.605,-3.639 -0.607,-7.279 66.119,0 -7.28,29.117 0,0 z m -81.89,-117.072 0,29.117 0,0 -6.673,10.312 -5.46,10.919 -4.245,10.312 -2.427,9.1 0,0 -1.819,6.672 -0.607,6.066 -21.23,0 18.197,-84.923 -60.053,0 -53.987,84.923 -3.638,0 0,-205.03 141.942,0 0,122.532 0,0 z m -79.463,82.497 -21.231,0 32.15,-50.954 -10.919,50.954 0,0 z m -86.136,-84.923 -35.183,0 -24.263,84.923 -38.216,0 0,0 7.279,-3.033 6.065,-3.639 5.46,-4.248 4.852,-4.853 3.641,-5.458 3.033,-6.066 2.426,-6.673 1.819,-6.673 0,0 1.819,-10.918 0,-4.853 -0.605,-4.246 -0.607,-4.247 -1.213,-3.032 -1.82,-3.64 -2.426,-3.033 0,0 -3.64,-3.639 -4.853,-3.033 -5.458,-1.819 -6.066,-1.214 -6.067,-0.606 -6.672,0 -12.738,0 0,0 -27.904,0 0,-120.106 141.337,0 0,120.106 0,0 z m -22.445,84.923 14.558,-53.38 0.607,53.38 -15.165,0 0,0 z m -103.12,-20.624 0,0 0,0 -4.853,0.606 0,0 -4.853,0 -9.1,0 4.246,-15.771 1.82,-7.887 4.853,-17.591 0,0 6.065,0 0,0 7.28,0 0,0 7.886,0 6.672,0.607 4.853,1.213 1.212,1.213 1.214,1.214 0,0 1.212,2.426 0.607,3.64 -0.607,4.246 -1.819,5.459 0,0 -1.212,4.246 -2.427,4.247 -1.82,3.64 -3.032,2.426 -3.033,2.427 -4.247,1.819 -5.458,1.214 -5.459,0.606 0,0 z m -39.428,-57.02 -2.427,7.278 -20.625,67.94 -0.605,2.426 -66.727,0 -5.458,-10.92 72.185,-74.003 -46.102,0 -56.413,60.66 18.198,-60.66 -33.97,0 0,-120.106 141.943,0 0,127.385 0.001,0 z M 535.014,0 l 0,137.696 0,0 -6.671,6.066 -6.066,6.066 0,-149.828 -152.86,0 0,125.565 -12.739,0 0,-125.565 -152.257,0 0,125.565 -12.738,0 0,-125.565 -152.862,0 0,143.156 L 0,272.967 l 33.969,0 17.591,-57.02 4.853,0 28.51,57.02 41.248,0 -27.903,-57.02 63.085,0 -17.591,57.02 37.61,0 16.983,-57.02 7.886,0 0,0 12.133,0 0.605,0 70.972,0 -16.377,57.02 37.608,0 15.771,-57.02 16.985,0 0.606,57.02 31.542,0 36.396,-57.02 23.657,0 -12.133,57.02 37.003,0 12.132,-57.02 21.837,0 0,0 0,6.065 0,6.674 1.214,6.064 1.819,6.067 1.819,5.459 3.033,4.853 3.641,4.853 3.639,4.245 0,0 6.066,4.854 6.065,3.64 6.673,2.427 7.279,2.427 6.672,1.212 7.278,0.606 13.348,0.607 0,0 16.379,-0.607 17.591,-1.212 16.984,-3.033 17.591,-3.641 13.347,-51.56 42.46,0 0,-215.947 -152.862,0 0,0 z"
       id="path4150"
       inkscape:connector-curvature="0" /></g><g
     transform="translate(-153.61275,-69.344658)"
     style="display:inline"
     id="layer1" /><g
     id="g4160"
     transform="translate(-111.69847,-22.642803)"><path
       id="rect4179"
       d="m 111.69847,22.642795 115.07549,0 -14.49148,40 -100.58401,0 z"
       style="display:inline;fill:url(#linearGradient4187);fill-opacity:1;stroke:none;stroke-opacity:1"
       inkscape:connector-curvature="0" /><g
       style="fill:#ffffff;fill-opacity:1"
       transform="matrix(0.09506387,0,0,0.0710255,123.7226,31.971351)"
       id="g4163"><path
         style="fill:#ffffff;fill-opacity:1"
         d="m 682.417,210.488 -35.789,0 5.459,-23.657 -71.578,0 -5.458,23.657 -34.576,0 0,-4.854 0,0 1.213,-8.492 0,0 3.033,-9.705 3.639,-9.099 5.46,-8.493 2.426,-4.246 3.033,-3.64 3.64,-3.032 3.64,-3.033 3.64,-3.033 4.246,-2.426 4.246,-1.82 4.853,-1.213 4.853,-0.606 5.46,-0.606 0,0 4.246,0.606 4.246,0.606 3.64,1.213 3.64,1.82 2.427,3.033 1.818,3.032 1.215,4.853 0,5.459 42.46,0 0,0 1.82,-6.671 0,-3.641 0,-4.246 0,-4.246 -1.213,-4.246 -1.213,-4.246 -2.427,-4.246 0,0 -4.246,-4.853 -4.246,-3.64 -5.459,-3.033 -6.066,-2.427 -7.278,-1.819 -7.279,-1.213 -7.886,-0.607 -9.099,0 0,0 -13.953,0.607 -7.278,0.606 -8.492,1.82 -7.887,1.819 -8.491,3.033 -8.493,3.64 -7.885,4.853 0,-128.597 141.942,0 0,205.029 -0.003,0 z m -83.71,34.575 0,0 -12.132,1.821 -12.132,0.605 0,0 -7.278,-0.605 -6.674,-1.215 -6.064,-2.426 -4.854,-3.641 -2.426,-1.818 -1.821,-2.427 -1.818,-2.427 -1.213,-3.033 -1.215,-3.033 -0.605,-3.639 -0.607,-7.279 66.119,0 -7.28,29.117 0,0 z m -81.89,-117.072 0,29.117 0,0 -6.673,10.312 -5.46,10.919 -4.245,10.312 -2.427,9.1 0,0 -1.819,6.672 -0.607,6.066 -21.23,0 18.197,-84.923 -60.053,0 -53.987,84.923 -3.638,0 0,-205.03 141.942,0 0,122.532 0,0 z m -79.463,82.497 -21.231,0 32.15,-50.954 -10.919,50.954 0,0 z m -86.136,-84.923 -35.183,0 -24.263,84.923 -38.216,0 0,0 7.279,-3.033 6.065,-3.639 5.46,-4.248 4.852,-4.853 3.641,-5.458 3.033,-6.066 2.426,-6.673 1.819,-6.673 0,0 1.819,-10.918 0,-4.853 -0.605,-4.246 -0.607,-4.247 -1.213,-3.032 -1.82,-3.64 -2.426,-3.033 0,0 -3.64,-3.639 -4.853,-3.033 -5.458,-1.819 -6.066,-1.214 -6.067,-0.606 -6.672,0 -12.738,0 0,0 -27.904,0 0,-120.106 141.337,0 0,120.106 0,0 z m -22.445,84.923 14.558,-53.38 0.607,53.38 -15.165,0 0,0 z m -103.12,-20.624 0,0 0,0 -4.853,0.606 0,0 -4.853,0 -9.1,0 4.246,-15.771 1.82,-7.887 4.853,-17.591 0,0 6.065,0 0,0 7.28,0 0,0 7.886,0 6.672,0.607 4.853,1.213 1.212,1.213 1.214,1.214 0,0 1.212,2.426 0.607,3.64 -0.607,4.246 -1.819,5.459 0,0 -1.212,4.246 -2.427,4.247 -1.82,3.64 -3.032,2.426 -3.033,2.427 -4.247,1.819 -5.458,1.214 -5.459,0.606 0,0 z m -39.428,-57.02 -2.427,7.278 -20.625,67.94 -0.605,2.426 -66.727,0 -5.458,-10.92 72.185,-74.003 -46.102,0 -56.413,60.66 18.198,-60.66 -33.97,0 0,-120.106 141.943,0 0,127.385 0.001,0 z M 535.014,0 l 0,137.696 0,0 -6.671,6.066 -6.066,6.066 0,-149.828 -152.86,0 0,125.565 -12.739,0 0,-125.565 -152.257,0 0,125.565 -12.738,0 0,-125.565 -152.862,0 0,143.156 L 0,272.967 l 33.969,0 17.591,-57.02 4.853,0 28.51,57.02 41.248,0 -27.903,-57.02 63.085,0 -17.591,57.02 37.61,0 16.983,-57.02 7.886,0 0,0 12.133,0 0.605,0 70.972,0 -16.377,57.02 37.608,0 15.771,-57.02 16.985,0 0.606,57.02 31.542,0 36.396,-57.02 23.657,0 -12.133,57.02 37.003,0 12.132,-57.02 21.837,0 0,0 0,6.065 0,6.674 1.214,6.064 1.819,6.067 1.819,5.459 3.033,4.853 3.641,4.853 3.639,4.245 0,0 6.066,4.854 6.065,3.64 6.673,2.427 7.279,2.427 6.672,1.212 7.278,0.606 13.348,0.607 0,0 16.379,-0.607 17.591,-1.212 16.984,-3.033 17.591,-3.641 13.347,-51.56 42.46,0 0,-215.947 -152.862,0 0,0 z"
         id="path4165"
         inkscape:connector-curvature="0" /></g></g><text
     sodipodi:linespacing="125%"
     xml:space="preserve"
     style="font-style:normal;font-variant:normal;font-weight:normal;font-stretch:normal;font-size:25.00000381px;line-height:125%;font-family:sans-serif;-inkscape-font-specification:'sans-serif, Normal';text-align:start;letter-spacing:0px;word-spacing:0px;writing-mode:lr-tb;text-anchor:start;fill:#ffffff;fill-opacity:1;stroke:none;stroke-width:1px;stroke-linecap:butt;stroke-linejoin:miter;stroke-opacity:1;"
     x="128.4937"
     y="26.957405"
     id="header-title"><tspan
       id="tspan4154"
       x="128.4937"
       y="26.957405"
       style="fill:#ffffff;fill-opacity:1;">Dynamic Risk Assessment</tspan></text>
</svg>